<svg width="270" height="250" viewBox="0 0 270 250" fill="none" xmlns="http://www.w3.org/2000/svg">
<path d="M104.483 245.463C22.2724 230.048 -33.9904 162.61 23.4143 99.9816C64.6622 54.9799 62.0646 31.6013 135.455 26.9199C200.41 22.7808 254.232 67.1688 266.635 134.136C283.562 225.567 203.293 263.989 104.483 245.463Z" fill="#7540EE"/>
<path d="M111.333 103.507L120.71 107.789L133.556 111.357L138.308 111.971C138.308 111.971 142.547 120.634 144.631 128.341C146.729 136.049 148.627 148.466 148.627 148.466L148.87 153.647L146.487 154.075C146.487 154.075 141.448 151.977 139.25 149.465C137.067 146.939 134.112 143.47 131.786 139.374C129.459 135.278 124.935 124.488 124.935 124.488C124.935 124.488 120.553 115.682 120.125 114.882C119.697 114.083 113.574 105.163 111.333 103.507Z" fill="white"/>
<path d="M138.308 111.97L155.578 112.013L176.06 109.943L182.91 108.73L198.039 106.304L211.598 104.948C211.598 104.948 223.802 104.091 227.798 104.377C231.794 104.662 239.145 105.804 239.145 107.089C239.145 108.373 235.148 108.516 235.148 108.516H232.508C232.508 108.516 240.072 113.297 239.573 114.225C239.073 115.153 237.004 114.225 237.004 114.225C237.004 114.225 237.932 115.795 236.147 116.295L232.722 114.582L223.873 113.083C223.873 113.083 219.948 114.154 219.377 114.154C218.806 114.154 214.168 116.18 213.24 116.823C212.312 117.465 210.571 120.063 210.571 120.063L190.832 132.152C190.832 132.152 181.983 139.716 173.134 144.497C164.285 149.279 155.864 152.676 148.87 153.66C148.87 153.66 148.156 142.142 146.23 134.078C144.303 126.014 138.308 111.97 138.308 111.97Z" fill="white"/>
<path d="M237.888 105.69C235.605 104.863 231.009 104.178 227.84 103.949C223.858 103.664 212.083 104.492 211.569 104.52L198.01 105.876C197.996 105.876 197.996 105.876 197.982 105.876L182.853 108.302L176.016 109.515C175.488 109.573 160.573 111.242 155.563 111.585C147.885 112.099 138.436 111.542 138.351 111.542C138.194 111.528 138.065 111.599 137.98 111.728C137.894 111.856 137.88 111.999 137.937 112.142C137.937 112.156 138.379 113.169 139.036 114.768C139.093 114.911 139.236 115.025 139.393 115.039C141.291 115.196 144.531 115.396 148.656 115.396C154.179 115.396 161.258 115.039 168.808 113.74C184.237 111.085 225.228 104.006 237.674 106.533C237.888 106.575 238.117 106.447 238.174 106.233C238.202 105.99 238.088 105.762 237.888 105.69Z" fill="white"/>
<path d="M241.371 117.18C237.474 115.653 231.794 113.897 231.737 113.883C231.508 113.811 231.266 113.94 231.209 114.168C231.137 114.397 231.266 114.639 231.494 114.696C231.551 114.711 237.203 116.452 241.071 117.965C242.27 118.436 242.484 118.921 242.427 119.121C242.313 119.506 240.857 119.392 239.672 119.049C239.658 119.049 239.658 119.049 239.644 119.035C238.673 118.821 231.209 117.066 230.367 116.866C230.138 116.809 229.91 116.951 229.853 117.18C229.824 117.294 229.81 117.565 230.167 117.694C230.181 117.694 230.21 117.708 230.224 117.708C230.238 117.708 230.238 117.708 230.252 117.722C230.466 117.779 230.952 117.893 231.052 117.922C234.349 119.164 238.873 120.862 239.101 122.004C239.116 122.061 239.13 122.175 238.959 122.346C238.473 122.375 236.504 121.59 234.92 120.962C232.465 119.977 229.681 118.864 227.926 118.721C225.642 118.536 223.516 118.436 221.418 118.436C218.163 118.436 212.212 120.177 205.489 123.089C199.523 125.672 194.242 128.641 191.745 130.767L190.76 128.955C190.731 128.912 190.717 128.883 190.674 128.84L187.249 125.601C187.135 125.486 186.963 125.458 186.821 125.501C186.664 125.558 186.564 125.686 186.535 125.843C186.535 125.886 185.864 130.296 183.624 132.451C182.396 133.622 180.298 133.55 178.072 133.479C176.016 133.408 173.89 133.336 172.034 134.178C170.507 134.864 169.437 136.591 168.209 138.574C166.197 141.843 163.913 145.539 158.846 145.939C155.521 146.21 152.595 145.026 150.169 142.442C148.342 140.501 147.485 138.432 147.471 138.403C147.442 138.346 147.414 138.289 147.371 138.26C146.971 136.177 146.515 134.007 145.972 131.809C143.674 122.518 139.992 114.653 138.865 112.327C140.963 112.498 143.261 112.584 145.701 112.584C162.457 112.584 185.608 108.902 191.331 107.688C197.953 106.275 219.776 104.406 226.185 104.705C232.636 105.005 237.931 105.976 238.773 107.032C238.859 107.132 238.845 107.189 238.845 107.203C238.845 107.203 238.616 107.874 234.406 107.945C232.108 107.974 229.824 107.803 229.796 107.803C229.681 107.788 229.567 107.831 229.482 107.902C229.396 107.974 229.339 108.088 229.339 108.202C229.325 108.331 229.096 111.314 225.029 111.613C224.786 111.628 224.615 111.842 224.629 112.07C224.643 112.313 224.843 112.484 225.086 112.47C228.568 112.213 229.867 110.086 230.138 108.687C230.909 108.73 232.664 108.83 234.406 108.802C238.859 108.745 239.558 108.002 239.672 107.36C239.715 107.16 239.701 106.832 239.43 106.504C237.774 104.449 227.398 103.92 226.213 103.863C219.762 103.564 197.796 105.448 191.131 106.875C184.494 108.288 154.393 113.012 138.179 111.442C132.256 110.871 126.661 109.315 121.994 107.588C121.966 107.574 121.951 107.56 121.923 107.546C121.766 107.474 121.623 107.417 121.466 107.36L116.614 105.376C114.002 104.192 111.932 103.107 110.59 102.35C110.391 102.236 110.119 102.308 110.005 102.507C109.891 102.707 109.962 102.978 110.162 103.093C110.662 103.378 111.247 103.692 111.932 104.049C111.918 104.163 111.946 104.292 112.032 104.391L114.872 107.66L117.07 110.714C117.156 110.828 117.284 110.885 117.413 110.885C117.498 110.885 117.57 110.857 117.641 110.814C117.827 110.686 117.898 110.443 117.784 110.243C117.427 109.615 116.828 108.174 117.284 107.646C117.456 107.446 118.055 107.132 120.025 107.745C125.006 109.701 131.214 111.585 137.851 112.256C138.551 113.64 142.647 121.99 145.13 132.038C147.571 141.871 148.37 151.363 148.513 153.29C147.885 153.404 147.285 153.504 146.715 153.575C146.486 153.604 146.315 153.832 146.358 154.06C146.386 154.274 146.572 154.431 146.786 154.431C146.8 154.431 146.829 154.431 146.843 154.431C158.96 152.704 170.564 146.638 178.157 141.843C186.378 136.662 191.83 131.823 191.887 131.766C196.697 127.256 214.538 119.292 221.389 119.292C223.473 119.292 225.571 119.378 227.826 119.578C229.453 119.72 232.293 120.848 234.563 121.761C238.06 123.16 238.987 123.46 239.458 123.017C239.929 122.575 239.943 122.132 239.886 121.833C239.701 120.933 238.516 120.12 236.504 119.206C237.874 119.52 239.016 119.792 239.373 119.863C239.487 119.892 240.2 120.091 240.957 120.177C242.227 120.305 242.969 120.034 243.169 119.363C243.326 119.078 243.455 118.008 241.371 117.18Z" fill="#1A1A1A"/>
<path d="M242.369 114.825C241.641 114.825 240.657 114.668 239.515 114.411C239.286 114.368 239.129 114.14 239.186 113.897C239.229 113.669 239.458 113.512 239.7 113.569C241.998 114.054 242.712 113.969 242.926 113.912C242.498 113.184 238.53 111.128 232.521 108.916C232.293 108.831 232.179 108.588 232.264 108.36C232.35 108.131 232.593 108.017 232.821 108.103C234.505 108.731 242.969 111.913 243.739 113.612C243.854 113.883 243.825 114.097 243.768 114.226C243.597 114.654 243.111 114.825 242.369 114.825Z" fill="#1A1A1A"/>
<path d="M242.725 118.25C242.297 118.25 241.769 118.179 241.098 117.994C240.87 117.936 240.742 117.694 240.799 117.465C240.856 117.237 241.098 117.109 241.327 117.166C242.897 117.608 243.425 117.294 243.553 117.18C243.625 117.123 243.71 117.023 243.682 116.809C243.639 116.481 242.483 115.467 238.429 114.026C235.075 112.827 232.72 112.242 232.692 112.227C232.463 112.17 232.321 111.942 232.378 111.714C232.435 111.485 232.663 111.342 232.892 111.4C232.92 111.4 235.304 112.013 238.701 113.212C242.44 114.54 244.395 115.71 244.524 116.695C244.581 117.137 244.438 117.537 244.11 117.822C243.867 118.051 243.439 118.25 242.725 118.25Z" fill="#1A1A1A"/>
<path d="M203.576 139.302C203.134 139.302 202.706 139.245 202.292 139.131C200.722 138.703 198.838 136.905 198.538 134.921C198.338 133.65 198.866 132.537 200.022 131.795C203.334 129.654 206.36 132.566 206.388 132.594C206.559 132.766 206.559 133.037 206.388 133.194C206.217 133.365 205.946 133.365 205.789 133.194C205.789 133.194 205.132 132.551 204.133 132.152C202.848 131.638 201.621 131.752 200.493 132.494C199.623 133.065 199.252 133.822 199.394 134.764C199.637 136.348 201.25 137.932 202.534 138.275C203.633 138.574 204.704 138.332 205.418 138.061C205.646 137.975 205.889 138.089 205.974 138.318C206.06 138.546 205.946 138.789 205.717 138.874C204.989 139.16 204.261 139.302 203.576 139.302Z" fill="#1A1A1A"/>
<path d="M168.85 206.783V221.184C168.85 222.369 169.82 223.339 171.005 223.339H266.418C267.602 223.339 268.573 222.369 268.573 221.184V206.355L168.85 206.783Z" fill="white"/>
<path d="M268.4 205.113L258.566 184.889C257.382 182.634 255.041 181.235 252.486 181.235H250.417H195.895H187.431C185.019 181.235 182.793 182.491 181.537 184.56L169.077 205.227C168.292 206.54 169.234 208.21 170.761 208.21L266.63 207.939C268.086 207.939 269.028 206.426 268.4 205.113Z" fill="white"/>
<path d="M195.881 183.762H192.769C190.771 183.762 188.916 184.803 187.888 186.516L177.555 203.658C176.898 204.742 177.683 206.127 178.953 206.127L258.466 205.898C259.665 205.898 260.45 204.642 259.922 203.558L251.772 186.787C251.344 185.988 250.745 185.303 250.031 184.803L237.271 183.804L195.881 183.762Z" fill="#7540EE"/>
<path d="M233.118 159.869C233.118 159.869 236.215 160.968 240.155 163.723C244.108 166.478 246.106 169.389 246.677 170.103C247.248 170.817 250.003 176.197 250.203 180.379C250.388 184.561 248.732 189.842 246.449 193.082C244.165 196.322 239.313 200.033 239.313 200.033C239.313 200.033 237.029 202.602 236.915 202.288C236.801 201.974 237.414 200.033 237.343 200.033C237.272 200.033 235.559 201.146 235.273 200.86C234.988 200.575 233.661 200.746 233.732 200.389C233.803 200.033 235.131 198.962 234.902 198.677C234.66 198.391 232.876 198.605 232.876 198.22C232.876 197.835 234.688 197.506 234.588 197.121C234.488 196.736 233.047 196.051 233.232 195.722C233.418 195.394 235.659 195.48 235.659 195.48C235.659 195.48 238.085 191.94 238.042 188.172C237.999 184.418 236.472 180.936 236.472 180.936L227.024 181.25L209.397 180.993C209.397 180.993 207.285 184.104 206.856 186.088C206.428 188.058 205.886 191.726 206.314 193.153C206.742 194.58 206.885 195.894 207.313 195.965C207.741 196.036 209.34 196.222 209.169 196.65C208.997 197.078 208.127 197.292 208.17 197.549C208.212 197.806 209.625 199.076 209.354 199.333C209.097 199.59 208.141 199.233 208.141 199.233C208.141 199.233 209.354 200.546 209.112 200.775C208.869 201.017 207.156 200.061 207.156 200.061C207.156 200.061 207.513 201.246 207.256 201.374C206.999 201.488 204.073 199.847 204.073 199.847C204.073 199.847 204.287 201.174 204.045 201.274C203.802 201.374 202.375 200.389 202.375 200.318C202.375 200.247 198.707 194.894 197.693 191.854C196.666 188.814 195.952 184.176 195.952 183.976C195.952 183.79 196.052 179.337 196.052 179.337L197.365 174.527C197.365 174.527 197.722 172.643 199.035 170.574C200.348 168.504 202.204 166.264 204.644 164.679C207.099 163.081 210.353 161.753 210.596 161.653C210.839 161.554 215.805 159.869 215.805 159.869C215.805 159.869 218.546 162.396 225.111 162.11C231.677 161.825 233.118 159.869 233.118 159.869Z" fill="#F95179"/>
<path d="M197.494 173.97C197.437 174.113 197.38 174.27 197.309 174.398C197.209 174.57 197.123 174.755 197.023 174.926C196.938 175.212 196.838 175.483 196.767 175.783C196.738 175.897 196.724 176.011 196.695 176.125L196.724 175.826C196.667 175.94 196.695 176.154 196.681 176.297C196.667 176.625 196.667 176.939 196.681 177.267C196.695 177.681 196.61 178.066 196.453 178.409C196.695 178.495 196.966 178.552 197.238 178.552C198.494 178.552 199.521 177.524 199.521 176.268C199.535 175.069 198.636 174.084 197.494 173.97Z" fill="white"/>
<path d="M200.349 185.602C201.61 185.602 202.632 184.58 202.632 183.319C202.632 182.058 201.61 181.035 200.349 181.035C199.087 181.035 198.065 182.058 198.065 183.319C198.065 184.58 199.087 185.602 200.349 185.602Z" fill="white"/>
<path d="M204.844 177.097C206.106 177.097 207.128 176.074 207.128 174.813C207.128 173.552 206.106 172.529 204.844 172.529C203.583 172.529 202.561 173.552 202.561 174.813C202.561 176.074 203.583 177.097 204.844 177.097Z" fill="white"/>
<path d="M202.576 166.164C202.476 166.306 202.347 166.449 202.204 166.563C201.89 166.82 201.591 167.106 201.32 167.405C201.248 167.491 201.177 167.562 201.105 167.648C201.163 167.562 201.234 167.491 201.291 167.405C201.205 167.434 201.034 167.748 200.977 167.834C200.62 168.333 200.263 168.833 199.878 169.304C200.249 170.089 201.034 170.617 201.948 170.617C203.204 170.617 204.231 169.589 204.231 168.333C204.245 167.32 203.532 166.435 202.576 166.164Z" fill="white"/>
<path d="M207.77 183.576C207.956 183.262 208.184 182.976 208.413 182.691C208.455 182.619 208.513 182.548 208.555 182.477C208.898 181.749 209.469 181.206 210.168 180.949C209.826 180.122 209.012 179.536 208.056 179.536C206.8 179.536 205.772 180.564 205.772 181.82C205.772 182.905 206.543 183.818 207.556 184.047C207.613 183.875 207.685 183.718 207.77 183.576Z" fill="white"/>
<path d="M213.68 174.813C214.941 174.813 215.964 173.791 215.964 172.529C215.964 171.268 214.941 170.246 213.68 170.246C212.419 170.246 211.396 171.268 211.396 172.529C211.396 173.791 212.419 174.813 213.68 174.813Z" fill="white"/>
<path d="M216.006 181.122C215.378 181.036 216.462 181.151 216.577 181.151C216.848 181.165 217.119 181.179 217.39 181.179C217.847 181.193 218.304 181.193 218.746 181.179C219.017 180.808 219.188 180.337 219.188 179.838C219.188 178.582 218.161 177.554 216.905 177.554C215.649 177.554 214.621 178.582 214.621 179.838C214.621 180.28 214.75 180.694 214.978 181.051C215.306 181.036 215.635 181.079 216.006 181.122Z" fill="white"/>
<path d="M224.684 171.488C224.385 171.731 224.071 171.959 223.714 172.13C223.029 172.459 222.401 172.644 221.644 172.687C221.53 172.958 221.459 173.258 221.459 173.586C221.459 174.842 222.486 175.87 223.742 175.87C224.998 175.87 226.026 174.842 226.026 173.586C226.04 172.644 225.484 171.845 224.684 171.488Z" fill="white"/>
<path d="M229.051 181.363C229.136 181.121 229.179 180.864 229.179 180.607C229.179 179.351 228.152 178.323 226.896 178.323C225.64 178.323 224.612 179.351 224.612 180.607C224.612 180.821 224.641 181.035 224.698 181.235C226.154 181.292 227.595 181.349 229.051 181.363Z" fill="white"/>
<path d="M230.749 177.61C232.011 177.61 233.033 176.587 233.033 175.326C233.033 174.065 232.011 173.042 230.749 173.042C229.488 173.042 228.466 174.065 228.466 175.326C228.466 176.587 229.488 177.61 230.749 177.61Z" fill="white"/>
<path d="M239.072 178.894C240.333 178.894 241.356 177.872 241.356 176.611C241.356 175.349 240.333 174.327 239.072 174.327C237.811 174.327 236.788 175.349 236.788 176.611C236.788 177.872 237.811 178.894 239.072 178.894Z" fill="white"/>
<path d="M237.844 181.849C237.558 181.849 237.273 181.906 237.016 182.006C237.301 182.52 237.387 183.062 237.344 183.633C237.344 183.633 237.344 183.647 237.358 183.647C237.658 184.118 237.858 184.604 238.058 185.118C238.215 185.546 238.243 185.974 238.143 186.388C239.257 186.245 240.127 185.289 240.127 184.133C240.127 182.877 239.1 181.849 237.844 181.849Z" fill="white"/>
<path d="M245.664 182.634C246.925 182.634 247.948 181.612 247.948 180.35C247.948 179.089 246.925 178.067 245.664 178.067C244.403 178.067 243.381 179.089 243.381 180.35C243.381 181.612 244.403 182.634 245.664 182.634Z" fill="white"/>
<path d="M246.779 190.241C248.041 190.241 249.063 189.219 249.063 187.957C249.063 186.696 248.041 185.674 246.779 185.674C245.518 185.674 244.496 186.696 244.496 187.957C244.496 189.219 245.518 190.241 246.779 190.241Z" fill="white"/>
<path d="M245.736 174.456C246.997 174.456 248.019 173.434 248.019 172.173C248.019 170.911 246.997 169.889 245.736 169.889C244.474 169.889 243.452 170.911 243.452 172.173C243.452 173.434 244.474 174.456 245.736 174.456Z" fill="white"/>
<path d="M241.139 166.564C240.825 167.035 240.368 167.42 239.854 167.649C239.383 167.977 238.827 168.177 238.27 168.191C237.97 168.319 237.656 168.391 237.328 168.405C237.414 169.59 238.399 170.532 239.597 170.532C240.853 170.532 241.881 169.504 241.881 168.248C241.881 167.577 241.596 166.978 241.139 166.564Z" fill="white"/>
<path d="M206.314 189.086C206.314 189.086 206.485 193.153 206.414 193.182C206.343 193.211 204.245 193.282 203.131 194.01C202.018 194.738 199.949 195.794 199.949 195.794L197.522 190.97C197.522 190.97 199.021 189.271 202.018 188.786C204.63 188.358 206.314 189.086 206.314 189.086Z" fill="white"/>
<path d="M238.028 189.286C238.028 189.286 242.981 187.958 246.634 192.754L243.637 196.465C243.637 196.465 241.739 194.467 240.169 194.039C238.599 193.61 237.129 193.139 237.129 193.139L238.028 189.286Z" fill="white"/>
<path d="M225.184 114.64C223.001 114.454 219.475 113.683 217.235 114.169C214.994 114.64 210.912 116.838 208.143 120.92C205.388 125.016 206.045 130.91 206.045 130.91C206.045 130.91 206.23 136.234 205.659 138.147C205.089 140.059 203.561 145.754 207.658 150.992C211.754 156.23 216.607 156.03 216.607 156.03L218.034 156.13L216.221 159.941C216.221 159.941 217.648 161.939 224.114 162.225C230.58 162.51 233.149 159.941 233.149 159.941C233.149 159.941 230.522 158.343 231.307 156.53C232.092 154.717 235.661 153.561 238.158 149.964C240.656 146.368 241.698 141.258 241.698 141.258C241.698 141.258 245.908 143.713 248.378 140.973C250.847 138.232 249.305 136.234 248.663 135.663C248.021 135.092 245.209 134.407 242.84 136.206C242.84 136.206 243.91 129.754 242.297 125.758C240.685 121.762 238.843 119.407 234.761 116.795C230.679 114.183 225.184 114.64 225.184 114.64Z" fill="white"/>
<path d="M233.433 159.941C233.433 159.941 237.544 162.224 237.858 162.296C238.172 162.367 241.826 165.008 241.826 165.008C241.826 165.008 241.398 166.792 241.041 167.148C240.684 167.505 239.899 168.076 238.586 168.262C237.273 168.447 236.516 168.376 235.874 169.404C235.232 170.431 233.904 172.001 233.134 171.973C232.363 171.944 227.853 170.288 226.64 170.902C225.426 171.516 221.787 173.043 220.288 172.829C218.79 172.615 215.75 171.687 214.437 170.759C213.123 169.832 211.653 169.76 210.868 169.875C210.083 169.989 207.557 169.703 207.015 168.419C206.472 167.134 205.901 165.393 206.872 163.595L210.64 161.753L215.85 159.969C215.85 159.969 218.633 162.595 225.155 162.21C231.649 161.796 233.433 159.941 233.433 159.941Z" fill="white"/>
<path d="M241.839 158.656C241.439 158.357 240.797 158.214 240.041 158.185C241.082 157.714 241.939 157.129 242.296 156.401C242.51 155.973 242.652 155.302 242.153 154.474C241.867 153.989 241.411 153.689 240.84 153.618C238.057 153.247 232.733 158.242 232.148 158.813C231.976 158.97 231.976 159.241 232.133 159.413C232.233 159.527 232.376 159.57 232.519 159.541C232.547 159.755 232.733 159.898 232.947 159.898C232.961 159.898 232.976 159.898 232.99 159.898C233.047 159.898 233.147 159.884 233.261 159.869C233.304 159.969 233.389 160.041 233.489 160.084C233.96 160.269 237.257 161.554 239.684 161.554C240.426 161.554 241.082 161.439 241.553 161.125C242.039 160.811 242.31 160.312 242.324 159.698C242.338 159.284 242.167 158.913 241.839 158.656ZM240.512 154.46C240.583 154.46 240.654 154.46 240.726 154.474C241.04 154.517 241.268 154.66 241.425 154.917C241.668 155.331 241.71 155.688 241.539 156.03C241.111 156.886 239.47 157.7 236.901 158.328C235.316 158.713 233.803 158.942 233.19 159.013C234.931 157.415 238.585 154.46 240.512 154.46ZM241.082 160.412C240.426 160.84 238.942 160.797 236.901 160.269C236.244 160.098 235.616 159.912 235.102 159.741C237.471 159.156 240.512 158.699 241.325 159.327C241.439 159.413 241.482 159.513 241.482 159.67C241.454 160.012 241.325 160.255 241.082 160.412Z" fill="#1A1A1A"/>
<path d="M248.02 137.291C246.436 135.878 243.881 137.176 243.781 137.233C243.567 137.348 243.496 137.605 243.596 137.804C243.667 137.947 243.824 138.033 243.981 138.033C244.053 138.033 244.11 138.018 244.181 137.99C244.195 137.99 244.895 137.633 245.708 137.519C245.58 138.018 245.309 138.818 244.809 139.232C244.624 139.389 244.609 139.66 244.752 139.831C244.838 139.931 244.952 139.988 245.08 139.988C245.18 139.988 245.28 139.96 245.351 139.888C246.122 139.246 246.45 138.09 246.579 137.519C246.893 137.576 247.193 137.704 247.45 137.933C247.621 138.09 247.892 138.076 248.049 137.904C248.206 137.719 248.192 137.448 248.02 137.291Z" fill="#1A1A1A"/>
<path d="M214.223 152.29C213.98 151.991 213.795 151.662 213.638 151.306C213.495 150.949 213.381 150.549 213.395 150.121C213.395 149.907 213.438 149.678 213.538 149.464C213.623 149.25 213.766 149.036 213.952 148.879C214.137 148.722 214.308 148.608 214.551 148.508C214.794 148.422 215.036 148.408 215.265 148.437C215.493 148.465 215.707 148.522 215.893 148.608C216.093 148.694 216.264 148.794 216.421 148.893C216.749 149.108 217.035 149.364 217.306 149.621C217.834 150.164 218.276 150.735 218.647 151.377C218.69 151.463 218.662 151.562 218.59 151.605C218.519 151.648 218.433 151.634 218.39 151.577C217.891 151.077 217.391 150.563 216.849 150.135C216.578 149.921 216.307 149.721 216.021 149.564C215.878 149.479 215.736 149.422 215.593 149.364C215.45 149.307 215.308 149.279 215.179 149.265C215.051 149.25 214.936 149.265 214.837 149.307C214.737 149.35 214.608 149.422 214.523 149.507C214.337 149.664 214.237 149.893 214.194 150.178C214.151 150.463 214.194 150.792 214.266 151.12C214.337 151.448 214.437 151.777 214.551 152.105V152.119C214.58 152.219 214.537 152.319 214.437 152.362C214.351 152.376 214.28 152.347 214.223 152.29Z" fill="#1A1A1A"/>
<path d="M219.631 137.675C219.16 137.675 217.904 137.618 217.204 136.962C216.905 136.691 216.748 136.334 216.734 135.934C216.691 134.478 217.775 134.25 218.56 134.093C218.946 134.022 219.345 133.936 219.631 133.75C220.287 133.322 219.845 132.337 219.831 132.323C219.731 132.109 219.831 131.852 220.045 131.752C220.259 131.652 220.516 131.752 220.616 131.966C220.872 132.537 221.115 133.793 220.102 134.464C219.674 134.749 219.174 134.849 218.732 134.935C217.861 135.106 217.576 135.206 217.59 135.905C217.59 136.077 217.661 136.219 217.79 136.334C218.261 136.762 219.388 136.819 219.759 136.805C220.002 136.79 220.202 136.976 220.202 137.219C220.216 137.461 220.03 137.661 219.788 137.661C219.759 137.675 219.702 137.675 219.631 137.675Z" fill="#1A1A1A"/>
<path d="M231.821 132.737C231.764 132.737 231.692 132.723 231.635 132.695C228.324 131.139 224.97 132.067 224.941 132.081C224.713 132.152 224.47 132.009 224.413 131.781C224.342 131.553 224.485 131.31 224.713 131.253C224.856 131.21 228.41 130.225 232.006 131.924C232.221 132.024 232.306 132.281 232.206 132.495C232.135 132.652 231.978 132.737 231.821 132.737Z" fill="#1A1A1A"/>
<path d="M226.211 126.072C226.34 126.057 226.439 126.043 226.554 126.043C226.668 126.043 226.768 126.029 226.868 126.029C227.082 126.029 227.296 126.043 227.51 126.057C227.724 126.086 227.952 126.129 228.166 126.186C228.381 126.257 228.609 126.357 228.809 126.485C229.008 126.614 229.066 126.899 228.923 127.099C228.809 127.27 228.609 127.327 228.423 127.27L228.366 127.256C228.238 127.213 228.095 127.185 227.952 127.185C227.81 127.185 227.638 127.185 227.481 127.213C227.324 127.228 227.153 127.27 226.996 127.313C226.91 127.327 226.839 127.356 226.753 127.385C226.682 127.413 226.582 127.442 226.539 127.456C226.183 127.627 225.74 127.484 225.569 127.128C225.398 126.771 225.54 126.328 225.897 126.157C225.968 126.129 226.026 126.1 226.097 126.086L226.211 126.072Z" fill="#1A1A1A"/>
<path d="M216.878 147.409C216.764 147.409 216.635 147.366 216.564 147.266C214.894 145.396 214.965 144.54 215.151 144.197C215.379 143.783 215.822 143.641 216.25 143.498C216.749 143.327 217.277 143.17 217.577 142.57C217.834 142.056 217.891 141.642 217.948 141.3C218.02 140.843 218.12 140.258 218.847 140.187C219.618 140.115 221.345 140.729 221.673 140.857C221.902 140.943 222.002 141.186 221.93 141.414C221.859 141.642 221.602 141.742 221.374 141.671C220.66 141.414 219.376 141.014 218.919 141.057C218.89 141.057 218.876 141.057 218.876 141.072C218.847 141.129 218.819 141.314 218.79 141.457C218.733 141.828 218.648 142.342 218.334 142.97C217.877 143.883 217.092 144.14 216.507 144.326C216.236 144.411 215.964 144.497 215.893 144.611C215.85 144.882 216.464 145.867 217.192 146.695C217.349 146.866 217.335 147.137 217.149 147.294C217.092 147.38 216.978 147.409 216.878 147.409Z" fill="#1A1A1A"/>
<path d="M216.763 138.703C216.121 138.304 215.45 137.89 215.179 137.619C214.936 137.376 215.265 136.391 215.507 135.677C215.736 134.992 215.978 134.279 216.007 133.665C216.092 132.066 213.823 130.168 213.566 129.954C213.466 129.868 213.338 129.84 213.209 129.868C213.081 129.897 212.981 129.968 212.91 130.083L209.927 135.706C208.756 137.49 207.357 139.445 207.015 139.731C206.915 139.759 206.844 139.831 206.787 139.931C206.715 140.073 206.715 140.23 206.801 140.359C207.786 141.943 209.998 141.415 211.325 141.087C211.682 141.001 211.996 140.93 212.182 140.916C212.61 140.944 213.994 142.685 215.136 144.626C215.207 144.741 215.336 144.826 215.464 144.841C215.479 144.841 215.493 144.841 215.493 144.841C215.621 144.841 215.736 144.783 215.821 144.684C215.835 144.669 216.835 143.47 217.363 142.999C217.976 142.457 218.776 141.172 218.776 140.487C218.804 140.016 218.248 139.617 216.763 138.703Z" fill="#1A1A1A"/>
<path d="M232.491 114.896C232.334 114.682 228.623 109.758 223.856 109.016C220.288 108.473 217.034 108.802 215.593 109.886C215.15 110.215 214.893 110.6 214.836 111.028C214.622 112.498 215.578 113.226 216.149 113.654C216.292 113.754 216.492 113.911 216.549 113.997C216.478 114.154 216.321 114.368 216.164 114.582C215.564 115.41 214.651 116.652 215.35 118.122C216.121 119.734 218.29 120.42 221.287 120.006C222.286 119.863 222.415 120.163 222.658 120.676C222.9 121.219 223.228 121.932 224.527 121.932C224.599 121.932 224.67 121.932 224.756 121.932C227.296 121.79 231.963 116.066 232.491 115.424C232.606 115.281 232.62 115.053 232.491 114.896Z" fill="#1A1A1A"/>
<path d="M236.418 181.663H209.328C209.086 181.663 208.9 181.478 208.9 181.235C208.9 180.992 209.086 180.807 209.328 180.807H236.418C236.66 180.807 236.846 180.992 236.846 181.235C236.846 181.478 236.646 181.663 236.418 181.663Z" fill="#1A1A1A"/>
<path d="M268.787 204.928L258.953 184.703V184.689C257.683 182.291 255.214 180.807 252.502 180.807H250.432C250.19 180.807 250.004 180.992 250.004 181.235C250.004 181.478 250.19 181.663 250.432 181.663H252.502C254.9 181.663 257.083 182.976 258.197 185.089L268.016 205.299C268.245 205.77 268.216 206.326 267.945 206.783C267.674 207.24 267.174 207.497 266.646 207.511L170.777 207.782C170.22 207.782 169.72 207.497 169.435 206.997C169.164 206.512 169.164 205.927 169.449 205.441L181.909 184.775C183.065 182.848 185.192 181.663 187.433 181.663H195.896C196.139 181.663 196.325 181.478 196.325 181.235C196.325 180.992 196.139 180.807 195.896 180.807H187.433C184.892 180.807 182.494 182.163 181.181 184.332L168.721 204.999C168.393 205.541 168.293 206.155 168.436 206.754C168.436 206.769 168.436 206.769 168.436 206.783V221.184C168.436 222.611 169.592 223.767 171.019 223.767H266.418C267.845 223.767 269.001 222.611 269.001 221.184V206.355C269.001 206.34 269.001 206.326 269.001 206.312C269.058 205.855 269.001 205.37 268.787 204.928ZM170.762 208.638C170.762 208.638 170.777 208.638 170.762 208.638L266.632 208.367C267.188 208.367 267.716 208.167 268.145 207.825V213.106C266.96 215.347 262.507 219.029 246.065 218.201C223.371 217.059 220.788 211.764 208.528 212.92C196.453 214.062 197.666 220.699 169.278 220.256V208.125C169.692 208.453 170.206 208.638 170.762 208.638Z" fill="#1A1A1A"/>
<path d="M231.321 195.607C231.25 194.465 230.422 193.424 230.023 193.081C229.68 192.796 229.123 192.781 228.481 192.781C228.024 192.781 227.496 192.767 227.239 192.639C227.04 192.539 226.754 192.21 226.469 191.896C225.883 191.24 225.141 190.412 224.199 190.255C223.086 190.07 219.175 189.713 218.376 190.027C218.076 190.141 217.634 190.441 217.077 190.812C216.421 191.254 215.436 191.925 215.065 191.953C214.936 191.968 214.794 191.968 214.637 191.982C213.423 192.068 212.367 192.182 211.925 192.767C211.654 193.124 211.026 194.066 210.954 195.108C210.926 195.607 210.897 196.164 210.926 196.678C210.897 197.32 210.997 197.934 211.325 198.219C211.468 198.362 211.754 198.619 215.365 198.833C217.42 198.961 219.675 199.018 220.988 199.018C221.445 199.018 222.03 199.033 222.715 199.033C223.771 199.047 224.713 199.061 225.555 199.061C228.11 199.061 229.709 198.976 230.436 198.69C230.565 198.647 230.665 198.59 230.75 198.519C231.221 198.134 231.293 197.434 231.307 197.049C231.307 197.049 231.307 197.049 231.307 197.035C231.364 196.449 231.336 195.864 231.321 195.607ZM222.715 198.176C222.03 198.162 221.445 198.162 220.988 198.162C219.133 198.162 216.792 198.076 214.936 197.948C215.065 197.919 215.208 197.891 215.336 197.862C217.306 197.477 219.546 197.049 220.974 197.049C221.987 197.049 223.842 197.506 225.627 197.934C225.998 198.019 226.354 198.105 226.683 198.191C225.241 198.205 223.686 198.191 222.715 198.176Z" fill="#1A1A1A"/>
<path d="M228.724 195.593C227.982 195.579 227.297 195.579 226.854 195.365C226.483 195.179 226.155 194.751 225.784 194.251C225.298 193.609 224.685 192.81 224.071 192.71C222.786 192.496 219.204 192.581 218.676 192.781C218.476 192.867 218.005 193.181 217.548 193.481C216.478 194.208 215.679 194.722 215.136 194.765C214.993 194.779 214.808 194.794 214.58 194.808C214.023 194.836 212.353 194.936 212.11 195.25C211.768 195.707 211.654 197.291 211.868 197.591C212.524 197.891 217.577 198.176 220.974 198.176C221.43 198.176 222.03 198.191 222.701 198.191C224.77 198.219 229.623 198.29 230.194 197.877C230.308 197.777 230.422 197.491 230.436 197.063C230.436 196.506 230.251 195.95 229.98 195.721C229.837 195.607 229.166 195.607 228.724 195.593Z" fill="white"/>
<path d="M219.306 198.932C219.291 199.289 219.177 199.632 219.02 199.931C218.849 200.231 218.62 200.488 218.364 200.674C217.836 201.059 217.236 201.259 216.622 201.259C216.009 201.273 215.395 201.045 214.924 200.631C214.439 200.217 214.11 199.603 214.053 198.932C214.025 198.59 214.053 198.247 214.167 197.905C214.282 197.576 214.453 197.248 214.681 196.977C215.152 196.434 215.88 196.078 216.622 196.063C216.993 196.049 217.379 196.12 217.721 196.277C218.064 196.42 218.378 196.649 218.62 196.92C219.12 197.491 219.363 198.233 219.306 198.932ZM218.121 198.932C218.078 198.533 217.864 198.19 217.579 197.976C217.293 197.748 216.965 197.619 216.622 197.605C216.265 197.591 215.909 197.69 215.609 197.919C215.309 198.147 215.081 198.504 215.01 198.932C214.981 199.146 214.995 199.36 215.052 199.589C215.109 199.803 215.224 200.017 215.366 200.188C215.666 200.545 216.137 200.773 216.622 200.788C216.865 200.788 217.108 200.731 217.322 200.616C217.536 200.502 217.707 200.331 217.835 200.145C218.107 199.774 218.164 199.332 218.121 198.932Z" fill="#1A1A1A"/>
<path d="M217.322 200.63C217.536 200.516 217.707 200.345 217.835 200.159C218.092 199.774 218.164 199.331 218.121 198.946C218.078 198.546 217.864 198.204 217.579 197.99C217.293 197.761 216.965 197.633 216.622 197.619C216.266 197.604 215.909 197.704 215.609 197.933C215.309 198.161 215.081 198.518 215.01 198.946C214.981 199.16 214.995 199.374 215.052 199.603C215.109 199.817 215.224 200.031 215.366 200.202C215.666 200.559 216.137 200.787 216.622 200.801C216.865 200.801 217.108 200.744 217.322 200.63Z" fill="white"/>
<path d="M227.452 198.932C227.438 199.289 227.324 199.632 227.167 199.931C226.995 200.231 226.767 200.488 226.51 200.674C225.982 201.059 225.383 201.259 224.769 201.259C224.155 201.273 223.541 201.045 223.07 200.631C222.585 200.217 222.257 199.603 222.2 198.932C222.171 198.59 222.2 198.247 222.314 197.905C222.428 197.576 222.599 197.248 222.828 196.977C223.299 196.434 224.027 196.078 224.769 196.063C225.14 196.049 225.525 196.12 225.868 196.277C226.21 196.42 226.524 196.649 226.767 196.92C227.252 197.491 227.495 198.233 227.452 198.932ZM226.253 198.932C226.21 198.533 225.996 198.19 225.711 197.976C225.425 197.748 225.097 197.619 224.755 197.605C224.398 197.591 224.041 197.69 223.741 197.919C223.442 198.147 223.213 198.504 223.142 198.932C223.113 199.146 223.128 199.36 223.185 199.589C223.242 199.803 223.356 200.017 223.499 200.188C223.798 200.545 224.269 200.773 224.755 200.788C224.997 200.788 225.24 200.731 225.454 200.616C225.668 200.502 225.839 200.331 225.968 200.145C226.239 199.774 226.296 199.332 226.253 198.932Z" fill="#1A1A1A"/>
<path d="M227.452 198.932C227.438 199.289 227.324 199.632 227.167 199.931C226.995 200.231 226.767 200.488 226.51 200.674C225.982 201.059 225.383 201.259 224.769 201.259C224.155 201.273 223.541 201.045 223.07 200.631C222.585 200.217 222.257 199.603 222.2 198.932C222.171 198.59 222.2 198.247 222.314 197.905C222.428 197.576 222.599 197.248 222.828 196.977C223.299 196.434 224.027 196.078 224.769 196.063C225.14 196.049 225.525 196.12 225.868 196.277C226.21 196.42 226.524 196.649 226.767 196.92C227.252 197.491 227.495 198.233 227.452 198.932ZM226.253 198.932C226.21 198.533 225.996 198.19 225.711 197.976C225.425 197.748 225.097 197.619 224.755 197.605C224.398 197.591 224.041 197.69 223.741 197.919C223.442 198.147 223.213 198.504 223.142 198.932C223.113 199.146 223.128 199.36 223.185 199.589C223.242 199.803 223.356 200.017 223.499 200.188C223.798 200.545 224.269 200.773 224.755 200.788C224.997 200.788 225.24 200.731 225.454 200.616C225.668 200.502 225.839 200.331 225.968 200.145C226.239 199.774 226.296 199.332 226.253 198.932Z" fill="#1A1A1A"/>
<path d="M226.254 198.933C226.211 198.533 225.997 198.19 225.712 197.976C225.426 197.748 225.098 197.62 224.756 197.605C224.399 197.591 224.042 197.691 223.742 197.919C223.443 198.148 223.214 198.504 223.143 198.933C223.114 199.147 223.129 199.361 223.186 199.589C223.243 199.803 223.357 200.017 223.5 200.189C223.799 200.545 224.27 200.774 224.756 200.788C224.998 200.788 225.241 200.731 225.455 200.617C225.669 200.503 225.84 200.331 225.969 200.146C226.24 199.775 226.297 199.332 226.254 198.933Z" fill="white"/>
<path d="M231.757 143.48C235.009 142.9 237.414 141.135 237.129 139.536C236.844 137.937 233.977 137.111 230.725 137.691C227.474 138.27 225.069 140.036 225.354 141.635C225.639 143.234 228.506 144.06 231.757 143.48Z" fill="#F95179"/>
<path d="M241.467 164.193C238.67 162.152 236.501 160.996 234.916 160.14C232.961 159.084 231.976 158.57 231.705 157.514C231.434 156.486 232.133 155.93 233.746 154.773C234.745 154.06 235.973 153.175 237.243 151.848C239.983 148.979 241.582 143.612 242.053 141.814C242.88 142.299 244.55 143.056 246.377 142.613C247.962 142.228 249.888 140.501 250.259 138.517C250.488 137.247 250.003 136.133 248.875 135.348C246.706 133.85 244.593 134.62 243.423 135.306C243.822 132.965 244.322 127.256 241.082 122.132C239.17 119.106 236.386 116.751 232.833 115.11C229.935 113.782 226.61 113.012 223.47 112.94C220.915 112.883 218.046 113.368 215.605 114.282C212.437 115.467 209.939 117.336 208.383 119.72C205.5 124.116 205.272 128.526 205.586 131.466C205.829 133.75 205.714 136.062 205.258 138.346C204.73 140.915 204.544 142.998 204.701 144.554C205.301 150.563 209.697 153.717 212.251 155.073C214.521 156.272 216.148 156.572 217.504 156.6C217.39 157.285 216.904 158.912 214.949 159.726C214.549 159.897 213.993 160.083 213.35 160.311C209.497 161.653 202.332 164.165 198.849 170.373C194.468 178.209 194.339 186.031 198.464 194.28C201.861 201.074 203.202 201.887 203.916 201.902C204.23 201.902 204.487 201.759 204.644 201.474C204.687 201.388 204.758 201.274 204.673 200.888C205.529 201.488 206.499 202.016 207.156 202.016C207.299 202.016 207.427 201.987 207.541 201.93C207.77 201.816 207.898 201.631 207.927 201.388C207.941 201.317 207.927 201.245 207.912 201.174C209.083 201.773 209.354 201.573 209.482 201.459C209.625 201.359 209.697 201.188 209.697 201.017C209.697 200.774 209.54 200.46 209.268 200.118C209.425 200.132 209.554 200.132 209.654 200.103C209.811 200.046 209.925 199.946 209.982 199.804C210.068 199.604 210.239 199.218 208.669 197.763C209.011 197.606 209.383 197.377 209.54 197.035C209.654 196.792 209.654 196.507 209.525 196.25C209.226 195.65 208.626 195.693 208.212 195.722C207.727 195.75 207.527 195.736 207.384 195.422C206.885 194.409 206.128 190.412 207.299 186.502C208.041 183.99 209.097 182.377 210.125 180.821C210.482 180.279 210.853 179.708 211.195 179.123C211.309 178.923 211.252 178.652 211.038 178.537C210.838 178.423 210.567 178.48 210.453 178.694C210.125 179.265 209.768 179.793 209.411 180.35C208.355 181.963 207.27 183.633 206.485 186.259C205.814 188.514 205.786 190.683 205.871 192.111C205.9 192.453 205.929 192.781 205.957 193.095C205.5 193.11 204.715 193.181 203.816 193.395C202.203 193.766 200.905 194.466 199.991 195.408C199.748 194.951 199.492 194.437 199.22 193.895C197.122 189.699 196.166 185.717 196.309 181.749C196.437 178.081 197.522 174.498 199.592 170.802C201.176 167.976 203.588 165.949 206.086 164.45C206 164.793 205.929 165.192 205.9 165.649C205.8 167.262 206.357 168.589 207.527 169.503C208.583 170.331 209.739 170.302 210.853 170.274C211.866 170.245 212.808 170.231 213.779 170.773L214.164 170.987C216.219 172.158 218.032 173.185 220.387 173.185C220.772 173.185 221.157 173.157 221.571 173.099C222.628 172.957 223.627 172.514 224.583 172.086C225.81 171.544 226.952 171.044 227.98 171.287C228.522 171.415 229.079 171.601 229.621 171.786C231.048 172.257 232.519 172.757 233.889 172.229C234.631 171.958 235.088 171.216 235.516 170.516C236.044 169.646 236.543 168.818 237.542 168.746C239.755 168.561 241.196 168.318 242.153 165.792C247.462 170.188 250.231 176.454 249.76 183.233C249.432 188.072 246.791 192.753 243.58 196.15C241.781 193.609 238.998 192.953 237.785 192.781C238.399 191.097 238.813 188.814 238.37 186.002C237.471 180.379 235.416 178.537 235.33 178.466C235.159 178.309 234.888 178.338 234.731 178.509C234.574 178.68 234.588 178.951 234.774 179.108C234.788 179.123 236.686 180.864 237.528 186.13C237.999 189.056 237.457 191.383 236.8 192.967C236.8 192.967 236.8 192.967 236.8 192.981C236.301 194.194 235.73 194.979 235.516 195.251C235.43 195.251 235.302 195.236 235.202 195.236C233.575 195.122 232.818 195.165 232.604 195.693C232.333 196.35 233.175 196.721 233.86 197.02C233.917 197.049 233.989 197.078 234.046 197.106C233.903 197.163 233.732 197.235 233.603 197.292C232.618 197.691 231.833 198.005 231.948 198.605C232.062 199.233 232.904 199.19 233.974 199.119C234.089 199.119 234.231 199.104 234.36 199.104C234.26 199.204 234.16 199.304 234.06 199.39C233.275 200.146 232.718 200.689 233.004 201.202C233.075 201.331 233.204 201.431 233.361 201.459C233.475 201.488 233.632 201.474 233.832 201.416C233.575 201.788 233.575 201.93 233.589 202.002C233.589 202.144 233.646 202.273 233.76 202.373C234.146 202.701 234.588 202.373 235.801 201.474C236.115 201.245 236.543 200.931 236.886 200.689C236.829 200.788 236.786 200.888 236.729 200.96C236.315 201.702 235.844 202.558 236.472 202.972C236.543 203.015 236.643 203.086 236.8 203.086C237.2 203.086 237.999 202.672 239.641 200.517C244.736 197.42 250.117 190.526 250.616 183.304C251.087 175.726 247.776 168.775 241.467 164.193ZM206.071 193.952C206.228 194.837 206.442 195.465 206.599 195.807C207.028 196.664 207.798 196.607 208.255 196.578C208.655 196.549 208.712 196.578 208.74 196.635C208.755 196.649 208.755 196.664 208.755 196.664C208.726 196.792 208.241 197.049 207.727 197.163C207.57 197.192 207.441 197.32 207.399 197.477C207.356 197.634 207.413 197.805 207.527 197.905C207.984 198.305 208.426 198.733 208.74 199.061C208.412 198.919 208.012 198.719 207.641 198.519C207.456 198.405 207.213 198.462 207.085 198.648C206.956 198.833 206.985 199.076 207.156 199.218C207.656 199.661 208.155 200.146 208.469 200.517C207.841 200.203 206.871 199.59 206.043 199.004C205.857 198.876 205.586 198.904 205.458 199.09C205.315 199.276 205.343 199.532 205.529 199.675C206.171 200.189 206.785 200.831 206.985 201.16C206.471 201.06 205.186 200.275 204.016 199.333C203.859 199.204 203.645 199.204 203.488 199.333C203.331 199.461 203.274 199.661 203.359 199.846C203.531 200.232 203.716 200.717 203.802 201.003C203.488 200.86 202.517 200.089 200.405 196.207C202.061 194.237 205.144 193.98 206.071 193.952ZM205.529 144.469C205.386 143.027 205.572 140.972 206.071 138.517C206.557 136.148 206.671 133.75 206.414 131.381C206.114 128.583 206.328 124.373 209.083 120.205C212.523 114.981 219.73 113.725 223.441 113.811C226.467 113.882 229.678 114.624 232.476 115.909C235.887 117.479 238.542 119.734 240.368 122.603C244.279 128.783 242.409 136.105 242.381 136.176C242.338 136.362 242.409 136.562 242.581 136.647C242.752 136.733 242.952 136.719 243.095 136.59C243.123 136.562 245.735 134.207 248.418 136.062C249.275 136.647 249.617 137.432 249.446 138.374C249.16 139.944 247.491 141.486 246.206 141.785C244.079 142.299 242.095 140.8 242.067 140.786C241.953 140.701 241.796 140.672 241.667 140.729C241.525 140.772 241.425 140.9 241.396 141.029C241.382 141.1 239.74 148.022 236.658 151.248C235.444 152.518 234.246 153.375 233.275 154.074C231.662 155.244 230.492 156.072 230.906 157.714C231.148 158.67 231.791 159.284 232.818 159.912C231.791 160.54 229.007 161.91 224.412 161.767C220.258 161.639 217.803 160.611 216.704 160.011C220.487 158.713 221.957 157.913 222.114 157.086C222.214 156.486 222.014 156.129 221.814 155.944C221.3 155.444 220.415 155.558 220.215 155.587C219.873 155.601 219.53 155.63 219.174 155.658C217.489 155.801 215.762 155.944 212.651 154.302C209.682 152.761 206.057 149.792 205.529 144.469ZM237.428 167.876C235.987 167.99 235.302 169.146 234.745 170.059C234.374 170.673 234.031 171.244 233.546 171.415C232.461 171.844 231.191 171.415 229.864 170.959C229.307 170.773 228.736 170.573 228.151 170.445C226.852 170.131 225.568 170.702 224.212 171.301C223.298 171.701 222.371 172.115 221.429 172.243C218.76 172.614 216.919 171.558 214.564 170.231L214.178 170.017C213.008 169.36 211.837 169.389 210.81 169.403C209.754 169.431 208.854 169.446 208.041 168.818C207.099 168.076 206.671 167.034 206.742 165.706C206.799 164.693 207.156 163.879 207.17 163.851C207.185 163.837 207.185 163.822 207.185 163.808C209.568 162.538 211.923 161.71 213.622 161.11C214.278 160.882 214.849 160.682 215.263 160.511C215.334 160.482 215.391 160.454 215.463 160.425C215.506 160.425 215.563 160.411 215.605 160.397C215.605 160.397 215.62 160.397 215.62 160.383C216.305 160.868 218.974 162.466 224.355 162.623C224.597 162.638 224.826 162.638 225.054 162.638C230.121 162.638 232.932 160.882 233.618 160.397C233.903 160.554 234.188 160.711 234.517 160.882C236.087 161.724 238.213 162.866 240.968 164.878C241.111 164.978 241.253 165.093 241.396 165.207C240.64 167.405 239.698 167.69 237.428 167.876ZM239.07 199.789C239.027 199.818 238.984 199.861 238.955 199.904C238.313 200.76 237.571 201.573 237.114 201.959C237.214 201.745 237.343 201.516 237.428 201.345C237.828 200.631 238.142 200.061 237.771 199.661C237.443 199.304 236.957 199.518 236.087 200.132C236.187 200.032 236.287 199.932 236.386 199.846C236.543 199.689 236.572 199.433 236.415 199.261C236.272 199.09 236.015 199.061 235.83 199.19C235.402 199.504 234.916 199.832 234.488 200.089C234.531 200.046 234.56 200.018 234.588 199.989C235.287 199.318 235.673 198.947 235.43 198.533C235.23 198.177 234.774 198.205 233.846 198.248C233.703 198.262 233.518 198.262 233.346 198.276C233.532 198.205 233.703 198.134 233.846 198.077C234.731 197.72 235.216 197.52 235.173 197.063C235.13 196.678 234.731 196.507 234.131 196.235C234.017 196.193 233.86 196.121 233.717 196.05C234.174 196.036 234.816 196.078 235.073 196.093C235.644 196.136 235.758 196.136 235.915 196.021C235.93 196.007 236.7 195.165 237.4 193.624C238.313 193.723 241.211 194.252 242.923 196.792C241.667 197.977 240.354 199.004 239.07 199.789Z" fill="#1A1A1A"/>
<path d="M30.9789 168.39C30.9218 168.576 30.7648 168.704 30.5793 168.704C28.8808 177.211 27.8675 184.861 27.6534 186.531C40.0706 194.352 56.3414 202.944 74.011 211.008C87.8127 217.303 101.286 222.74 113.218 226.851C113.461 225.709 114.217 222.198 114.374 221.87C114.545 221.527 116.458 208.354 116.872 205.542C116.815 205.513 116.772 205.485 116.715 205.456C116.515 205.342 116.429 205.085 116.544 204.871C116.629 204.714 116.8 204.628 116.972 204.657L118.085 190.185L107.623 188.001C107.623 188.001 112.661 183.719 114.945 181.293C117.229 178.866 123.794 169.632 123.794 169.632C123.794 169.632 127.319 163.452 129.603 156.886C131.887 150.321 132.743 141.001 132.743 141.001L128.847 133.579L123.994 123.16C123.994 123.16 112.961 123.688 97.5466 117.123C82.1321 110.557 71.9985 96.4274 71.9985 96.4274C71.9985 96.4274 65.3903 103.607 59.2959 110.457C53.2014 117.308 45.4086 129.197 45.4086 129.197C45.4086 129.197 36.6594 144.712 33.1341 157.643C32.2349 160.954 31.4356 164.465 30.7363 167.876C30.9218 167.962 31.036 168.176 30.9789 168.39Z" fill="#F95179"/>
<path d="M131.925 62.1055C132.159 60.7621 130.064 59.2741 127.246 58.782C124.427 58.2898 121.952 58.9799 121.717 60.3232C121.483 61.6666 123.578 63.1546 126.396 63.6467C129.215 64.1389 131.69 63.4488 131.925 62.1055Z" fill="white"/>
<path d="M130.986 59.7616C130.044 59.0908 128.745 58.5913 127.318 58.3486C124.221 57.8063 121.566 58.6341 121.295 60.2469C121.152 61.0747 121.637 61.9311 122.665 62.659C123.607 63.3298 124.906 63.8293 126.333 64.072C126.975 64.1861 127.589 64.2432 128.174 64.2432C130.415 64.2432 132.142 63.4582 132.356 62.188C132.499 61.3459 132.013 60.5038 130.986 59.7616ZM123.164 61.9453C122.436 61.4315 122.065 60.8606 122.137 60.3896C122.265 59.6474 123.578 59.0337 125.462 59.0337C125.99 59.0337 126.561 59.0765 127.175 59.1907C128.474 59.4191 129.658 59.8758 130.486 60.461C130.486 60.461 130.5 60.461 130.5 60.4752C128.645 60.5466 127.246 61.1746 127.061 62.1737C126.989 62.5591 127.118 62.9587 127.403 63.344C127.104 63.3155 126.79 63.287 126.461 63.2299C125.163 63.0015 123.992 62.5448 123.164 61.9453Z" fill="#1A1A1A"/>
<path d="M119.996 50.1271C119.996 50.1271 124.035 55.7934 125.562 58.7335C127.089 61.688 127.946 64.2571 127.946 64.2571C127.946 64.2571 129.944 65.3989 131.186 65.4988C132.427 65.5987 133.426 65.6843 133.326 66.6406C133.226 67.5969 132.085 68.5389 131.471 68.7815C130.857 69.0241 128.331 69.4951 128.331 69.4951C128.331 69.4951 127.089 76.6315 123.293 79.2434C119.482 81.8553 114.915 81.7125 114.915 81.7125L109.819 81.4271L106.051 99.9387C106.051 99.9387 109.477 101.794 111.332 103.507C113.188 105.22 118.083 110.786 119.996 114.497C121.894 118.208 123.992 123.16 123.992 123.16C123.992 123.16 120.524 122.975 120.381 122.975C120.238 122.975 114.387 122.504 114.201 122.447C114.015 122.404 103.397 119.492 103.354 119.35C103.311 119.207 93.1774 114.782 93.1774 114.782L84.3712 108.973C84.3712 108.973 76.8495 102.651 75.2795 100.652C73.7095 98.6542 71.9968 96.4134 71.9968 96.4134C71.9968 96.4134 77.9485 89.748 80.5175 86.237C83.0866 82.7116 89.5521 73.1489 89.5521 73.1489C89.5521 73.1489 94.5904 66.6263 94.5476 64.6852C94.5048 62.7299 92.7349 62.0163 92.4495 61.1171C92.164 60.2179 92.1212 54.9798 95.9178 52.9817C99.7286 50.9835 101.441 53.838 101.441 53.838C101.441 53.838 102.826 57.1636 104.11 57.2206C105.395 57.2777 111.817 54.7943 111.817 54.7943L119.996 50.1271Z" fill="white"/>
<path d="M86.2128 94.272C86.2128 94.272 85.9274 96.0276 89.3528 96.5985C92.7782 97.1694 103.811 100.067 108.378 104.263C118.355 113.412 120.981 122.96 120.981 122.96L123.978 123.146C123.978 123.146 120.167 113.483 115.986 108.545C111.804 103.592 106.095 98.7394 100.857 97.412C95.6328 96.0847 86.2128 94.272 86.2128 94.272Z" fill="white"/>
<path d="M85.2717 79.7139C85.2717 79.7139 87.3269 82.1403 84.3154 86.5648C79.0773 94.272 74.2246 99.3816 74.2246 99.3816L72.1551 96.5985L80.5046 86.2223L85.2717 79.7139Z" fill="white"/>
<path d="M42.5389 145.953C52.7438 121.005 67.516 106.803 74.2242 99.3816C71.8977 96.7983 71.9834 96.4129 71.9834 96.4129C71.9834 96.4129 65.3751 103.592 59.2807 110.443C53.1863 117.294 45.3934 129.183 45.3934 129.183C45.3934 129.183 36.6443 144.697 33.1189 157.628C29.5936 170.574 27.5954 186.844 27.5954 186.844L32.2626 189.799C34.4035 175.241 36.1162 161.653 42.5389 145.953Z" fill="white"/>
<path d="M106.788 140.884C107.703 140.519 107.189 137.077 105.641 133.197C104.092 129.316 102.095 126.467 101.18 126.832C100.264 127.197 100.778 130.639 102.327 134.519C103.875 138.4 105.873 141.249 106.788 140.884Z" fill="white"/>
<path d="M114.219 178.938C115.201 178.855 115.787 176.298 115.528 173.227C115.269 170.156 114.263 167.733 113.281 167.816C112.299 167.899 111.713 170.456 111.972 173.527C112.231 176.598 113.238 179.021 114.219 178.938Z" fill="white"/>
<path d="M98.1024 184.489C98.5876 184.574 99.0015 184.788 99.4012 185.088C99.4154 185.088 99.4154 185.088 99.4297 185.102C99.0586 184.803 99.3583 185.017 99.4868 185.117C99.6438 185.174 99.8008 185.231 99.9435 185.288C100.357 185.416 100.771 185.531 101.185 185.659C101.742 184.317 101.999 181.977 101.77 179.351C101.428 175.326 100.115 172.157 98.8303 172.257C97.5457 172.371 96.775 175.711 97.1175 179.736C97.2745 181.577 97.6314 183.233 98.1024 184.489Z" fill="white"/>
<path d="M73.5372 145.252C74.9609 143.275 75.5913 141.296 74.9454 140.831C74.2994 140.365 72.6216 141.59 71.1979 143.567C69.7743 145.543 69.1438 147.522 69.7898 147.988C70.4358 148.453 72.1136 147.228 73.5372 145.252Z" fill="white"/>
<path d="M57.1031 131.73C57.7715 129.659 57.6991 127.783 56.9415 127.538C56.1839 127.294 55.0279 128.774 54.3596 130.844C53.6912 132.914 53.7636 134.791 54.5212 135.035C55.2788 135.28 56.4348 133.8 57.1031 131.73Z" fill="white"/>
<path d="M88.0015 166.984C88.6699 164.913 88.5975 163.037 87.8399 162.792C87.0823 162.548 85.9263 164.028 85.258 166.098C84.5897 168.168 84.662 170.045 85.4196 170.289C86.1772 170.534 87.3332 169.054 88.0015 166.984Z" fill="white"/>
<path d="M44.7762 161.096C47.3491 158.311 48.8622 155.524 48.1559 154.872C47.4496 154.219 44.7912 155.948 42.2183 158.733C39.6454 161.518 38.1322 164.304 38.8385 164.957C39.5449 165.609 42.2033 163.881 44.7762 161.096Z" fill="white"/>
<path d="M66.869 165.685C69.0856 164.082 70.3809 162.089 69.762 161.233C69.1432 160.377 66.8445 160.983 64.6279 162.585C62.4112 164.188 61.116 166.181 61.7348 167.037C62.3537 167.893 64.6523 167.288 66.869 165.685Z" fill="white"/>
<path d="M41.1007 190.477C41.9526 190.277 42.1371 187.956 41.5129 185.293C40.8888 182.63 39.6922 180.633 38.8403 180.833C37.9884 181.033 37.8039 183.353 38.4281 186.016C39.0522 188.679 40.2488 190.676 41.1007 190.477Z" fill="white"/>
<path d="M56.3445 192.046C57.3671 191.781 57.6408 189.42 56.9559 186.772C56.271 184.124 54.8868 182.192 53.8642 182.456C52.8417 182.721 52.5679 185.082 53.2529 187.73C53.9378 190.378 55.322 192.31 56.3445 192.046Z" fill="white"/>
<path d="M64.1441 201.28C66.7032 200.315 68.5273 198.868 68.2184 198.049C67.9094 197.231 65.5844 197.35 63.0253 198.316C60.4662 199.282 58.6421 200.728 58.951 201.547C59.26 202.365 61.585 202.246 64.1441 201.28Z" fill="white"/>
<path d="M52.506 171.793C54.821 169.493 56.1978 167.125 55.5812 166.505C54.9645 165.884 52.5879 167.245 50.2728 169.545C47.9578 171.845 46.581 174.213 47.1977 174.834C47.8143 175.455 50.191 174.093 52.506 171.793Z" fill="white"/>
<path d="M75.1969 198.356C76.1662 197.936 75.6449 194.576 74.0324 190.851C72.42 187.125 70.327 184.445 69.3577 184.865C68.3884 185.284 68.9097 188.645 70.5222 192.37C72.1346 196.095 74.2275 198.775 75.1969 198.356Z" fill="white"/>
<path d="M88.3997 203.499C90.2605 200.268 91.0271 197.222 90.1118 196.695C89.1966 196.167 86.9461 198.359 85.0852 201.59C83.2244 204.82 82.4578 207.867 83.3731 208.394C84.2883 208.921 86.5388 206.73 88.3997 203.499Z" fill="white"/>
<path d="M114.14 209.744C114.929 209.042 113.56 206.215 111.082 203.429C108.604 200.643 105.956 198.954 105.166 199.656C104.377 200.358 105.746 203.185 108.224 205.971C110.702 208.757 113.351 210.446 114.14 209.744Z" fill="white"/>
<path d="M101.11 219.89C102.037 219.383 101.488 216.595 99.8851 213.663C98.2818 210.731 96.2308 208.764 95.3041 209.271C94.3773 209.777 94.9257 212.565 96.529 215.498C98.1322 218.43 100.183 220.397 101.11 219.89Z" fill="white"/>
<path d="M99.2123 200.406C99.4138 199.265 99.0423 198.245 98.3825 198.129C97.7226 198.012 97.0244 198.843 96.8229 199.984C96.6214 201.125 96.9929 202.145 97.6528 202.261C98.3126 202.378 99.0108 201.547 99.2123 200.406Z" fill="white"/>
<path d="M108.863 214.331C109.953 212.962 110.412 211.514 109.888 211.096C109.363 210.679 108.055 211.45 106.965 212.819C105.875 214.188 105.416 215.636 105.94 216.054C106.464 216.471 107.773 215.7 108.863 214.331Z" fill="white"/>
<path d="M68.7638 131.335C69.7202 130.562 70.1743 129.538 69.7779 129.047C69.3816 128.557 68.285 128.785 67.3285 129.558C66.3721 130.331 65.918 131.355 66.3143 131.846C66.7107 132.336 67.8073 132.107 68.7638 131.335Z" fill="white"/>
<path d="M70.047 110.569C71.0034 109.796 71.4575 108.772 71.0611 108.281C70.6648 107.791 69.5682 108.02 68.6117 108.793C67.6553 109.566 67.2012 110.59 67.5975 111.08C67.9939 111.571 69.0905 111.342 70.047 110.569Z" fill="white"/>
<path d="M52.3181 147.32C53.2161 146.479 53.5948 145.425 53.164 144.965C52.7332 144.504 51.6559 144.812 50.7579 145.652C49.8599 146.492 49.4811 147.546 49.9119 148.007C50.3428 148.467 51.42 148.16 52.3181 147.32Z" fill="white"/>
<path d="M64.8999 177.922C65.9706 176.92 66.4239 175.665 65.9122 175.118C65.4006 174.571 64.1179 174.94 63.0472 175.941C61.9764 176.943 61.5232 178.198 62.0348 178.745C62.5464 179.292 63.8291 178.924 64.8999 177.922Z" fill="white"/>
<path d="M63.2681 155.199C64.2087 154.905 63.9626 151.435 62.7185 147.446C61.4743 143.458 59.7033 140.463 58.7627 140.757C57.8221 141.05 58.0682 144.521 59.3123 148.509C60.5564 152.497 62.3275 155.492 63.2681 155.199Z" fill="white"/>
<path d="M83.7572 132.944C87.1165 131.136 89.4611 128.967 88.994 128.099C88.527 127.231 85.4251 127.994 82.0659 129.803C78.7066 131.611 76.362 133.78 76.8291 134.648C77.2961 135.515 80.398 134.753 83.7572 132.944Z" fill="white"/>
<path d="M71.9139 120.328C75.0372 118.646 77.1905 116.58 76.7235 115.712C76.2564 114.845 73.3459 115.504 70.2226 117.186C67.0993 118.867 64.946 120.933 65.4131 121.801C65.8801 122.669 68.7906 122.009 71.9139 120.328Z" fill="white"/>
<path d="M85.7583 153.634C86.9202 150.45 86.8537 147.5 85.6096 147.046C84.3656 146.592 82.4152 148.806 81.2533 151.99C80.0914 155.174 80.1579 158.123 81.4019 158.577C82.646 159.031 84.5964 156.818 85.7583 153.634Z" fill="white"/>
<path d="M108.29 159.175C108.586 157.884 106.147 156.224 102.843 155.467C99.5389 154.711 96.6208 155.144 96.3253 156.435C96.0297 157.726 98.4686 159.386 101.773 160.142C105.077 160.899 107.995 160.465 108.29 159.175Z" fill="white"/>
<path d="M131.147 141.816C131.731 140.627 129.736 138.453 126.693 136.96C123.65 135.468 120.711 135.221 120.127 136.41C119.544 137.599 121.538 139.773 124.581 141.266C127.624 142.759 130.564 143.005 131.147 141.816Z" fill="white"/>
<path d="M90.8351 113.654C89.8075 113.084 88.894 112.341 87.9092 111.713C87.7808 111.628 87.6666 111.542 87.5524 111.442C87.1528 112.07 86.7674 112.798 86.4249 113.583C85.0832 116.709 84.9976 119.649 86.2108 120.177C87.4239 120.705 89.4935 118.593 90.8351 115.467C91.0492 114.953 91.2347 114.454 91.3917 113.954C91.2062 113.854 91.0206 113.754 90.8351 113.654Z" fill="white"/>
<path d="M117.849 153.967C118.996 153.87 119.693 151.053 119.405 147.675C119.117 144.298 117.955 141.64 116.808 141.737C115.661 141.835 114.965 144.652 115.252 148.029C115.54 151.406 116.703 154.065 117.849 153.967Z" fill="white"/>
<path d="M119.226 122.988C118.055 122.888 116.657 122.702 115.458 122.203C114.73 124.458 114.715 126.299 115.529 126.67C116.457 127.098 118.127 125.5 119.483 123.002C119.411 123.002 119.311 123.002 119.226 122.988Z" fill="white"/>
<path d="M96.9988 146.304C97.7682 146.1 97.8272 143.809 97.1306 141.189C96.4339 138.568 95.2455 136.61 94.4761 136.814C93.7067 137.019 93.6477 139.309 94.3444 141.93C95.041 144.55 96.2294 146.509 96.9988 146.304Z" fill="white"/>
<path d="M199.924 111.114L204.391 115.581C204.391 115.581 203.778 119.72 200.866 122.532C197.969 125.344 194.971 126.485 194.258 126.428C193.544 126.371 191.26 124.616 191.118 124.473C190.975 124.33 188.506 122.575 188.506 122.575C188.506 122.575 187.121 121.718 186.408 121.961C185.694 122.204 193.787 114.925 193.972 114.825C194.172 114.725 199.924 111.114 199.924 111.114Z" fill="white"/>
<path d="M104.111 57.0631C105.753 57.4485 110.677 56.2067 121.909 48.8849C133.142 41.563 138.08 31.7577 138.651 23.0942C139.222 14.4307 137.038 13.2888 134.269 12.2469C131.515 11.205 127.989 12.6323 125.135 9.57795C122.28 6.5236 121.424 3.01253 115.615 3.29798C109.806 3.58344 106.009 6.62351 103.626 4.62534C101.242 2.62717 97.1604 -0.512818 91.0659 0.628995C84.9715 1.77081 81.646 11.6618 78.3204 12.3326C74.9949 13.0034 68.4295 11.9472 66.1459 16.9997C63.8622 22.0523 67.5731 28.4179 65.3894 31.4579C63.2057 34.498 58.9239 38.0234 60.2513 43.6325C61.5786 49.2417 68.0584 55.2362 65.9603 58.0051C63.8622 60.7597 58.7241 68.7524 66.3457 73.8049C73.953 78.8432 87.5406 75.4463 90.7948 71.6212C93.7492 68.1529 95.8901 64.2422 93.8348 62.7293C92.1935 61.5019 91.7796 59.2611 92.8357 56.5493C93.7349 54.3085 96.6465 51.4967 99.6438 52.5529C102.727 53.6376 101.442 56.4494 104.111 57.0631Z" fill="#1A1A1A"/>
<path d="M76.6929 74.2625C76.9355 74.0341 77.221 73.82 77.5207 73.6202C77.8204 73.4204 78.163 73.2206 78.5055 73.0208C79.2049 72.6211 79.9613 72.2358 80.7606 71.722C81.1602 71.465 81.5599 71.1653 81.9452 70.7942C82.3306 70.4231 82.7017 69.9664 82.9871 69.4241C83.1299 69.1529 83.244 68.8674 83.3297 68.5677L83.3868 68.3393L83.4296 68.1395C83.4581 68.0111 83.4867 67.8683 83.5009 67.7256C83.5723 67.169 83.558 66.5553 83.4153 65.9558C83.2726 65.3563 83.0014 64.7569 82.6303 64.2716C82.2592 63.7721 81.8168 63.3867 81.3601 63.0727C80.4466 62.4447 79.4761 62.1022 78.5341 61.8738C77.5921 61.6454 76.6643 61.5313 75.7509 61.4884C74.8374 61.4456 73.9383 61.4742 73.0534 61.5455C72.6109 61.5741 72.1685 61.6312 71.726 61.6883C71.5119 61.7168 71.2836 61.7454 71.0695 61.7882L70.7412 61.8453L70.5842 61.8738L70.4129 61.9024C69.4995 62.0736 68.586 62.3305 67.7154 62.7016C65.9741 63.4153 64.4041 64.5285 63.1767 65.8987C62.877 66.227 62.5915 66.5838 62.3203 66.9406C62.3203 67.9112 62.4773 68.896 62.8627 69.838C63.0054 69.6524 63.1482 69.4669 63.2909 69.2956C63.7762 68.6961 64.3328 68.1538 64.9037 67.6542C66.0598 66.6552 67.3586 65.913 68.7573 65.4277C69.4567 65.1851 70.1846 65.0138 70.9125 64.9139L71.0552 64.8996L71.1979 64.8854L71.4977 64.8425C71.6975 64.814 71.8973 64.7997 72.0971 64.7712C72.4967 64.7283 72.8821 64.6998 73.2817 64.6713C74.0667 64.6284 74.8517 64.5999 75.6082 64.6427C76.3646 64.6855 77.1211 64.7712 77.8062 64.9282C78.4912 65.0852 79.1335 65.3278 79.6188 65.6418C79.8614 65.7988 80.047 65.9701 80.1897 66.1413C80.3324 66.3126 80.4323 66.4982 80.4894 66.7123C80.5465 66.9263 80.5751 67.169 80.5465 67.4402C80.5465 67.5115 80.5322 67.5829 80.518 67.6542L80.5037 67.7542L80.4894 67.8398C80.4609 67.954 80.4323 68.0539 80.3752 68.1681C80.2896 68.3822 80.1326 68.5962 79.9328 68.8246C79.733 69.053 79.4618 69.2671 79.1763 69.4954C78.5912 69.9379 77.8775 70.3661 77.1496 70.8513C76.7785 71.094 76.4074 71.3509 76.0363 71.6506C75.6653 71.9503 75.3084 72.2786 74.9659 72.6497C74.6234 73.0208 74.3236 73.4632 74.081 73.9342C73.8384 74.4052 73.6671 74.9333 73.5815 75.4471C73.5386 75.7326 73.5101 76.0038 73.5101 76.2892C74.1952 76.3606 74.8945 76.4034 75.5939 76.4177C75.6224 76.2321 75.651 76.0609 75.7081 75.8896C75.8651 75.2188 76.2076 74.7192 76.6929 74.2625Z" fill="white"/>
<path d="M76.0805 76.7881C72.9548 76.7881 69.2011 76.2315 66.0896 74.1762C63.7632 72.6348 62.3787 70.6794 61.9934 68.3672C61.294 64.2139 63.963 59.9464 65.6044 57.7626C66.632 56.4067 65.0192 53.7806 63.3207 50.9974C61.9506 48.7566 60.4091 46.2161 59.8239 43.7612C58.6964 38.9941 61.4368 35.6686 63.6347 32.9853C64.1486 32.3716 64.6196 31.7864 65.0192 31.2298C65.9755 29.9024 65.6757 27.7758 65.3189 25.3209C64.9336 22.6234 64.5054 19.5547 65.7328 16.8429C67.5883 12.7324 72.1841 12.4327 75.5239 12.2186C76.523 12.1472 77.465 12.0901 78.2214 11.9474C79.4631 11.7048 80.8904 9.73514 82.4033 7.6656C84.7012 4.51135 87.2988 0.928908 90.9812 0.24382C97.5609 -0.983629 102 2.74154 103.898 4.34007C105.111 5.35343 106.824 4.85389 109.207 4.1688C111.034 3.64071 113.104 3.04126 115.587 2.91281C120.283 2.68444 121.953 4.88243 123.723 7.22315C124.251 7.92251 124.793 8.63614 125.435 9.32123C127.148 11.1481 129.146 11.2623 131.087 11.3622C132.201 11.4193 133.357 11.4764 134.413 11.876C137.496 13.0464 139.637 14.545 139.066 23.1514C138.766 27.7758 137.225 32.4715 134.627 36.739C131.687 41.5489 127.491 45.7736 122.124 49.2704C117.899 52.025 107.652 58.3621 103.998 57.5057C102.485 57.1489 102.042 56.1356 101.657 55.2364C101.257 54.3229 100.886 53.4666 99.4877 52.967C96.8187 52.025 94.0926 54.5798 93.222 56.7207C92.2514 59.2042 92.5654 61.2737 94.0783 62.4013C94.635 62.8152 94.9632 63.3861 95.0346 64.114C95.3058 66.5546 92.6939 70.0514 91.0953 71.9211C89.3683 73.9478 85.0009 75.789 80.2338 76.4884C79.1491 76.6311 77.6933 76.7881 76.0805 76.7881ZM93.6216 0.828999C92.8366 0.828999 92.0088 0.900362 91.1524 1.05736C87.8126 1.68536 85.3149 5.1108 83.1169 8.1366C81.4327 10.4488 79.9912 12.4469 78.4069 12.7609C77.6077 12.9179 76.6371 12.9893 75.6095 13.0464C72.2982 13.2605 68.1877 13.5317 66.5464 17.1712C65.4188 19.6689 65.8327 22.5948 66.2038 25.1782C66.5606 27.7044 66.9032 30.1022 65.7471 31.7008C65.3332 32.2859 64.8336 32.8711 64.3198 33.4991C62.1218 36.1538 59.6384 39.1796 60.6803 43.5328C61.2369 45.8592 62.7498 48.3427 64.0772 50.5264C66.0183 53.7092 67.6882 56.4496 66.318 58.2622C64.748 60.3317 62.2075 64.3709 62.864 68.2102C63.2208 70.2798 64.4768 72.0353 66.5892 73.4483C74.0395 78.3866 87.3559 75.0183 90.4816 71.3359C93.0364 68.3387 94.3923 65.7268 94.2211 64.1711C94.164 63.6858 93.9641 63.329 93.6073 63.0578C91.7662 61.6876 91.3522 59.247 92.4655 56.3782C93.4789 53.8662 96.6046 50.9974 99.8159 52.1392C101.571 52.7672 102.085 53.9376 102.485 54.8653C102.87 55.7502 103.141 56.3925 104.24 56.6351C105.111 56.8349 108.936 56.8492 121.696 48.514C126.948 45.0885 131.059 40.9637 133.928 36.2537C136.454 32.1147 137.952 27.5474 138.238 23.0515C138.809 14.4023 136.539 13.5459 134.142 12.6325C133.214 12.2757 132.172 12.2329 131.073 12.1615C129.061 12.0616 126.791 11.9331 124.836 9.84932C124.165 9.12141 123.594 8.39351 123.066 7.67988C121.296 5.33916 119.898 3.49799 115.659 3.71208C113.275 3.82626 111.248 4.41144 109.464 4.93952C106.924 5.6817 104.926 6.25261 103.37 4.9538C101.671 3.55508 98.4315 0.828999 93.6216 0.828999Z" fill="#1A1A1A"/>
<path d="M76.0805 76.7881C72.9548 76.7881 69.2011 76.2315 66.0896 74.1762C63.7632 72.6348 62.3787 70.6794 61.9934 68.3672C61.294 64.2139 63.963 59.9464 65.6044 57.7626C66.632 56.4067 65.0192 53.7806 63.3207 50.9974C61.9506 48.7566 60.4091 46.2161 59.8239 43.7612C58.6964 38.9941 61.4368 35.6686 63.6347 32.9853C64.1486 32.3716 64.6196 31.7864 65.0192 31.2298C65.9755 29.9024 65.6757 27.7758 65.3189 25.3209C64.9336 22.6234 64.5054 19.5547 65.7328 16.8429C67.5883 12.7324 72.1841 12.4327 75.5239 12.2186C76.523 12.1472 77.465 12.0901 78.2214 11.9474C79.4631 11.7048 80.8904 9.73514 82.4033 7.6656C84.7012 4.51135 87.2988 0.928908 90.9812 0.24382C97.5609 -0.983629 102 2.74154 103.898 4.34007C105.111 5.35343 106.824 4.85389 109.207 4.1688C111.034 3.64071 113.104 3.04126 115.587 2.91281C120.283 2.68444 121.953 4.88243 123.723 7.22315C124.251 7.92251 124.793 8.63614 125.435 9.32123C127.148 11.1481 129.146 11.2623 131.087 11.3622C132.201 11.4193 133.357 11.4764 134.413 11.876C137.496 13.0464 139.637 14.545 139.066 23.1514C138.766 27.7758 137.225 32.4715 134.627 36.739C131.687 41.5489 127.491 45.7736 122.124 49.2704C117.899 52.025 107.652 58.3621 103.998 57.5057C102.485 57.1489 102.042 56.1356 101.657 55.2364C101.257 54.3229 100.886 53.4666 99.4877 52.967C96.8187 52.025 94.0926 54.5798 93.222 56.7207C92.2514 59.2042 92.5654 61.2737 94.0783 62.4013C94.635 62.8152 94.9632 63.3861 95.0346 64.114C95.3058 66.5546 92.6939 70.0514 91.0953 71.9211C89.3683 73.9478 85.0009 75.789 80.2338 76.4884C79.1491 76.6311 77.6933 76.7881 76.0805 76.7881ZM93.6216 0.828999C92.8366 0.828999 92.0088 0.900362 91.1524 1.05736C87.8126 1.68536 85.3149 5.1108 83.1169 8.1366C81.4327 10.4488 79.9912 12.4469 78.4069 12.7609C77.6077 12.9179 76.6371 12.9893 75.6095 13.0464C72.2982 13.2605 68.1877 13.5317 66.5464 17.1712C65.4188 19.6689 65.8327 22.5948 66.2038 25.1782C66.5606 27.7044 66.9032 30.1022 65.7471 31.7008C65.3332 32.2859 64.8336 32.8711 64.3198 33.4991C62.1218 36.1538 59.6384 39.1796 60.6803 43.5328C61.2369 45.8592 62.7498 48.3427 64.0772 50.5264C66.0183 53.7092 67.6882 56.4496 66.318 58.2622C64.748 60.3317 62.2075 64.3709 62.864 68.2102C63.2208 70.2798 64.4768 72.0353 66.5892 73.4483C74.0395 78.3866 87.3559 75.0183 90.4816 71.3359C93.0364 68.3387 94.3923 65.7268 94.2211 64.1711C94.164 63.6858 93.9641 63.329 93.6073 63.0578C91.7662 61.6876 91.3522 59.247 92.4655 56.3782C93.4789 53.8662 96.6046 50.9974 99.8159 52.1392C101.571 52.7672 102.085 53.9376 102.485 54.8653C102.87 55.7502 103.141 56.3925 104.24 56.6351C105.111 56.8349 108.936 56.8492 121.696 48.514C126.948 45.0885 131.059 40.9637 133.928 36.2537C136.454 32.1147 137.952 27.5474 138.238 23.0515C138.809 14.4023 136.539 13.5459 134.142 12.6325C133.214 12.2757 132.172 12.2329 131.073 12.1615C129.061 12.0616 126.791 11.9331 124.836 9.84932C124.165 9.12141 123.594 8.39351 123.066 7.67988C121.296 5.33916 119.898 3.49799 115.659 3.71208C113.275 3.82626 111.248 4.41144 109.464 4.93952C106.924 5.6817 104.926 6.25261 103.37 4.9538C101.671 3.55508 98.4315 0.828999 93.6216 0.828999Z" fill="#1A1A1A"/>
<path d="M79.076 12.5321C79.3186 13.4312 79.547 14.3304 79.7468 15.2296C79.9752 16.243 80.175 17.2563 80.3034 18.2411C80.332 18.4838 80.3605 18.7264 80.3748 18.9548C80.3891 19.0689 80.3891 19.1974 80.4034 19.3259L80.4176 19.7112C80.4462 20.225 80.4462 20.7246 80.4319 21.2098C80.4176 22.1804 80.2892 23.1224 80.0465 23.993C79.8039 24.8636 79.4185 25.6629 78.9047 26.3765C78.3909 27.0902 77.7201 27.7182 76.9779 28.2605C76.7924 28.389 76.5925 28.5317 76.3927 28.6459L75.7076 29.0741C75.465 29.2168 75.2366 29.3738 74.994 29.5451L74.6372 29.7877L74.2947 30.0303C73.3812 30.6869 72.5106 31.3862 71.6685 32.1284L71.0405 32.6851L70.4268 33.256L69.8416 33.8554C69.6418 34.0552 69.4562 34.2551 69.2564 34.4691C68.5 35.297 67.772 36.1533 67.087 37.0668C66.9157 37.2951 66.7587 37.5235 66.6017 37.7661L66.1592 38.4512C65.8881 38.8651 65.6026 39.2648 65.2886 39.6358C64.6749 40.3923 63.9755 41.0774 63.2048 41.6768C62.4341 42.2763 61.592 42.7758 60.6928 43.204C60.65 43.2183 60.6072 43.2326 60.5786 43.2611C60.5929 43.361 60.6214 43.4609 60.65 43.5751C60.7927 44.146 60.9783 44.7312 61.2209 45.3164C61.3208 45.2878 61.4207 45.245 61.5206 45.2165C62.063 45.0166 62.6053 44.7883 63.1192 44.5314C63.633 44.2745 64.1468 43.9747 64.6321 43.6465C65.1173 43.3182 65.5883 42.9614 66.0308 42.576C66.4732 42.1907 66.8871 41.7767 67.2868 41.3486C67.6721 40.9204 68.0432 40.4637 68.3858 39.9927L68.6284 39.6501L68.8568 39.3504C68.9995 39.1506 69.1708 38.9508 69.3135 38.7652C70.5838 37.1952 72.0824 35.7537 73.6381 34.4263C74.4231 33.7698 75.2367 33.1418 76.0787 32.5709L76.3927 32.3568L76.7067 32.157C76.9208 32.0142 77.1349 31.8858 77.349 31.7431L78.0341 31.3292C78.291 31.1722 78.5336 31.0009 78.7905 30.8296C79.2901 30.4728 79.7611 30.0874 80.2035 29.6593C80.646 29.2311 81.0599 28.7601 81.431 28.2463C81.8021 27.7325 82.1303 27.1901 82.4015 26.6192C82.6727 26.0483 82.8868 25.4488 83.0438 24.8494C83.3721 23.6505 83.472 22.4373 83.472 21.2669C83.472 20.6818 83.4434 20.1109 83.3863 19.5542L83.3435 19.1403C83.3292 18.9976 83.315 18.8691 83.3007 18.7121C83.2722 18.4124 83.2151 18.127 83.1722 17.8415C82.9724 16.6997 82.687 15.615 82.373 14.5588C82.216 14.0307 82.0447 13.5026 81.8592 12.9888C81.6736 12.475 81.4881 11.9612 81.3025 11.4473C81.2312 11.2333 81.1455 11.0334 81.0599 10.8194C80.4176 11.5758 79.7468 12.1895 79.076 12.5321Z" fill="white"/>
<path d="M130.586 40.3504C130.287 39.9936 130.001 39.651 129.716 39.3085C129.43 38.9659 129.159 38.6377 128.902 38.2951C128.388 37.61 127.96 36.9249 127.632 36.2113C127.475 35.8545 127.332 35.4977 127.246 35.1409C127.204 34.9553 127.161 34.784 127.118 34.5985C127.104 34.5129 127.089 34.4129 127.075 34.3273C127.061 34.2417 127.047 34.1275 127.047 34.0704C127.004 33.4995 127.147 32.9714 127.518 32.429C127.874 31.8867 128.431 31.3443 129.059 30.8448C129.701 30.3452 130.415 29.8885 131.157 29.4603C131.914 29.0179 132.699 28.604 133.512 28.1473C133.926 27.9189 134.34 27.6905 134.768 27.4193C134.982 27.2766 135.211 27.1339 135.453 26.9483C135.567 26.8484 135.696 26.7485 135.839 26.6201C135.981 26.4773 136.096 26.3489 136.21 26.2204C136.438 25.935 136.638 25.5924 136.795 25.2214C136.938 24.8503 137.023 24.4506 137.038 24.0795C137.052 23.7085 137.023 23.3802 136.98 23.0805C136.923 22.7807 136.866 22.5095 136.795 22.2526C136.652 21.7531 136.495 21.3106 136.352 20.8825C136.21 20.4543 136.067 20.0547 135.953 19.6407C135.824 19.2411 135.724 18.8272 135.639 18.4276C135.596 18.2278 135.553 18.0279 135.525 17.8138C135.482 17.5855 135.468 17.4713 135.453 17.3C135.396 16.672 135.553 15.9869 135.867 15.3161C136.067 14.8879 136.324 14.474 136.638 14.0744C136.053 13.4892 135.382 13.161 134.668 12.8755C134.326 13.2466 133.997 13.6605 133.712 14.1172C133.427 14.5739 133.184 15.0735 132.998 15.6301C132.827 16.1725 132.713 16.7577 132.699 17.3571C132.684 17.6426 132.713 17.9708 132.741 18.1992C132.77 18.4418 132.799 18.6987 132.827 18.9414C132.898 19.4409 132.998 19.9262 133.113 20.3972C133.227 20.8682 133.355 21.3392 133.484 21.7816C133.612 22.2241 133.741 22.6523 133.826 23.0234C133.869 23.2089 133.912 23.3802 133.926 23.5372C133.94 23.6799 133.94 23.8084 133.94 23.894C133.926 23.9796 133.912 24.0367 133.898 24.0795C133.883 24.1224 133.84 24.1795 133.783 24.2508C133.741 24.2936 133.712 24.3364 133.683 24.3507C133.655 24.3793 133.598 24.4221 133.541 24.4649C133.427 24.5505 133.27 24.6647 133.098 24.7646C132.77 24.9787 132.385 25.1928 131.999 25.4069C131.214 25.8351 130.386 26.2775 129.573 26.7771C128.759 27.2623 127.932 27.8047 127.132 28.447C126.347 29.0892 125.562 29.8457 124.949 30.8448C124.649 31.3443 124.392 31.9152 124.249 32.529C124.106 33.1427 124.064 33.7992 124.149 34.4129C124.164 34.5842 124.192 34.6984 124.221 34.8269C124.249 34.9553 124.278 35.098 124.306 35.2265C124.363 35.4834 124.449 35.7546 124.52 35.9972C124.692 36.511 124.891 36.9963 125.134 37.4673C125.619 38.395 126.233 39.2228 126.861 39.9507C127.175 40.3218 127.503 40.6786 127.832 41.0212C128.16 41.3637 128.488 41.6777 128.802 42.006C128.931 42.1345 129.045 42.2629 129.173 42.3771C129.73 41.7919 130.272 41.2067 130.772 40.6073C130.715 40.5074 130.643 40.436 130.586 40.3504Z" fill="white"/>
<path d="M106.981 56.3068C107.652 56.1069 108.465 55.8215 109.45 55.4076C109.493 55.2363 109.536 55.065 109.564 54.8938C109.85 53.495 109.835 52.0963 109.693 50.7547C109.621 50.0839 109.521 49.4273 109.407 48.7708C109.293 48.1285 109.165 47.4863 109.036 46.8725C108.908 46.2588 108.794 45.6451 108.694 45.0599C108.651 44.7602 108.608 44.4747 108.579 44.1893C108.565 44.0465 108.551 43.9038 108.551 43.7754C108.551 43.7325 108.551 43.7183 108.551 43.704C108.551 43.6754 108.551 43.6612 108.551 43.6326C108.551 43.5898 108.551 43.547 108.565 43.5042C108.594 43.1616 108.736 42.8048 109.008 42.4337C109.265 42.0626 109.636 41.6916 110.05 41.349C110.478 41.0065 110.949 40.6782 111.448 40.3499C111.948 40.0359 112.476 39.7219 113.004 39.4222C113.546 39.1225 114.103 38.8227 114.674 38.5087C115.245 38.1948 115.816 37.8808 116.444 37.4668C116.601 37.3669 116.758 37.2528 116.915 37.1243L116.972 37.0815C116.986 37.0672 117.015 37.0529 117.043 37.0244C117.1 36.9816 117.157 36.9245 117.2 36.8817C117.3 36.7818 117.4 36.6676 117.5 36.5677C117.871 36.1252 118.085 35.6257 118.214 35.1689C118.342 34.7122 118.399 34.2983 118.428 33.8987C118.456 33.499 118.442 33.128 118.428 32.7711C118.399 32.0575 118.313 31.3867 118.214 30.7302C118.114 30.0736 118.014 29.4456 117.914 28.8176C117.714 27.5616 117.514 26.3342 117.371 25.121C117.243 23.9078 117.143 22.7089 117.157 21.51C117.157 21.353 117.157 21.2388 117.172 21.1104C117.186 20.9819 117.186 20.8677 117.2 20.7393C117.229 20.4824 117.286 20.2255 117.343 19.9686C117.471 19.4547 117.657 18.9267 117.871 18.4128C118.099 17.899 118.371 17.3709 118.656 16.8714C118.956 16.3576 119.27 15.858 119.612 15.3585C120.297 14.3737 121.068 13.4031 121.867 12.4754C122.681 11.5477 123.523 10.6342 124.422 9.76361C124.479 9.70652 124.522 9.66371 124.579 9.60662C124.094 9.06425 123.68 8.52189 123.266 7.9938C123.18 8.06517 123.095 8.12226 123.023 8.19362C122.01 9.00716 121.025 9.86352 120.098 10.7912C119.156 11.7047 118.256 12.6752 117.429 13.7314C116.601 14.7876 115.83 15.9151 115.216 17.1854C114.917 17.8277 114.631 18.4842 114.446 19.2121C114.346 19.5689 114.26 19.94 114.203 20.3111C114.174 20.4967 114.146 20.6965 114.132 20.882C114.117 21.0818 114.103 21.2816 114.103 21.4386C114.06 22.7946 114.132 24.1362 114.26 25.4493C114.388 26.7624 114.588 28.0469 114.802 29.3172C114.902 29.9452 115.002 30.5732 115.088 31.1726C115.173 31.7721 115.245 32.3715 115.273 32.9281C115.302 33.4705 115.288 33.9986 115.188 34.3269C115.145 34.4839 115.088 34.5695 115.059 34.6266C115.045 34.6409 115.045 34.6551 115.031 34.6551L115.016 34.6694C115.016 34.6694 115.002 34.6837 114.988 34.6837L114.959 34.7122C114.874 34.7836 114.774 34.8549 114.66 34.9263C114.217 35.226 113.689 35.54 113.147 35.854C112.604 36.168 112.048 36.482 111.477 36.8103C110.349 37.4668 109.193 38.1805 108.108 39.1367C107.566 39.622 107.038 40.1644 106.596 40.8637C106.367 41.2063 106.167 41.5916 106.025 42.0056C105.882 42.4195 105.782 42.8762 105.753 43.3329C105.739 43.4471 105.753 43.5613 105.753 43.6754C105.753 43.7325 105.753 43.7896 105.768 43.8467C105.768 43.9038 105.768 43.9609 105.782 44.0037C105.796 44.1893 105.825 44.3605 105.839 44.5461C105.896 44.9029 105.953 45.2312 106.025 45.5594C106.167 46.216 106.324 46.8582 106.481 47.472C106.638 48.0857 106.795 48.6994 106.938 49.2989C107.081 49.8983 107.209 50.4978 107.309 51.083C107.509 52.2676 107.58 53.4237 107.438 54.5512C107.338 55.1364 107.195 55.7358 106.981 56.3068Z" fill="white"/>
<path d="M100.329 13.6313C100.343 13.303 100.372 12.9605 100.415 12.6322C100.486 11.9614 100.629 11.2906 100.8 10.634C101.157 9.30666 101.685 8.00785 102.37 6.76613C102.698 6.16668 103.041 5.5815 103.44 5.01059C103.412 4.99632 103.397 4.98205 103.369 4.9535C102.898 4.55387 102.313 4.06859 101.599 3.55478C101.085 4.13996 100.6 4.73941 100.158 5.38168C99.2442 6.70904 98.4592 8.15058 97.9025 9.7063C97.6171 10.477 97.403 11.2906 97.246 12.1041C97.1604 12.518 97.1033 12.9319 97.0604 13.3458C97.0319 13.5599 97.0176 13.7597 97.0033 13.9738L96.9748 14.2878L96.9605 14.5875C96.9177 15.3583 96.9034 16.129 96.8892 16.8854L96.8321 19.1263C96.775 20.5963 96.7036 22.0521 96.5181 23.4366C96.4182 24.1217 96.304 24.7925 96.1327 25.4205C95.9614 26.0485 95.7474 26.6337 95.4904 27.1332C95.2335 27.647 94.9195 28.0324 94.577 28.3464L94.4485 28.4463L94.3772 28.5034C94.3486 28.5177 94.3201 28.5462 94.2915 28.5748L94.106 28.7032L93.9062 28.8317C93.635 29.0029 93.3495 29.1742 93.0498 29.3455C91.8366 30.0163 90.4379 30.6586 89.0392 31.4293C87.6405 32.2 86.2418 33.1135 84.9715 34.241C83.7155 35.3685 82.6022 36.6959 81.7459 38.1517C81.3177 38.8796 80.9323 39.6218 80.6041 40.3925C80.5184 40.5781 80.4471 40.7779 80.3757 40.9634L80.2615 41.2489L80.1616 41.5058L79.9761 42.0053L79.7762 42.5049C79.2339 43.818 78.6059 45.0454 77.8352 46.1444C77.0644 47.2291 76.1653 48.1711 75.0805 48.9133C74.5382 49.2844 73.9673 49.6126 73.3535 49.8838C72.7398 50.155 72.0976 50.4119 71.441 50.6117C70.1137 51.0114 68.7007 51.2683 67.2591 51.4538C66.4456 51.5537 65.6178 51.6251 64.7757 51.6822C65.3038 52.5528 65.7748 53.3949 66.1316 54.1656C66.574 54.1656 67.0308 54.1514 67.4732 54.1371C69.0432 54.08 70.6275 53.8944 72.2117 53.5234C73.796 53.1523 75.3945 52.5671 76.8503 51.6536C78.3062 50.7545 79.605 49.5556 80.6183 48.2139C81.6317 46.8723 82.431 45.4308 83.0875 43.975L83.3301 43.4326L83.5585 42.8902L83.6727 42.6191L83.7726 42.3907C83.844 42.2337 83.901 42.0767 83.9724 41.9197C84.2579 41.306 84.5719 40.7065 84.9287 40.1499C85.6423 39.0223 86.4987 38.0233 87.4978 37.1526C88.4968 36.282 89.6387 35.5398 90.8947 34.869C91.5226 34.5265 92.1649 34.1982 92.85 33.8699C93.5208 33.5274 94.2202 33.1848 94.9338 32.7995C95.2906 32.5996 95.6474 32.3856 96.0185 32.1572L96.2897 31.9859L96.5609 31.8004C96.6037 31.7718 96.6465 31.7433 96.7036 31.7005L96.8606 31.572C96.9605 31.4864 97.0604 31.4007 97.1603 31.3294C97.9453 30.63 98.5305 29.7879 98.9587 28.9458C99.3869 28.1038 99.6581 27.2474 99.8579 26.4196C100.058 25.5775 100.186 24.764 100.272 23.9504C100.443 22.3376 100.472 20.7676 100.457 19.2262C100.457 18.4554 100.429 17.699 100.415 16.9425L100.357 14.716C100.357 14.6304 100.357 14.5305 100.357 14.4448V14.2022C100.315 13.9738 100.315 13.8025 100.329 13.6313Z" fill="white"/>
<path d="M133.669 65.8407C133.27 65.3126 132.413 65.2269 131.214 65.1128L131.072 65.0985C128.403 64.8416 128.146 63.7568 128.146 63.7568V63.7711C128.146 63.7426 128.146 63.7283 128.131 63.6998C126.304 57.6767 120.667 50.1836 120.424 49.8696C120.281 49.684 120.01 49.6412 119.825 49.7839C119.639 49.9266 119.596 50.1978 119.739 50.3834C119.796 50.4547 125.505 58.0478 127.304 63.9281C127.361 64.2421 127.817 65.6551 130.986 65.9548L131.129 65.9691C131.956 66.0405 132.799 66.1261 132.984 66.3545C132.998 66.3687 133.027 66.4258 132.998 66.5828C132.67 68.3098 129.502 68.9521 128.288 69.052C128.074 69.052 127.874 69.2233 127.86 69.4374C127.418 74.3472 124.792 78.4434 121.152 79.885C115.828 81.9973 109.948 80.7413 109.891 80.727C109.891 80.727 109.891 80.727 109.877 80.727C109.877 80.727 109.877 80.727 109.862 80.727C109.263 80.6129 103.982 79.6994 102.483 81.0553C102.155 81.355 101.998 81.7404 102.041 82.1828C102.127 83.239 102.812 84.5236 103.597 86.0222C105.11 88.891 106.994 92.4592 106.151 96.6981L106.137 96.7981C106.123 96.8694 106.123 96.9265 106.137 96.9836L105.581 99.6954C105.538 99.9238 105.68 100.152 105.909 100.195C105.937 100.195 105.966 100.209 105.994 100.209C106.194 100.209 106.366 100.066 106.408 99.8667L110.134 81.6262C111.618 81.8831 116.685 82.5682 121.466 80.67C125.305 79.1428 128.103 74.9323 128.674 69.8655C129.801 69.7228 133.384 69.0806 133.826 66.7398C133.912 66.3973 133.855 66.0833 133.669 65.8407Z" fill="#1A1A1A"/>
<path d="M119.069 60.3887C118.484 60.2888 117.899 60.2317 117.356 60.2317C116.685 60.2317 116.057 60.3031 115.515 60.4601C114.644 60.7027 114.102 61.1166 114.031 61.5876C113.945 62.0586 114.316 62.6295 115.058 63.1433C115.886 63.7428 117.071 64.1852 118.37 64.4136C121.138 64.8989 123.237 64.171 123.408 63.2147C123.565 62.2584 121.824 60.8597 119.069 60.3887Z" fill="white"/>
<path d="M119.212 59.5326C117.785 59.29 116.386 59.3185 115.287 59.6183C114.074 59.9608 113.332 60.6031 113.189 61.4166C113.046 62.2444 113.531 63.1008 114.559 63.8287C115.501 64.4995 116.8 64.9991 118.227 65.2417C118.869 65.3559 119.483 65.413 120.068 65.413C122.309 65.413 124.036 64.628 124.25 63.3577C124.521 61.7592 122.309 60.075 119.212 59.5326ZM115.044 63.1436C114.316 62.6298 113.945 62.0589 114.017 61.5879C114.102 61.1169 114.645 60.703 115.501 60.4604C116.043 60.3034 116.671 60.232 117.342 60.232C117.885 60.232 118.47 60.2891 119.055 60.389C120.468 60.6316 121.624 61.1312 122.381 61.6735C120.525 61.7449 119.126 62.3729 118.955 63.372C118.884 63.7574 119.012 64.157 119.298 64.5424C118.998 64.5138 118.684 64.4853 118.356 64.4282C117.057 64.1855 115.886 63.7288 115.044 63.1436Z" fill="#1A1A1A"/>
<path d="M118.183 72.8346C118.168 72.8346 118.154 72.8346 118.14 72.8346C114.757 72.5349 113.03 69.8945 112.959 69.7803C112.83 69.5805 112.887 69.3093 113.087 69.1951C113.287 69.0666 113.544 69.1237 113.672 69.3235C113.687 69.3521 115.257 71.7214 118.197 71.9783C118.439 71.9925 118.611 72.2066 118.582 72.4493C118.596 72.6776 118.411 72.8346 118.183 72.8346Z" fill="#1A1A1A"/>
<path d="M116.843 56.2065L116.972 56.1066C117.015 56.0781 117.043 56.0495 117.086 56.021C117.157 55.9639 117.243 55.9211 117.314 55.864C117.471 55.7641 117.628 55.6784 117.8 55.6071C118.128 55.4501 118.485 55.3216 118.856 55.2217C119.227 55.1361 119.612 55.0647 119.998 55.0504C120.383 55.0219 120.783 55.0504 121.182 55.0932H121.211C121.824 55.1646 122.281 55.7212 122.196 56.3492C122.124 56.963 121.568 57.4197 120.94 57.334C120.811 57.3198 120.683 57.277 120.568 57.2199C120.34 57.1057 120.083 56.9915 119.826 56.9059C119.569 56.8202 119.298 56.7631 119.013 56.7346C118.727 56.7061 118.442 56.7061 118.156 56.7346C118.014 56.7489 117.871 56.7631 117.714 56.7917C117.643 56.806 117.571 56.8202 117.5 56.8345C117.428 56.8488 117.357 56.8773 117.3 56.8916L117.2 56.9201C116.972 56.9772 116.743 56.8345 116.686 56.6061C116.644 56.4777 116.701 56.3064 116.843 56.2065Z" fill="#1A1A1A"/>
<path d="M130.244 56.5347C130.202 56.5204 130.13 56.4776 130.059 56.4633C129.987 56.4348 129.916 56.4205 129.845 56.3919C129.702 56.3491 129.559 56.3063 129.417 56.2778C129.131 56.2207 128.846 56.1778 128.56 56.1778C128.275 56.1778 128.004 56.1921 127.732 56.2492C127.461 56.292 127.204 56.3777 126.962 56.4776C126.376 56.6917 125.72 56.3919 125.506 55.8068C125.292 55.2216 125.591 54.565 126.177 54.3509C126.305 54.3081 126.434 54.2796 126.562 54.2796H126.591C126.99 54.2796 127.39 54.2939 127.775 54.3652C128.161 54.4223 128.532 54.5365 128.888 54.6649C129.245 54.7934 129.574 54.9647 129.888 55.1645C130.045 55.2644 130.187 55.3643 130.344 55.4785C130.416 55.5356 130.487 55.5927 130.558 55.6498C130.587 55.6783 130.63 55.7068 130.658 55.7497L130.772 55.8639C130.944 56.0208 130.944 56.292 130.787 56.4633C130.673 56.5918 130.487 56.6203 130.33 56.5632L130.244 56.5347Z" fill="#1A1A1A"/>
<path d="M192.859 103.492L199.924 111.114L192.759 116.937L185.794 122.818L179.485 115.367L189.12 107.018L192.859 103.492Z" fill="#7540EE"/>
<path d="M187.505 111.26C191.348 108.016 193.751 104.542 192.871 103.5C191.991 102.458 188.163 104.242 184.32 107.486C180.476 110.73 178.074 114.204 178.954 115.247C179.833 116.289 183.662 114.504 187.505 111.26Z" fill="#7540EE"/>
<path d="M204.703 115.296L193.171 103.207C193.171 103.207 193.157 103.207 193.157 103.193C191.887 101.809 187.619 104.121 184.022 107.161C182.138 108.759 180.526 110.458 179.484 111.956C178.313 113.641 178.014 114.854 178.599 115.539L178.613 115.553L185.521 122.846C185.55 122.875 185.564 122.889 185.592 122.904C185.607 122.918 185.621 122.932 185.635 122.946C185.892 123.26 186.292 123.389 186.791 123.389C188.647 123.389 191.887 121.462 194.713 119.079C196.582 117.509 198.167 115.824 199.18 114.34C199.836 113.369 200.222 112.57 200.307 111.928L204.09 115.896C204.175 115.981 204.29 116.024 204.404 116.024C204.504 116.024 204.618 115.981 204.703 115.91C204.86 115.739 204.86 115.468 204.703 115.296ZM180.197 112.427C181.196 110.986 182.752 109.345 184.579 107.803C187.962 104.949 190.859 103.607 192.044 103.607C192.286 103.607 192.443 103.664 192.543 103.764C192.714 103.964 192.7 104.72 191.601 106.305C190.602 107.746 189.046 109.387 187.219 110.929C185.393 112.47 183.509 113.726 181.924 114.468C180.197 115.268 179.455 115.168 179.27 114.968L179.255 114.954C179.098 114.768 179.113 114.012 180.197 112.427ZM190.973 114.64C189.103 116.21 187.519 117.894 186.506 119.378C185.949 120.192 185.592 120.891 185.45 121.476L180.197 115.939C180.768 115.853 181.468 115.625 182.295 115.239C183.951 114.468 185.892 113.17 187.776 111.571C189.66 109.973 191.273 108.274 192.315 106.776C192.886 105.948 193.243 105.234 193.4 104.649L198.809 110.315C196.939 110.401 193.742 112.299 190.973 114.64Z" fill="#1A1A1A"/>
<path d="M132.814 141.486C132.743 141.272 136.81 148.48 142.876 152.119C148.942 155.759 155.936 156.116 162.001 156.044C168.067 155.973 177.202 150.835 180.699 147.909C184.195 144.983 192.688 134.992 192.688 133.494C192.688 131.995 190.761 129.355 189.191 128.141C187.621 126.928 184.766 122.932 185.908 122.076C187.05 121.219 190.261 124.002 190.261 124.002L193.758 126.429C193.758 126.429 196.827 126.643 200.109 123.574C203.392 120.506 204.719 116.98 204.719 115.41L203.578 114.226C203.578 114.226 206.004 113.483 206.789 114.297C207.574 115.11 207.717 117.508 207.717 117.508C207.717 117.508 209.187 117.109 209.715 117.765C210.243 118.436 210.386 120.691 210.257 121.69C210.257 121.69 212.398 120.363 213.14 121.305C213.883 122.261 213.668 125.829 213.668 125.829L216.709 122.447C216.709 122.447 218.236 120.762 218.635 121.119C219.42 121.804 218.136 125.33 218.136 125.33L215.995 129.469L212.184 136.748L201.851 150.906L193.116 161.468L186.622 168.148L178.629 174.142L170.379 178.681L154.508 185.389L139.736 188.7C139.736 188.7 129.146 190.813 129.003 190.77C128.86 190.727 125.292 190.798 125.292 190.798L117.728 189.942L110.306 188.629L107.765 187.701L114.474 181.821C114.474 181.821 120.611 174.799 123.066 171.088C125.521 167.377 128.033 161.24 129.132 158.357C130.231 155.474 131.158 151.577 131.672 149.251C132.186 146.924 132.814 141.486 132.814 141.486Z" fill="white"/>
<path d="M192.502 134.078C191.246 136.69 183.895 145.24 180.698 147.923C177.201 150.849 168.067 155.987 162.001 156.058C155.935 156.13 148.942 155.773 142.876 152.133C136.81 148.494 132.742 141.286 132.813 141.5C132.813 141.5 132.585 143.455 132.285 145.511C135.097 149.307 140.806 155.544 148.87 157.557C161.716 160.768 174.775 156.986 183.196 148.779C195.085 137.19 193.044 133.721 193.044 133.721L192.502 134.078Z" fill="white"/>
<path d="M112.634 227.235L113.462 227.449C117.843 210.465 118.471 190.297 118.471 190.098L117.615 190.069C117.615 190.283 117.001 210.35 112.634 227.235Z" fill="#1A1A1A"/>
<path d="M124.193 122.774C116.172 122.489 108.479 120.919 101.3 118.121C95.5623 115.88 90.1387 112.855 85.186 109.115C77.436 103.263 73.2684 97.4687 72.6118 96.5124C74.296 94.6427 75.8517 92.8443 77.2219 91.1173C85.2289 81.0408 91.0807 71.9491 91.1377 71.8635L90.4241 71.4068C90.367 71.4924 84.5438 80.5413 76.5511 90.5892C73.9106 93.9148 70.5566 97.5258 66.9884 101.351C59.481 109.415 50.9602 118.564 44.6374 129.611C39.6134 138.388 35.9882 146.738 33.2336 155.872C30.4647 165.078 28.5521 175.326 27.4103 187.201L28.2667 187.286C29.4085 175.469 31.3067 165.278 34.0614 156.129C36.8017 147.052 40.3984 138.759 45.3939 130.039C51.6738 119.077 60.1518 109.972 67.6307 101.936C69.1436 100.309 70.6279 98.7247 72.0266 97.1689C72.4406 97.7541 73.4111 99.0815 74.9954 100.88C76.9364 103.078 80.1906 106.418 84.6437 109.786C89.6534 113.582 95.1484 116.651 100.972 118.92C108.251 121.761 116.058 123.345 124.165 123.63H124.179C124.407 123.63 124.593 123.445 124.607 123.217C124.621 122.974 124.436 122.774 124.193 122.774Z" fill="#1A1A1A"/>
<path d="M144.046 221.984C137.809 217.017 128.503 211.051 117.128 204.714C116.928 204.6 116.657 204.672 116.543 204.886C116.429 205.085 116.5 205.357 116.714 205.471C116.757 205.499 116.8 205.514 116.843 205.542L116.414 207.469C116.514 207.911 116.514 208.397 116.443 208.839C116.414 209.053 116.386 209.253 116.343 209.467C116.329 209.539 116.314 209.667 116.3 209.767C116.243 210.209 116.2 210.638 116.157 211.08C116.058 211.993 115.972 212.921 115.872 213.835C115.658 215.804 115.244 217.717 114.83 219.644C114.73 220.086 114.645 220.528 114.559 220.971C114.502 221.228 114.459 221.499 114.416 221.756C114.402 221.842 114.388 221.884 114.388 221.927C114.373 221.984 114.373 222.07 114.359 222.17C114.259 222.955 114.116 223.726 113.959 224.511C113.802 225.324 113.603 226.123 113.36 226.908C101.385 222.798 87.8547 217.346 74.0103 211.023C56.4977 203.03 40.3553 194.509 27.9809 186.745C27.9952 186.246 28.0951 185.76 28.195 185.275C28.2093 185.175 28.2378 185.075 28.2521 184.975C28.2521 184.947 28.2521 184.89 28.2521 184.833C28.2664 184.105 28.2949 183.362 28.3663 182.635C28.509 181.079 28.7231 179.537 28.9229 177.996C29.3368 174.842 29.4938 171.702 30.6499 168.704C30.8069 168.676 30.9354 168.562 30.9782 168.405C31.0353 168.176 30.9068 167.948 30.6785 167.877C20.2737 164.979 7.47111 162.396 5.58712 166.521C4.80212 168.233 6.08666 170.774 9.39792 174.042C12.4808 177.097 17.2193 180.736 23.4708 184.861C36.3019 193.31 54.1284 202.887 73.6534 211.794C93.1784 220.7 112.09 227.907 126.89 232.061C134.098 234.088 139.95 235.272 144.275 235.6C145.06 235.658 145.787 235.686 146.458 235.686C149.784 235.686 151.796 234.972 152.453 233.545C153.538 231.176 150.697 227.279 144.046 221.984Z" fill="#1A1A1A"/>
<path d="M100.015 55.1083C99.9584 55.0797 98.5169 54.466 96.9612 55.1939C95.6195 55.8219 94.649 57.2206 94.0353 59.3473C93.9639 59.5756 94.1066 59.8183 94.335 59.8753C94.3778 59.8896 94.4206 59.8896 94.4492 59.8896C94.6347 59.8896 94.806 59.7612 94.8631 59.5756C95.3626 57.8344 96.1048 56.664 97.1039 56.0931L97.4179 58.2483C97.4464 58.4624 97.632 58.6194 97.8461 58.6194C97.8603 58.6194 97.8889 58.6194 97.9031 58.6194C98.1315 58.5908 98.3028 58.3624 98.26 58.1341L97.9174 55.7934C98.8594 55.5793 99.6444 55.9075 99.673 55.9218C99.887 56.0217 100.144 55.9218 100.23 55.7077C100.329 55.4508 100.244 55.2082 100.015 55.1083Z" fill="#1A1A1A"/>
<path d="M219.334 121.204C219.206 120.962 218.963 120.662 218.435 120.591C218.078 120.548 217.55 120.476 214.067 124.972C214.41 123.445 214.481 121.547 213.097 120.748C212.34 120.305 211.384 120.748 210.685 121.204C210.913 119.192 210.628 117.836 209.814 117.222C209.472 116.965 208.886 116.751 208.016 117.051C208.016 115.909 207.802 114.996 207.402 114.453C207.002 113.925 205.818 112.826 203.206 114.011C202.992 114.111 202.892 114.368 202.992 114.582C203.092 114.796 203.349 114.896 203.563 114.796C204.248 114.482 205.918 113.882 206.731 114.981C207.802 116.423 207.074 122.275 203.22 126.828C203.063 127.013 203.092 127.284 203.277 127.427C203.363 127.498 203.463 127.527 203.548 127.527C203.677 127.527 203.791 127.47 203.877 127.37C206.446 124.33 207.73 120.719 207.987 118.007C208.572 117.736 209.015 117.693 209.315 117.922C209.957 118.393 210.1 119.977 209.686 122.146C208.901 126.314 206.945 128.726 206.917 128.754C206.76 128.94 206.788 129.211 206.974 129.354C207.06 129.425 207.145 129.454 207.245 129.454C207.374 129.454 207.488 129.397 207.573 129.297C207.659 129.197 209.657 126.742 210.485 122.446C211.027 121.961 212.141 121.204 212.654 121.504C214.139 122.36 213.083 125.657 212.555 126.856C212.526 126.899 212.526 126.956 212.526 127.013C211.441 128.469 210.613 129.625 210.599 129.639C210.456 129.839 210.514 130.096 210.699 130.239C210.899 130.382 211.156 130.324 211.299 130.139C214.182 126.086 217.578 121.775 218.364 121.475C218.492 121.504 218.535 121.561 218.563 121.618C218.892 122.26 218.392 124.63 214.239 132.308C209.543 141 193.7 162.823 181.44 171.801C181.426 171.815 181.412 171.829 181.383 171.844C181.369 171.829 181.34 171.829 181.326 171.815C177.801 170.659 174.347 173.514 171.82 175.597C170.707 176.525 169.637 177.396 169.109 177.439C168.309 177.496 167.867 177.267 167.367 176.982C166.739 176.639 166.011 176.254 164.641 176.511C163.399 176.739 160.288 178.609 156.677 180.764C154.379 182.149 151.996 183.561 150.04 184.589C147.086 186.145 146.501 186.016 146.415 185.974C145.93 185.745 146.287 184.86 146.9 183.533C147.628 181.963 148.527 180.008 146.957 179.009C145.116 177.838 142.133 180.293 138.694 183.148C137.081 184.489 135.397 185.874 133.727 187.001C129.73 189.684 126.919 190.227 125.934 190.327H125.919C122.908 190.284 120.296 190.041 118.112 189.713C114.673 189.199 111.49 188.5 108.578 187.715C114.073 183.347 118.769 178.266 122.523 172.572C125.634 167.862 128.117 162.723 129.902 157.328C132.214 150.292 132.742 144.597 132.856 142.271C134.383 144.797 135.996 146.966 137.866 148.779C141.12 151.919 145.13 154.245 149.469 155.487C152.11 156.244 154.879 156.629 157.762 156.629C161.03 156.629 164.441 156.144 167.981 155.173C182.511 151.191 191.945 136.048 192.972 134.335C193.943 132.722 190.518 128.697 188.99 127.37C187.449 126.028 186.093 123.788 186.279 122.931C186.307 122.817 186.364 122.703 186.578 122.632C187.463 122.389 189.961 124.202 191.445 125.286C192.716 126.214 193.515 126.785 194.014 126.913C194.914 127.156 196.612 126.428 197.911 125.657C198.967 125.029 200.979 123.673 202.464 121.618C204.99 118.136 204.833 115.766 204.833 115.666C204.819 115.438 204.605 115.253 204.376 115.281C204.148 115.295 203.962 115.509 203.977 115.738C203.977 115.766 204.091 117.922 201.779 121.119C199.509 124.244 195.684 126.114 194.443 126.114C194.357 126.114 194.3 126.1 194.243 126.086C193.872 125.986 192.901 125.272 191.959 124.587C189.518 122.803 187.549 121.475 186.364 121.804C185.879 121.932 185.565 122.26 185.451 122.731C185.122 124.173 187.006 126.771 188.434 128.012C190.603 129.896 192.701 133.136 192.245 133.893C191.231 135.577 181.968 150.449 167.753 154.345C161.244 156.129 155.178 156.244 149.712 154.674C145.516 153.46 141.634 151.22 138.479 148.18C133.841 143.712 130.815 136.961 126.633 127.627C125.977 126.171 125.306 124.658 124.592 123.088L124.421 122.703C121.752 116.851 118.74 110.214 113.117 104.748C106.623 98.4251 97.8452 94.8855 86.27 93.9149C86.0274 93.9007 85.8276 94.0719 85.8133 94.3003C85.799 94.5287 85.9703 94.7427 86.1987 94.757C111.732 96.8979 118.341 111.399 123.636 123.045L123.807 123.431C124.521 125.001 125.192 126.499 125.848 127.955C128.117 133.022 130.059 137.332 132.1 140.943C132.071 141 132.042 141.072 132.042 141.143C132.042 141.215 132.085 148.023 129.088 157.1C127.332 162.424 124.878 167.49 121.809 172.129C117.998 177.895 113.203 183.048 107.565 187.444C100.343 185.388 94.8336 182.734 91.1085 180.55C85.2995 177.153 82.4164 174.17 82.3879 174.142C82.3308 174.084 81.6029 173.328 80.4753 172.757C78.9196 171.972 77.3353 171.929 75.8938 172.629C74.2953 173.414 73.2962 174.712 73.1677 176.225C72.9965 178.052 74.0526 179.893 76.1222 181.421C78.2202 182.976 80.3897 183.447 82.6733 183.961C84.6858 184.404 86.7553 184.86 88.939 186.088C90.823 187.158 93.0781 188.971 95.0763 190.569C97.1315 192.225 98.9156 193.652 100.072 194.123C101.428 194.68 102.926 194.965 104.482 194.965C105.795 194.965 107.137 194.766 108.421 194.352C111.076 193.51 113.217 191.911 114.344 189.927C115.529 190.155 116.742 190.37 117.998 190.555C120.467 190.926 122.951 191.126 125.406 191.169C125.448 191.183 125.491 191.197 125.548 191.197C125.548 191.197 125.563 191.197 125.577 191.197C125.634 191.197 125.762 191.197 125.948 191.183C126.205 191.183 126.476 191.183 126.733 191.183C137.423 191.183 147.657 188.543 154.993 186.031C166.768 181.992 176.645 176.382 181.954 172.486C194.314 163.437 210.271 141.457 214.995 132.708C219.619 124.144 219.776 122.089 219.334 121.204Z" fill="#1A1A1A"/>
</svg>
