<svg width="18" height="18" viewBox="0 0 18 18" fill="none" xmlns="http://www.w3.org/2000/svg">
<path d="M15.9231 1.38462H15.2308V0H13.8462V1.38462H4.15385V0H2.76923V1.38462H2.07692C0.969231 1.38462 0 2.35385 0 3.46154V15.9231C0 17.0308 0.969231 18 2.07692 18H15.9231C17.0308 18 18 17.0308 18 15.9231V3.46154C18 2.35385 17.0308 1.38462 15.9231 1.38462ZM16.6154 15.9231C16.6154 16.3385 16.3385 16.6154 15.9231 16.6154H2.07692C1.66154 16.6154 1.38462 16.3385 1.38462 15.9231V6.92308H16.6154V15.9231ZM16.6154 5.53846H1.38462V3.46154C1.38462 3.04615 1.66154 2.76923 2.07692 2.76923H2.76923V4.15385H4.15385V2.76923H13.8462V4.15385H15.2308V2.76923H15.9231C16.3385 2.76923 16.6154 3.04615 16.6154 3.46154V5.53846Z" fill="#9D9D9D"/>
</svg>
