<svg width="262" height="250" viewBox="0 0 262 250" fill="none" xmlns="http://www.w3.org/2000/svg">
<path d="M73.5984 235.642C-1.56995 223.184 -21.7594 139.194 25.1114 88.0265C67.8069 41.4251 46.2301 5.69285 115.62 0.211125C177.037 -4.63757 238.158 74.9619 249.229 142.978C264.341 235.858 167.879 251.266 73.5984 235.642Z" fill="#F4B512"/>
<path d="M197.5 96L196 91.5L204.5 94.5L211.5 98.5L218.5 103.5L221.5 106.5L227.5 115.5L229 119.5L230.5 126V131.5L229 139.5L226.5 145L223 150L213 163L210.5 160L196 171L193.5 160.5L200 148.5L203.5 141.5L194 135.5L196.5 129.5L199 122L200 114.5V107L199 100.5L197.5 96Z" fill="white"/>
<path d="M237.04 198.86C236.838 196.368 234.037 194.199 228.703 192.408C223.679 190.725 216.595 189.418 207.625 188.516C189.227 186.671 164.956 186.751 139.298 188.731C113.641 190.711 89.6532 194.375 71.7534 199.021C63.0257 201.284 56.2241 203.668 51.5235 206.106C46.5267 208.692 44.0754 211.278 44.2774 213.769C44.4794 216.261 47.2809 218.43 52.6145 220.221C57.6383 221.904 64.7228 223.211 73.6929 224.113C82.5417 225.002 92.724 225.447 103.782 225.447C115.728 225.447 128.685 224.921 142.019 223.898C167.677 221.918 191.664 218.254 209.564 213.608C218.292 211.345 225.094 208.961 229.794 206.523C234.791 203.937 237.242 201.351 237.04 198.86Z" fill="#1A1A1A"/>
<path d="M71.701 123.853C76.8999 137.146 78.0582 149.309 78.0582 149.309L83.6881 152.272L92.537 149.672C92.537 149.672 92.9141 158.615 93.5202 171.949C94.1128 184.96 90.6648 222.618 90.4897 224.41C105.817 224.962 123.515 224.517 141.953 223.09C163.139 221.447 183.181 218.672 199.585 215.13C200.124 193.876 197.781 182.967 195.491 168.299C193.201 153.619 187.006 138.803 187.006 138.803L191.316 139.746C191.316 139.746 198.454 128.432 199.801 115.233C201.148 102.034 195.626 90.9895 195.626 90.9895C177.982 84.6593 152.23 83.4202 152.23 83.4202C155.584 94.855 155.489 102.707 149.024 110.115C142.559 117.523 125.32 120.62 111.312 114.29C97.3049 107.96 90.1396 90.3161 90.1396 90.3161C79.6879 91.7169 56.5623 103.785 56.5623 103.785C56.5623 103.785 66.8119 111.354 71.701 123.853Z" fill="#7540EE"/>
<path d="M70.1106 120.324C69.8951 120.324 69.7065 120.149 69.7065 119.92C69.7065 119.691 69.8816 119.516 70.1106 119.516C72.0231 119.503 73.8818 118.425 74.8515 116.782C75.8213 115.139 75.8617 112.997 74.9593 111.314C74.8785 111.152 74.7842 110.99 74.6765 110.829C74.3128 110.223 73.9357 109.59 73.9357 108.835C73.9357 107.542 75.094 106.559 76.1984 106.303C77.3028 106.034 78.4342 106.29 79.4847 106.6C82.1111 107.381 84.6163 108.539 86.9059 110.048L87.0137 110.115C87.6332 110.519 88.2663 110.937 88.9397 110.964C90.1115 111.017 91.0543 109.819 91.2563 108.674C91.6604 106.478 90.3674 104.175 87.31 101.657C84.1583 99.0438 80.7104 96.781 77.0604 94.9089C76.8584 94.8012 76.7776 94.5587 76.8853 94.3702C76.9931 94.1681 77.2355 94.0873 77.424 94.1951C81.1279 96.0807 84.6163 98.3838 87.8218 101.037C91.1216 103.758 92.4954 106.303 92.0509 108.822C91.7816 110.33 90.529 111.839 88.9128 111.772C88.0238 111.731 87.2561 111.233 86.5827 110.788L86.4749 110.721C84.2526 109.253 81.8283 108.122 79.2692 107.367C78.3264 107.085 77.3163 106.856 76.4004 107.071C75.6058 107.26 74.7573 107.933 74.7573 108.822C74.7573 109.361 75.067 109.873 75.3768 110.411C75.4711 110.573 75.5788 110.748 75.6731 110.923C76.7102 112.849 76.6563 115.3 75.5519 117.186C74.434 119.072 72.306 120.297 70.1106 120.324Z" fill="#F4B512"/>
<path d="M114.679 168.353C111.81 168.353 108.941 167.828 106.288 166.723C106.086 166.643 105.978 166.4 106.072 166.198C106.153 165.996 106.396 165.888 106.598 165.983C113.938 169 122.922 167.572 128.942 162.414C130.302 161.255 132.525 158.898 132.026 156.285C131.744 154.75 130.451 153.309 128.659 152.541C127.03 151.841 125.252 151.693 123.272 151.571H123.191C121.871 151.49 120.511 151.41 119.258 150.884C117.615 150.184 116.362 148.729 115.743 146.79C115.164 144.985 115.218 142.965 115.864 141.241C116.982 138.278 119.568 135.746 123.528 133.739C123.73 133.645 123.972 133.712 124.066 133.914C124.174 134.116 124.093 134.358 123.891 134.453C120.12 136.365 117.669 138.749 116.618 141.524C115.487 144.514 116.416 148.797 119.568 150.144C120.686 150.629 121.979 150.696 123.231 150.777H123.312C125.292 150.898 127.218 151.059 128.969 151.814C131.03 152.703 132.471 154.319 132.808 156.151C133.373 159.181 130.949 161.767 129.454 163.047C125.4 166.508 120.026 168.353 114.679 168.353Z" fill="#F4B512"/>
<path d="M95.5004 37.5L90.5004 44L89.5004 46L93.5004 53.5L101.5 59.5L107 73.5L110 85.5L103.5 86.5L88.5004 90.5L86.5004 97.5L106.5 122L142.5 120.5L158.5 106.5L155 83.5L149 83L134 83.5L132.5 81L128 75L133 73L136.5 69.5L138 66.5L138.5 63.5V60.5L138 57L135.5 49.5L133 45L133.5 43.5V42L133 41.5L131.5 41H130.5L128 37.5L125 33.5L107.5 32L95.5004 37.5Z" fill="white"/>
<path d="M134.195 217.837C132.659 217.837 131.285 217.473 130.073 216.746C129.885 216.625 129.817 216.382 129.938 216.194C130.06 216.005 130.302 215.938 130.491 216.059C134.41 218.403 139.555 216.005 143.097 213.985C143.919 213.513 144.943 212.934 145.549 212.072C146.06 211.332 146.276 210.2 145.683 209.473C145.037 208.665 143.744 208.665 142.478 208.732C140.229 208.853 137.966 208.799 135.717 208.611C134.275 208.49 132.767 208.274 131.407 207.628C129.548 206.739 128.201 205.122 127.501 202.927C126.598 200.112 126.935 196.718 128.39 194.092C130.908 189.526 135.797 186.697 139.73 184.421L155.596 175.249C155.785 175.141 156.041 175.209 156.148 175.397C156.256 175.586 156.189 175.842 156 175.95L140.134 185.122C136.296 187.344 131.501 190.105 129.103 194.482C127.757 196.92 127.447 200.072 128.282 202.685C128.726 204.058 129.683 205.904 131.77 206.9C133.009 207.493 134.437 207.682 135.797 207.803C137.993 207.991 140.229 208.045 142.437 207.924C143.596 207.87 145.347 207.776 146.303 208.961C147.151 210.012 146.895 211.547 146.195 212.53C145.481 213.54 144.377 214.173 143.474 214.685C140.888 216.153 138.787 217.056 136.834 217.514C135.919 217.729 135.03 217.837 134.195 217.837Z" fill="#F4B512"/>
<path d="M90.233 183.155C90.233 183.155 90.7718 183.667 92.9268 183.425C92.7921 183.627 90.5967 184.947 91.553 185.903C92.5227 186.859 96.2535 185.539 96.2535 185.539L109.884 180.488L104.698 184.556C104.698 184.556 102.112 186.953 106.045 186.549C109.978 186.145 116.847 181.768 116.847 181.768C116.847 181.768 121.265 179.047 121.628 175.236C121.992 171.424 119.716 167.559 111.365 163.585C103.015 159.612 89.0747 156.11 81.8017 151.396L78.0574 149.309C78.0574 149.309 76.8991 138.224 73.2222 127.624C69.5453 117.024 63.1207 107.691 56.548 103.785C56.548 103.785 43.8606 110.115 36.0488 117.752C28.237 125.388 20.331 135.894 21.2334 148.46C22.1358 161.026 29.8533 166.683 36.9512 169.296C44.0492 171.896 54.9992 173.97 54.9992 173.97L79.2427 177.296L96.5498 178.616C96.5633 178.603 90.1657 181.216 90.233 183.155Z" fill="white"/>
<path d="M109.13 40.4957C108.039 40.4957 107.285 40.4014 107.217 40.388C107.002 40.361 106.84 40.159 106.867 39.93C106.894 39.7145 107.096 39.5529 107.325 39.5798C107.365 39.5798 111.298 40.0916 114.383 38.7178C114.585 38.6236 114.827 38.7178 114.921 38.9199C115.016 39.1219 114.921 39.3643 114.719 39.4586C112.793 40.3206 110.638 40.4957 109.13 40.4957Z" fill="#1A1A1A"/>
<path d="M97.359 48.9136L93.9918 44.0918C94.5844 43.378 95.3252 43.0951 95.3926 43.0682C95.6081 43.0008 95.7158 42.7719 95.635 42.5564C95.5676 42.3409 95.3387 42.2331 95.1232 42.3139C95.0828 42.3274 91.2577 43.7551 92.8066 48.2132C92.8605 48.3748 93.0221 48.4826 93.1837 48.4826C93.2241 48.4826 93.2645 48.4691 93.3319 48.4556C93.5339 48.3883 93.6417 48.1593 93.5743 47.9438C93.1029 46.5835 93.2107 45.5733 93.5339 44.846L96.699 49.385C96.7798 49.5062 96.9145 49.5601 97.0357 49.5601C97.1165 49.5601 97.1973 49.5331 97.2647 49.4793C97.4398 49.3446 97.4802 49.1021 97.359 48.9136Z" fill="#1A1A1A"/>
<path d="M202.964 143.315C202.937 143.315 202.897 143.315 202.857 143.302L186.896 139.194C186.681 139.14 186.546 138.924 186.6 138.695C186.654 138.466 186.869 138.345 187.098 138.399L203.059 142.507C203.274 142.561 203.409 142.776 203.355 143.005C203.315 143.194 203.153 143.315 202.964 143.315Z" fill="#1A1A1A"/>
<path d="M130.927 112.893C132.782 112.345 133.705 109.935 132.989 107.509C132.273 105.084 130.189 103.561 128.334 104.109C126.479 104.656 125.556 107.067 126.272 109.492C126.988 111.918 129.072 113.44 130.927 112.893Z" fill="#F4B512"/>
<path d="M130.156 113.415C129.401 113.415 128.647 113.145 127.947 112.634C126.991 111.933 126.263 110.869 125.9 109.603C125.522 108.351 125.549 107.044 125.98 105.953C126.411 104.822 127.22 104.027 128.243 103.717C129.267 103.421 130.371 103.65 131.354 104.364C132.311 105.064 133.038 106.128 133.402 107.394C133.779 108.647 133.752 109.953 133.321 111.044C132.89 112.176 132.082 112.97 131.058 113.28C130.748 113.374 130.452 113.415 130.156 113.415ZM129.119 104.404C128.89 104.404 128.674 104.431 128.459 104.499C127.691 104.728 127.071 105.347 126.721 106.25C126.358 107.179 126.344 108.297 126.667 109.388C126.991 110.479 127.61 111.395 128.418 111.987C129.199 112.553 130.048 112.741 130.816 112.512C131.583 112.283 132.203 111.664 132.553 110.761C132.917 109.832 132.93 108.714 132.607 107.623C132.284 106.532 131.664 105.616 130.856 105.024C130.29 104.62 129.698 104.404 129.119 104.404Z" fill="#1A1A1A"/>
<path d="M229.726 120.324C228.784 116.903 227.073 112.903 224.016 108.849C224.002 108.809 223.989 108.782 223.975 108.741C223.935 108.701 223.895 108.674 223.854 108.633C219.935 103.515 213.833 98.3165 204.392 94.1412C201.671 92.929 198.856 91.8516 196.028 90.8953C196.001 90.8414 195.974 90.801 195.961 90.7875C195.853 90.599 195.597 90.5316 195.408 90.6528C195.395 90.6528 195.381 90.6663 195.381 90.6798C181.98 86.2217 167.879 84.2687 157.562 83.4067C152.417 82.9892 147.783 82.7872 143.985 82.7198C143.904 82.5986 143.77 82.5178 143.622 82.5313C143.487 82.5447 143.379 82.6121 143.312 82.7064C138.167 82.6256 134.705 82.7603 133.843 82.7872L130.544 75.0831L130.328 74.5579C133.197 73.6959 136.618 71.514 138.355 66.1804C140.51 59.5673 136.793 50.9743 133.237 44.8596C133.385 44.6441 133.52 44.4151 133.655 44.1861C134.234 43.1221 134.207 42.0446 133.574 41.3712C132.968 40.7382 131.958 40.6035 130.773 40.9402C129.816 39.5125 129.022 38.462 128.618 37.9232C129.318 37.5865 129.83 37.1959 130.193 36.8054C131.217 35.7413 131.365 34.5561 131.284 34.0308C131.23 33.6941 131.028 32.8456 130.14 32.2126C129.426 31.7008 128.496 31.4718 127.352 31.5122C127.675 31.1351 127.971 30.6367 128.052 30.0576C128.173 29.2225 127.836 28.4009 127.069 27.6063C125.668 26.1652 121.654 24.8587 117.29 24.4277C115.566 24.2526 113.842 24.2257 112.172 24.32C111.661 23.6331 109.6 21.0336 105.829 18.6631C101.896 16.1714 95.2827 13.4912 86.178 14.8919C83.6728 15.2825 81.3562 15.9829 79.2551 17.0065C77.5042 12.3868 71.8878 8.48087 65.7461 7.67275C62.6483 7.2687 59.5775 7.65929 56.8568 8.81759C53.7456 10.1375 51.1057 12.4002 49.0181 15.5384C47.0517 18.488 45.9876 21.9091 45.9607 25.3974C45.9203 28.805 46.8631 32.0779 48.6679 34.8389C50.4592 37.5731 53.0317 39.6742 56.1295 40.9133C58.3384 41.7887 60.7627 42.2332 63.3621 42.2332C64.6821 42.2332 66.0289 42.1255 67.4431 41.8965C68.0627 46.395 69.7059 50.4356 72.3726 53.9105C74.999 57.345 78.0295 59.4595 80.1306 60.6448C87.8346 64.6584 94.9864 65.0086 97.2492 65.0086C97.6398 65.0086 97.8822 64.9951 97.963 64.9951C99.0001 66.1939 99.9833 67.1905 100.845 67.9717C103.431 70.3422 105.438 71.4062 105.896 71.6352L109.788 85.3462C108.091 85.5483 102.098 86.3833 93.4375 88.7134C83.9691 91.2589 69.2479 96.1885 52.9374 105.185C42.8494 110.748 34.8895 117.294 29.3 124.634C24.2897 131.207 21.3805 138.264 20.8821 145.026C20.5589 149.309 21.2054 153.336 22.7812 156.999C24.357 160.649 26.7814 163.747 30.0004 166.198C33.6639 169 40.4655 171.451 50.2033 173.485C57.9612 175.101 67.5913 176.475 78.851 177.552C83.7536 178.024 88.5484 178.401 92.9796 178.684C92.9661 179.101 92.9661 179.519 92.9661 179.95C91.5789 180.731 90.6091 181.431 90.0973 182.024C89.6394 182.549 89.5047 182.994 89.7202 183.357C89.8549 183.586 90.2051 183.869 91.1613 183.869C91.4038 183.869 91.6866 183.856 92.0099 183.802C91.4442 184.273 91.0536 184.745 90.9728 185.189C90.892 185.566 91.0132 185.916 91.3095 186.186C91.5385 186.401 91.9291 186.59 92.7237 186.59C92.7506 186.59 92.7776 186.59 92.8045 186.59C92.5351 195.169 91.1209 215.035 90.1108 224.423C90.0973 224.639 90.259 224.841 90.4745 224.868C90.4879 224.868 90.5014 224.868 90.5149 224.868C90.7169 224.868 90.892 224.719 90.9054 224.504C91.9425 214.887 93.3298 195.21 93.6126 186.522C95.2693 186.32 98.0573 185.553 102.906 183.681C104.697 182.994 106.462 182.266 107.97 181.62C103.808 184.448 103.633 184.893 103.539 185.108C103.364 185.553 103.337 186.186 103.808 186.603C104.118 186.886 104.576 187.021 105.196 187.021C107.081 187.021 110.408 185.755 115.27 183.196C121.142 180.125 122.193 176.556 122.045 174.104C121.762 169.673 117.237 165.282 110.246 162.669C107.93 161.767 105.559 160.932 103.041 160.057C99.9564 158.979 96.7374 157.848 93.3702 156.501C93.1682 152.608 93.02 150.413 92.9796 149.807C93.0604 149.78 93.1547 149.753 93.2355 149.726C94.8518 149.201 96.5219 148.676 98.3132 148.123C98.4209 148.083 98.5017 148.002 98.5556 147.908C98.6095 147.814 98.6095 147.692 98.5691 147.585C97.8957 145.874 96.4815 144.446 94.7844 143.76C94.0167 143.45 93.2086 143.288 92.4274 143.127C91.7405 142.978 91.094 142.857 90.461 142.628C88.8986 142.063 87.5248 140.931 86.1914 139.827C84.4809 138.399 82.7031 136.931 80.4269 136.635C79.0531 136.46 77.7062 136.742 76.4132 137.052V137.039C73.2616 123.664 68.1166 115.26 64.3454 110.546C61.1533 106.546 58.4192 104.499 57.3147 103.758C69.9348 97.1986 81.3697 93.0772 89.828 90.572C90.8516 92.9695 94.542 100.902 101.505 107.623C105.478 111.462 109.896 114.317 114.61 116.082C118.516 117.536 122.651 118.277 126.974 118.277C129.022 118.277 131.096 118.102 133.21 117.792C142.558 116.337 149.009 112.566 152.349 106.6C155.326 101.307 155.232 95.2456 154.639 91.0838C154.141 87.6628 153.265 84.996 152.848 83.8647C154.343 83.959 155.905 84.0667 157.521 84.2014C167.865 85.0499 182.061 87.0298 195.489 91.5418C196.122 92.7136 198.089 96.7137 199.112 102.721C199.84 106.923 199.974 111.273 199.503 115.637C198.91 121.105 197.388 126.614 194.964 132.015C194.695 132.621 194.412 133.214 194.115 133.82C187.448 131.086 182.169 124.688 181.118 123.355C179.448 119.597 177.657 115.799 175.744 111.947C175.65 111.758 175.408 111.677 175.205 111.772C175.017 111.866 174.936 112.108 175.03 112.31C176.876 116.014 178.6 119.664 180.216 123.287C180.202 123.355 180.216 123.435 180.243 123.503L182.829 129.335C186.721 138.642 189.886 147.773 192.418 156.905C197.9 176.717 200.19 196.314 199.22 215.143C199.207 215.372 199.368 215.561 199.597 215.574C199.611 215.574 199.611 215.574 199.624 215.574C199.84 215.574 200.015 215.413 200.015 215.17C200.621 203.52 199.974 191.573 198.102 179.465C198.196 179.465 198.291 179.424 198.345 179.384C198.52 179.209 215.45 161.686 225.053 148.083C227.639 144.406 229.471 140.015 230.346 135.382C231.275 130.372 231.06 125.173 229.726 120.324ZM95.1211 178.832C94.7171 179.02 94.2591 179.249 93.7877 179.505C93.7877 179.249 93.8012 178.993 93.8012 178.738C94.2322 178.778 94.6767 178.805 95.1211 178.832ZM92.6294 182.872C91.6866 183.061 90.663 183.101 90.4206 182.953C90.434 182.899 90.5014 182.765 90.6899 182.549C91.1479 182.024 92.0772 181.377 93.3702 180.637C93.5049 180.637 93.6261 180.556 93.6934 180.462C95.2289 179.626 96.7104 178.98 96.7239 178.967C96.7374 178.967 96.7508 178.953 96.7643 178.94C98.3132 179.034 99.7947 179.115 101.209 179.195C100.131 179.626 98.6364 180.233 97.1414 180.919C95.8215 181.526 94.2726 182.28 93.047 183.074C92.9661 182.913 92.8045 182.845 92.6294 182.872ZM102.61 182.94C93.7069 186.401 92.1176 185.862 91.8483 185.607C91.7405 185.499 91.7405 185.431 91.754 185.364C91.9695 184.26 96.1851 182.239 97.4781 181.647C100.266 180.367 103.054 179.344 103.081 179.33C103.121 179.317 103.148 179.303 103.175 179.276C106.071 179.424 108.59 179.519 110.583 179.6C108.805 180.394 105.748 181.714 102.61 182.94ZM92.5217 156.178C89.9357 155.127 87.2824 153.928 84.5348 152.528C85.0197 152.393 85.5449 152.204 86.0298 152.016C86.3935 151.881 86.7436 151.746 87.0265 151.666C88.8447 151.14 90.4879 150.615 92.1715 150.076C92.2388 150.858 92.3601 152.864 92.5217 156.178ZM63.6989 111.071C67.4162 115.718 72.4939 124.028 75.6051 137.241V137.254C75.201 137.349 74.797 137.443 74.4064 137.51C72.3457 137.887 70.1907 137.793 68.1704 137.227C67.8876 137.146 67.6182 137.079 67.3354 136.998C66.1771 136.675 64.9649 136.352 63.8201 135.948C59.1061 134.278 55.8197 135.544 55.685 135.598C55.6716 135.598 55.6581 135.611 55.6581 135.611C55.5504 135.651 55.4695 135.732 55.4291 135.854C55.3483 136.056 55.4561 136.298 55.6716 136.365C55.8601 136.433 56.0622 136.513 56.3046 136.608C56.547 136.702 56.8433 136.837 57.1801 136.971C60.1027 138.237 65.4094 140.999 71.4568 145.416C74.797 147.854 78.0295 149.888 81.1542 151.639C81.1946 151.666 81.2485 151.693 81.2889 151.72C81.7333 152.002 82.2586 152.326 82.7839 152.514C86.1914 154.319 89.4778 155.801 92.6294 157.08C92.6968 157.188 92.818 157.255 92.9527 157.255C92.9527 157.255 92.9661 157.255 92.9796 157.255C92.9931 157.255 93.02 157.255 93.0335 157.255C96.4141 158.615 99.6466 159.747 102.744 160.824C105.25 161.7 107.62 162.521 109.937 163.424C116.63 165.929 120.954 170.05 121.21 174.158C121.412 177.323 119.216 180.206 114.88 182.482C106.381 186.926 104.657 186.293 104.32 185.997C104.105 185.809 104.226 185.472 104.253 185.418C104.549 184.879 108.549 182.105 112.334 179.694C112.361 179.68 112.388 179.667 112.401 179.667C114.408 179.734 115.566 179.761 115.607 179.761C115.836 179.761 116.011 179.586 116.011 179.357C116.024 179.128 115.849 178.94 115.62 178.94C115.445 178.94 98.0438 178.589 78.9184 176.758C61.3014 175.074 38.6068 171.774 30.4718 165.565C27.374 163.195 25.0305 160.218 23.5085 156.689C21.9866 153.147 21.367 149.255 21.6768 145.093C22.0404 140.083 23.7779 134.911 26.7275 129.887C37.4485 125.806 48.2504 128.055 47.7655 122.654C47.3884 118.681 40.1288 120.674 33.1925 121.24C38.4048 115.543 45.1526 110.398 53.328 105.899C54.3786 105.32 55.4291 104.754 56.4662 104.216C57.0588 104.566 60.0893 106.559 63.6989 111.071ZM110.381 86.1005C110.61 86.0735 110.772 85.885 110.745 85.656C110.731 85.6021 110.718 85.5482 110.691 85.4944L100.818 50.6376C100.764 50.4625 100.603 50.3413 100.414 50.3413C100.239 50.3413 100.078 50.476 100.037 50.6511C99.7813 51.7959 99.1752 53.1832 97.7475 53.2775C95.7003 53.4121 92.9392 50.9609 91.8483 48.0112C90.6899 44.9135 91.3634 42.5699 92.5351 41.6136C93.4241 40.8863 94.5958 40.9133 95.8215 41.6945C98.1785 43.1895 99.1886 47.028 99.3772 47.8227C99.3637 47.8631 99.3637 47.9035 99.3772 47.9439C99.4176 48.321 99.6331 48.7789 100.091 48.8598C100.63 48.954 101.397 48.6173 103.041 45.3849C104.859 41.8157 105.681 36.8054 105.909 35.1891C107.633 35.8491 113.735 37.9906 121.291 38.7314C124.308 39.0277 126.395 38.7448 127.85 38.2465C128.173 38.664 128.968 39.7146 129.991 41.2231C129.897 41.2635 129.803 41.3039 129.709 41.3577C127.432 42.4622 124.173 40.8325 124.146 40.819C123.957 40.7113 123.715 40.7921 123.607 40.9941C123.499 41.1827 123.58 41.4251 123.782 41.5328C123.93 41.6002 127.432 43.3511 130.072 42.0716C131.608 41.3308 132.591 41.5059 132.995 41.9369C133.385 42.3544 133.372 43.0683 132.954 43.809C132.591 44.469 132.119 45.0616 131.661 45.6273C130.732 46.7856 129.762 47.9978 129.762 49.7083C129.762 49.9372 129.937 50.1123 130.166 50.1123C130.395 50.1123 130.571 49.9238 130.557 49.7083C130.557 48.2671 131.392 47.2301 132.281 46.1256C132.429 45.9505 132.564 45.7754 132.712 45.5869C135.123 49.7891 136.564 53.3179 137.359 56.2675C133.345 54.7186 128.631 54.8398 125.291 55.2439C121.479 55.7018 118.583 56.6042 118.557 56.6177C118.341 56.685 118.22 56.914 118.287 57.1295C118.341 57.3046 118.503 57.4123 118.678 57.4123C118.718 57.4123 118.759 57.4123 118.799 57.3989C118.826 57.3854 121.654 56.4965 125.399 56.052C128.806 55.6479 133.655 55.5267 137.601 57.2372C138.504 61.1701 138.207 63.9985 137.588 65.938C136.133 70.423 133.305 73.1437 129.21 74.0326C126.126 74.6926 123.419 74.0326 123.392 74.0191C123.176 73.9652 122.961 74.0999 122.907 74.3154C122.88 74.4366 122.907 74.5444 122.961 74.6252C122.988 74.6656 123.015 74.706 123.055 74.7464L132.443 81.8848C132.497 81.9252 132.55 81.9521 132.604 81.9521L134.975 87.4743C135.042 87.6224 135.19 87.7167 135.352 87.7167C135.406 87.7167 135.46 87.7032 135.5 87.6898C135.702 87.6089 135.81 87.3665 135.716 87.1645L134.18 83.5818C135.379 83.5414 138.625 83.4337 143.271 83.501C143.298 84.8344 143.231 88.4036 141.925 92.1748C140.955 94.9493 139.541 97.2794 137.682 99.0977C135.365 101.36 132.362 102.855 128.752 103.515C125.277 104.148 121.695 103.704 118.112 102.182C115.23 100.956 112.334 99.0438 109.519 96.4848C105.317 92.6731 102.515 88.5518 101.842 87.5147C107.202 86.4102 110.341 86.1005 110.381 86.1005ZM151.635 106.223C148.416 111.974 142.18 115.597 133.076 117.011C126.611 118.008 120.496 117.442 114.88 115.341C110.26 113.603 105.936 110.815 102.044 107.058C95.2558 100.512 91.6328 92.8213 90.5822 90.3565C91.6462 90.0468 92.6698 89.7639 93.6396 89.4946C96.3872 88.7538 98.8519 88.1746 101.007 87.7032C101.074 87.811 104.091 92.6462 108.967 97.0774C111.849 99.7038 114.826 101.67 117.789 102.936C120.415 104.054 123.055 104.62 125.654 104.62C126.745 104.62 127.823 104.512 128.9 104.364C132.672 103.664 135.81 102.101 138.248 99.7172C140.187 97.8047 141.682 95.3669 142.679 92.4711C144.026 88.5652 144.106 84.9422 144.08 83.528C146.41 83.5684 149.063 83.6627 151.959 83.8243C152.632 85.6021 156.713 97.1717 151.635 106.223ZM193.159 156.689C191.556 150.925 189.711 145.174 187.597 139.369L202.385 143.18L193.913 159.504C193.671 158.562 193.415 157.632 193.159 156.689ZM229.538 135.234C228.689 139.759 226.898 144.042 224.379 147.612C215.355 160.393 199.826 176.65 197.94 178.603C196.957 172.448 195.664 166.239 194.048 160.016C194.062 160.03 194.075 160.03 194.088 160.043C194.156 160.07 194.21 160.084 194.277 160.084C194.425 160.084 194.573 160.003 194.627 159.868L204.244 141.335L208.81 132.661C208.85 132.594 208.864 132.513 208.864 132.446L209.443 131.315C209.537 131.126 209.47 130.884 209.268 130.776C209.079 130.682 208.837 130.749 208.729 130.951L208.042 132.271C204.998 134.547 201.658 135.463 198.102 134.951C196.998 134.789 195.907 134.507 194.856 134.13C195.139 133.537 195.422 132.944 195.678 132.352C198.143 126.856 199.691 121.254 200.284 115.704C200.755 111.26 200.621 106.842 199.88 102.559C198.978 97.3602 197.429 93.6833 196.567 91.9324C199.112 92.8213 201.617 93.8045 204.069 94.882C211.476 98.1683 216.797 102.074 220.595 106.074C215.086 104.243 210.183 102.344 209.214 105.563C207.705 110.586 217.995 110.708 227.45 116.284C228.097 117.779 228.595 119.206 228.959 120.54C230.265 125.254 230.467 130.345 229.538 135.234Z" fill="#1A1A1A"/>
<path d="M77.9091 148.689C77.7071 148.689 77.532 148.541 77.505 148.325C77.2491 146.076 76.1312 139.665 75.7137 137.914C75.6598 137.699 75.7945 137.483 76.01 137.429C76.2255 137.375 76.441 137.51 76.4949 137.726C76.9259 139.544 78.0303 145.915 78.2997 148.231C78.3266 148.447 78.165 148.649 77.9495 148.676C77.9495 148.689 77.9226 148.689 77.9091 148.689Z" fill="white"/>
<path d="M168.459 133.604C167.436 133.604 166.412 133.537 165.389 133.416C164.311 133.281 162.803 132.958 162.129 131.759C161.483 130.601 161.927 129.389 162.358 128.217C162.614 127.503 162.897 126.749 162.883 126.062C162.883 124.297 161.025 122.951 159.301 122.802C157.415 122.641 155.583 123.435 153.859 124.27C151.031 125.644 148.256 127.193 145.59 128.863C143.771 130.008 141.455 131.166 139.65 129.9C137.751 128.567 138.168 125.644 139.529 123.557C142.667 118.762 148.27 116.405 153.267 114.56C153.55 114.452 153.846 114.344 154.142 114.236C158.991 112.459 164.001 110.627 167.422 106.869C167.57 106.707 167.826 106.694 167.988 106.842C168.15 106.99 168.163 107.246 168.015 107.408C164.459 111.314 159.355 113.172 154.412 114.991C154.115 115.098 153.832 115.206 153.55 115.314C148.661 117.105 143.206 119.408 140.202 124.001C139.219 125.51 138.532 128.123 140.121 129.24C141.536 130.237 143.556 129.2 145.159 128.19C147.839 126.493 150.654 124.93 153.509 123.543C155.247 122.695 157.28 121.806 159.368 121.994C161.442 122.183 163.691 123.786 163.691 126.062C163.691 126.897 163.395 127.718 163.112 128.5C162.708 129.591 162.372 130.547 162.829 131.382C163.328 132.271 164.58 132.527 165.483 132.635C168.527 133.012 171.705 132.796 174.668 132.015C174.884 131.961 175.099 132.082 175.167 132.298C175.221 132.513 175.099 132.729 174.884 132.796C172.81 133.321 170.628 133.604 168.459 133.604Z" fill="#F4B512"/>
<path d="M184.377 169.889C184.04 169.889 183.69 169.862 183.326 169.808C181.292 169.498 179.299 168.407 177.063 166.387C176.902 166.239 176.888 165.983 177.036 165.821C177.185 165.66 177.44 165.646 177.602 165.794C179.717 167.707 181.562 168.73 183.434 169.013C186.101 169.417 188.202 168.043 188.916 166.481C189.252 165.74 189.279 164.959 188.97 164.42C188.7 163.936 188.175 163.558 187.313 163.235C185.966 162.737 184.498 162.508 183.07 162.292C181.723 162.09 180.323 161.875 178.989 161.417C177.535 160.919 176.161 159.976 175.259 158.844C174.208 157.538 173.831 156.043 174.181 154.669C174.397 153.821 174.881 153.08 175.312 152.46C176.632 150.521 178.168 148.729 179.851 147.1C180.013 146.952 180.269 146.952 180.417 147.113C180.565 147.275 180.565 147.531 180.404 147.679C178.747 149.268 177.265 151.019 175.972 152.905C175.582 153.47 175.151 154.144 174.962 154.871C174.329 157.336 176.686 159.787 179.245 160.663C180.511 161.094 181.872 161.296 183.178 161.498C184.646 161.727 186.155 161.956 187.582 162.481C188.242 162.737 189.185 163.168 189.67 164.03C190.101 164.798 190.088 165.848 189.643 166.818C188.929 168.434 186.936 169.889 184.377 169.889Z" fill="#F4B512"/>
<path d="M186.466 107.852C186.412 107.852 186.372 107.852 186.318 107.852C183.759 107.798 181.334 106.748 179.179 105.805C178.977 105.711 178.883 105.482 178.977 105.28C179.072 105.078 179.301 104.983 179.516 105.078C181.59 105.98 183.947 107.017 186.345 107.058C188.473 107.098 191.059 106.155 192.015 103.973C193.173 101.347 191.22 98.1414 188.756 96.9292C185.981 95.5554 182.614 95.8787 179.987 96.3096C179.408 96.4039 178.816 96.5117 178.237 96.6194C175.799 97.0639 173.28 97.5218 170.775 97.2524C168.27 96.9831 166.465 95.7978 165.926 94.1143C165.387 92.4172 166.29 90.3835 168.027 89.3868C169.778 88.3766 171.812 88.5248 173.226 88.8211C173.442 88.8615 173.59 89.077 173.536 89.306C173.496 89.5215 173.28 89.6696 173.051 89.6158C171.785 89.3464 169.953 89.2117 168.431 90.0872C167.219 90.7875 166.236 92.4038 166.694 93.8718C167.206 95.5015 169.186 96.2692 170.869 96.4578C173.267 96.7272 175.718 96.2692 178.102 95.8382C178.681 95.7305 179.274 95.6228 179.866 95.5285C182.614 95.0705 186.143 94.7473 189.119 96.2288C191.961 97.643 194.103 101.239 192.756 104.323C191.665 106.761 188.836 107.852 186.466 107.852Z" fill="#F4B512"/>
<path d="M55.6851 14.3531C55.5639 14.3531 55.4427 14.2993 55.3618 14.1915C55.2272 14.0164 55.2676 13.7605 55.4427 13.6258C61.2072 9.36975 67.5509 11.7268 67.8203 11.821C68.0223 11.9019 68.1301 12.1308 68.0493 12.3463C67.9685 12.5483 67.7395 12.6561 67.524 12.5753C67.4567 12.5483 61.3284 10.2856 55.9275 14.2723C55.8602 14.3262 55.7794 14.3531 55.6851 14.3531Z" fill="white"/>
<path d="M219.869 98.3973C219.774 98.3973 219.68 98.3569 219.599 98.2895C209.646 89.2925 197.538 84.2956 189.133 81.6962C180.015 78.8678 173.173 78.154 173.106 78.154C172.89 78.127 172.715 77.9385 172.742 77.7095C172.769 77.494 172.971 77.3324 173.186 77.3458C173.254 77.3593 180.163 78.0732 189.349 80.915C197.834 83.5414 210.064 88.5921 220.138 97.6834C220.3 97.8316 220.313 98.0875 220.165 98.2491C220.098 98.3569 219.976 98.3973 219.869 98.3973Z" fill="#1A1A1A"/>
<path d="M30.8905 110.142C30.7962 110.142 30.6885 110.102 30.6077 110.034C30.446 109.886 30.4326 109.63 30.5942 109.468C41.598 97.7373 54.4875 93.1849 54.6087 93.1445C54.8242 93.0772 55.0532 93.1849 55.1205 93.4004C55.1879 93.6159 55.0801 93.8449 54.8646 93.9122C54.7434 93.9527 42.0425 98.4377 31.1733 110.021C31.106 110.102 30.9982 110.142 30.8905 110.142Z" fill="#1A1A1A"/>
<path d="M97.9757 64.9951C97.9218 64.9951 97.868 64.9816 97.8141 64.9682C97.6121 64.8874 92.8172 62.7324 89.5578 53.7757C86.1233 44.3477 88.9652 35.5258 97.3292 29.5861C105.033 24.1179 111.714 24.3199 111.997 24.3199C112.226 24.3334 112.387 24.5219 112.387 24.7374C112.374 24.9664 112.199 25.128 111.97 25.128C111.902 25.128 105.276 24.9395 97.8141 30.2326C93.9755 32.9533 91.2549 36.4147 89.9215 40.2398C88.4938 44.3477 88.6285 48.8058 90.3255 53.4929C91.9552 57.9914 94.0025 60.6582 95.4301 62.1128C96.9656 63.6886 98.1373 64.2005 98.1508 64.2139C98.3528 64.3082 98.4471 64.5372 98.3663 64.7392C98.2855 64.9143 98.1373 64.9951 97.9757 64.9951Z" fill="white"/>
<path d="M67.8081 41.8291C67.6061 41.8291 67.431 41.6809 67.404 41.4789C66.7306 35.8356 67.7003 30.2596 70.1247 25.788C72.2258 21.909 75.2832 18.9729 79.2025 17.0469C79.4046 16.9526 79.647 17.0334 79.7413 17.2354C79.8356 17.4375 79.7548 17.6799 79.5527 17.7742C75.7815 19.6194 72.8453 22.4478 70.8251 26.1786C68.4815 30.502 67.5522 35.9029 68.1987 41.3846C68.2256 41.6001 68.064 41.8022 67.8485 41.8291C67.8485 41.8291 67.8216 41.8291 67.8081 41.8291Z" fill="white"/>
<path d="M166.089 197.755C166.089 197.755 161.509 195.964 159.179 196.139C156.849 196.314 157.293 197.041 158.681 198.429C160.068 199.816 168.015 203.681 168.015 203.681L168.607 202.779L166.089 197.755Z" fill="white"/>
<path d="M200.876 217.595C198.061 210.281 197.523 206.052 186.465 198.563L186.559 198.469C186.559 198.469 176.39 191.64 173.885 191.061C173.885 191.061 173.144 191.627 173.131 192.812C173.091 193.822 173.575 195.264 175.515 197.082C175.569 197.136 175.636 197.203 175.69 197.257C180.067 201.5 182.29 202.914 182.29 202.914L191.044 220.625L179.232 223.844C179.232 223.844 181.347 229.918 182.626 231.063L181.212 245.811C181.212 245.811 186.465 249.583 193.671 249.852C200.876 250.121 203.476 245.879 203.476 245.879C203.476 245.879 204.513 227.023 200.876 217.595Z" fill="white"/>
<path d="M191.584 222.713L181.792 202.375C181.792 202.375 175.812 197.89 173.846 194.846C173.55 194.375 172.714 191.775 173.711 191.344C174.452 191.021 177.051 192.812 177.051 192.812L174.883 188.435C174.883 188.435 173.334 183.586 169.9 182.846C166.465 182.105 163.771 183.452 162.559 185.741C161.347 188.031 161.886 188.974 163.233 191.869C164.579 194.765 178.722 223.79 178.722 223.79L181.079 228.773C181.079 228.773 182.829 232.289 187.005 232.181C191.18 232.073 192.796 229.11 192.998 228.369C193.2 227.629 193.604 224.194 191.584 222.713Z" fill="#F4B512"/>
<path d="M176.929 220.854C176.929 220.854 178.29 217.285 178.384 215.049C178.478 212.8 178.451 211.453 177.886 211.587C177.32 211.722 174.343 213.567 174.209 218.591C174.074 223.615 175.919 224.342 176.997 224.517C178.074 224.692 178.64 224.396 178.64 224.396L176.929 220.854Z" fill="white"/>
<path d="M174.802 215.089C174.802 215.089 176.014 209.123 175.704 207.143C175.395 205.163 174.533 205.217 173.724 205.527C172.916 205.836 170.492 209.163 170.398 212.975C170.303 216.786 172.014 216.921 172.728 217.056C173.455 217.19 174.802 215.089 174.802 215.089Z" fill="white"/>
<path d="M170.614 211.224C170.614 211.224 172.15 205.338 172.244 203.722C172.338 202.106 172.419 198.967 171.341 199.008C170.264 199.048 168.015 203.224 167.341 205.473C166.668 207.722 166.331 210.106 170.614 211.224Z" fill="white"/>
<path d="M198.183 209.837C196.365 206.685 192.365 201.755 183.718 196.112C181.28 194.523 179.004 193.23 177.266 192.3L176.068 189.795C177.792 187.721 178.694 185.27 178.694 182.67C178.694 180.919 178.29 179.236 177.468 177.66C177.468 177.647 177.455 177.62 177.441 177.606L168.552 160.784C168.539 160.757 168.512 160.73 168.498 160.703C165.939 155.262 161.333 152.272 155.501 152.272C147.986 152.272 141.857 157.7 141.857 164.353C141.857 165.889 142.181 167.384 142.814 168.798C142.814 168.865 142.827 168.919 142.854 168.973L152.457 187.317C152.457 187.331 152.471 187.331 152.471 187.344C154.437 191.492 158.962 194.375 164.027 194.711L165.104 196.893C164.471 196.691 163.501 196.408 162.464 196.152C159.986 195.546 158.397 195.452 157.616 195.843C157.252 196.018 157.104 196.287 157.036 196.476C157.023 196.476 157.023 196.489 157.023 196.503C156.848 197.257 157.212 198.577 162.316 201.365C164.485 202.55 166.72 203.56 167.528 203.924C166.922 205.419 166.491 206.941 166.532 208.005C166.572 209.217 167.299 210.241 168.619 210.941C169.199 211.251 169.764 211.426 170.141 211.52C169.603 214.187 169.953 215.426 171.583 217.069C171.946 217.433 172.377 217.621 172.835 217.621C173.051 217.621 173.266 217.581 173.468 217.487C173.616 217.433 173.764 217.352 173.899 217.258C173.657 218.578 173.603 220.073 173.899 221.716C174.142 223.049 174.721 223.992 175.623 224.531C176.243 224.908 176.93 225.016 177.509 225.016C178.169 225.016 178.694 224.881 178.869 224.827L180.526 228.194C180.553 228.248 180.593 228.289 180.633 228.329C180.943 229.299 181.536 230.161 182.304 230.861L181.105 244.505C181.078 244.72 181.239 244.922 181.468 244.936C181.482 244.936 181.495 244.936 181.509 244.936C181.711 244.936 181.886 244.788 181.899 244.572L183.044 231.44C184.149 232.168 185.509 232.599 186.991 232.599C190.654 232.599 193.617 229.945 193.617 226.713C193.617 225.716 193.334 224.787 192.849 223.965C192.863 223.898 192.849 223.817 192.809 223.736L182.815 203.587C183.475 204.045 183.92 204.328 184.001 204.368C184.176 204.49 184.432 204.436 184.553 204.247C184.674 204.072 184.62 203.816 184.432 203.695C184.405 203.668 181.697 201.931 179.004 199.708C175.502 196.826 173.589 194.442 173.495 192.826C173.455 192.327 173.616 191.91 173.953 191.546C176.094 192.57 191.664 200.274 197.456 210.254C203.395 220.477 203.234 232.343 203.099 241.878C203.072 243.279 203.059 244.599 203.059 245.879C203.059 246.108 203.234 246.283 203.463 246.283C203.678 246.283 203.867 246.108 203.88 245.865C203.88 244.586 203.907 243.266 203.921 241.878C204.069 232.248 204.23 220.248 198.183 209.837ZM162.72 200.678C161.158 199.829 159.946 199.062 159.111 198.388C157.871 197.405 157.791 196.907 157.818 196.718C157.831 196.678 157.871 196.624 157.979 196.57C159.084 196.018 163.218 197.082 165.562 197.89C165.576 197.89 165.589 197.89 165.602 197.903L168.013 202.806C167.959 202.927 167.892 203.062 167.838 203.183C167.017 202.819 164.835 201.836 162.72 200.678ZM167.326 207.964C167.246 205.446 170.02 200.207 171.044 199.574C171.165 199.506 171.259 199.479 171.313 199.479C171.367 199.479 171.407 199.506 171.407 199.506C171.933 199.883 172.229 202.469 171.192 206.806C170.774 208.503 170.492 209.729 170.33 210.456C170.316 210.564 170.29 210.645 170.276 210.726C169.414 210.483 167.394 209.742 167.326 207.964ZM173.172 216.746C172.808 216.894 172.444 216.8 172.148 216.504C170.761 215.103 170.397 214.16 171.003 211.318C171.044 211.183 171.475 209.688 172.148 208.274C172.997 206.456 173.872 205.54 174.573 205.661C175.839 205.877 175.327 209.055 174.95 211.372C174.788 212.342 174.64 213.271 174.599 213.985C174.519 215.547 173.818 216.49 173.172 216.746ZM176.041 223.83C175.354 223.426 174.896 222.659 174.707 221.568C174.02 217.729 175.381 214.47 176.754 212.854C177.361 212.126 177.765 211.978 177.818 211.978C178.088 212.126 178.303 213.85 177.589 217.339C176.983 220.261 176.458 221.258 176.458 221.271C176.35 221.473 176.418 221.716 176.62 221.824C176.822 221.931 177.064 221.864 177.172 221.662C177.172 221.649 177.199 221.608 177.239 221.527L178.505 224.086C178.088 224.194 176.956 224.383 176.041 223.83ZM187.004 231.777C185.482 231.777 184.081 231.265 183.044 230.417C183.017 230.376 182.977 230.349 182.923 230.322C181.846 229.406 181.186 228.127 181.186 226.713C181.186 223.911 183.799 221.635 187.004 221.635C190.223 221.635 192.822 223.911 192.822 226.713C192.822 229.514 190.21 231.777 187.004 231.777ZM173.643 190.738C172.97 191.304 172.66 192.018 172.714 192.866C172.902 195.95 178.169 200.22 181.442 202.604L191.112 222.106C189.981 221.312 188.553 220.827 186.991 220.827C183.57 220.827 180.741 223.144 180.404 226.107L177.63 220.463C177.845 219.817 178.101 218.861 178.384 217.514C178.68 216.099 179.273 212.692 178.532 211.587C178.344 211.318 178.128 211.224 177.967 211.197C177.455 211.103 176.876 211.561 176.485 211.951C176.175 212.261 175.825 212.692 175.488 213.217C175.556 212.692 175.65 212.099 175.744 211.48C176.229 208.544 176.768 205.203 174.721 204.84C173.684 204.651 172.781 205.554 172.054 206.712C172.822 203.372 173.064 199.708 171.892 198.86C171.69 198.698 171.246 198.509 170.626 198.887C170.074 199.237 169.239 200.422 168.485 201.877L164.727 194.253C164.727 194.213 164.714 194.159 164.687 194.119L162.451 189.58C162.41 189.459 162.208 188.799 162.195 187.95C162.289 185.216 164.862 183.021 168.013 183.021C169.401 183.021 170.734 183.465 171.758 184.219C172.337 184.704 172.862 185.324 173.347 186.078C173.387 186.159 173.428 186.226 173.455 186.307C173.482 186.374 173.522 186.415 173.562 186.455L176.068 191.667C174.842 191.034 174.088 190.684 174.074 190.671C173.926 190.617 173.764 190.644 173.643 190.738Z" fill="#1A1A1A"/>
<path d="M49.0705 202.779L49.6631 203.681C49.6631 203.681 57.6096 199.816 58.9969 198.429C60.3841 197.041 60.8286 196.314 58.4985 196.139C56.1684 195.964 51.5891 197.755 51.5891 197.755L49.0705 202.779Z" fill="white"/>
<path d="M16.8008 217.595C19.6157 210.281 20.1545 206.052 31.2122 198.563L31.1179 198.469C31.1179 198.469 41.2867 191.64 43.7919 191.061C43.7919 191.061 44.5326 191.627 44.5461 192.812C44.5865 193.822 44.1016 195.264 42.1622 197.082C42.1083 197.136 42.0409 197.203 41.9871 197.257C37.6098 201.5 35.3874 202.914 35.3874 202.914L26.6329 220.625L38.4448 223.844C38.4448 223.844 36.3303 229.918 35.0507 231.063L36.4649 245.811C36.4649 245.811 31.2122 249.583 24.0065 249.852C16.8008 250.121 14.2013 245.879 14.2013 245.879C14.2013 245.879 13.1642 227.023 16.8008 217.595Z" fill="white"/>
<path d="M24.6786 228.369C24.8807 229.11 26.4969 232.073 30.6722 232.181C34.8475 232.289 36.5984 228.773 36.5984 228.773L38.9554 223.79C38.9554 223.79 53.0974 194.765 54.4443 191.869C55.7911 188.974 56.3299 188.031 55.1177 185.741C53.9055 183.452 51.2118 182.105 47.7773 182.846C44.3428 183.586 42.7939 188.435 42.7939 188.435L40.6255 192.812C40.6255 192.812 43.2384 191.021 43.9657 191.344C44.9624 191.775 44.1273 194.375 43.831 194.846C41.8511 197.903 35.8845 202.375 35.8845 202.375L26.0929 222.713C24.0726 224.194 24.4766 227.629 24.6786 228.369Z" fill="#F4B512"/>
<path d="M39.0366 224.396C39.0366 224.396 39.6023 224.692 40.6798 224.517C41.7573 224.342 43.6025 223.615 43.4678 218.591C43.3331 213.567 40.3565 211.722 39.7909 211.587C39.2252 211.453 39.1982 212.8 39.2925 215.049C39.3868 217.285 40.7471 220.854 40.7471 220.854L39.0366 224.396Z" fill="white"/>
<path d="M44.9506 217.056C45.6644 216.921 47.3749 216.786 47.2806 212.975C47.1864 209.163 44.762 205.836 43.9539 205.527C43.1458 205.217 42.2838 205.163 41.974 207.143C41.6642 209.123 42.8764 215.089 42.8764 215.089C42.8764 215.089 44.2233 217.19 44.9506 217.056Z" fill="white"/>
<path d="M50.3359 205.473C49.6625 203.224 47.4133 199.048 46.3358 199.008C45.2583 198.967 45.3391 202.106 45.4334 203.722C45.5276 205.338 47.0631 211.224 47.0631 211.224C51.3461 210.106 51.0094 207.722 50.3359 205.473Z" fill="white"/>
<path d="M13.7437 241.878C13.7572 243.266 13.7841 244.586 13.7841 245.865C13.7976 246.108 13.9861 246.283 14.2016 246.283C14.4306 246.283 14.6057 246.108 14.6057 245.879C14.6057 244.599 14.5922 243.279 14.5653 241.878C14.4306 232.343 14.269 220.477 20.2086 210.254C26.0001 200.274 41.5698 192.57 43.7114 191.546C44.0481 191.91 44.2097 192.327 44.1693 192.826C44.075 194.442 42.1625 196.826 38.6606 199.708C35.9669 201.931 33.2597 203.668 33.2328 203.695C33.0442 203.816 32.9903 204.072 33.1116 204.247C33.2328 204.436 33.4887 204.49 33.6638 204.368C33.7446 204.314 34.189 204.032 34.849 203.587L24.8553 223.736C24.8149 223.804 24.8149 223.884 24.8149 223.965C24.3166 224.787 24.0472 225.73 24.0472 226.713C24.0472 229.945 27.0103 232.599 30.6737 232.599C32.1553 232.599 33.5156 232.168 34.62 231.44L35.7649 244.572C35.7783 244.788 35.9534 244.936 36.1555 244.936C36.1689 244.936 36.1824 244.936 36.1959 244.936C36.4248 244.922 36.5865 244.72 36.5595 244.505L35.3608 230.861C36.142 230.161 36.7211 229.299 37.0309 228.329C37.0713 228.289 37.1117 228.248 37.1387 228.194L38.7953 224.827C38.9704 224.881 39.4957 225.016 40.1556 225.016C40.7348 225.016 41.4217 224.908 42.0412 224.531C42.9436 223.992 43.5228 223.049 43.7652 221.716C44.0615 220.073 44.0077 218.578 43.7652 217.258C43.8999 217.352 44.0481 217.433 44.1962 217.487C44.3983 217.581 44.6137 217.621 44.8292 217.621C45.2872 217.621 45.7182 217.433 46.0818 217.069C47.7115 215.44 48.0617 214.2 47.523 211.52C47.8866 211.426 48.4658 211.237 49.0449 210.941C50.3648 210.241 51.0921 209.217 51.1326 208.005C51.173 206.941 50.742 205.419 50.1359 203.924C50.944 203.56 53.1798 202.564 55.3482 201.365C60.4528 198.577 60.8165 197.257 60.6414 196.503C60.6414 196.489 60.6414 196.476 60.6279 196.476C60.5606 196.287 60.4124 196.018 60.0488 195.843C59.2676 195.452 57.6783 195.546 55.2001 196.152C54.163 196.408 53.1798 196.705 52.5602 196.893L53.6377 194.711C58.7154 194.375 63.2274 191.506 65.1938 187.344C65.1938 187.331 65.2072 187.331 65.2072 187.317L74.8104 168.973C74.8373 168.919 74.8508 168.865 74.8508 168.798C75.4838 167.384 75.807 165.889 75.807 164.353C75.807 157.7 69.6788 152.272 62.1633 152.272C56.3314 152.272 51.7252 155.262 49.1661 160.703C49.1527 160.73 49.1257 160.757 49.1123 160.784L40.223 177.606C40.2095 177.62 40.196 177.647 40.196 177.66C39.3745 179.236 38.9704 180.919 38.9704 182.67C38.9704 185.27 39.8863 187.721 41.5968 189.795L40.3981 192.3C38.6741 193.23 36.3844 194.523 33.9466 196.112C25.2998 201.755 21.2996 206.685 19.4813 209.837C13.4474 220.248 13.609 232.248 13.7437 241.878ZM49.8396 203.183C49.7857 203.062 49.7318 202.927 49.6645 202.806L52.0754 197.903C52.0888 197.903 52.1023 197.903 52.1158 197.89C54.4593 197.082 58.5942 196.018 59.6986 196.57C59.8063 196.624 59.8467 196.678 59.8602 196.718C59.8871 196.907 59.8063 197.405 58.5672 198.388C57.7322 199.062 56.52 199.829 54.9576 200.678C52.8431 201.836 50.6612 202.819 49.8396 203.183ZM47.4017 210.726C47.3883 210.645 47.3613 210.564 47.3479 210.456C47.1863 209.729 46.9034 208.503 46.4859 206.806C45.4488 202.469 45.7451 199.883 46.2704 199.506C46.2704 199.506 46.3108 199.479 46.3647 199.479C46.4185 199.479 46.5128 199.506 46.634 199.574C47.6577 200.207 50.4322 205.446 50.3514 207.964C50.284 209.742 48.2637 210.483 47.4017 210.726ZM43.0783 213.985C43.0379 213.271 42.8898 212.342 42.7281 211.372C42.351 209.055 41.8392 205.877 43.1053 205.661C43.8056 205.54 44.6811 206.456 45.5296 208.274C46.203 209.688 46.634 211.183 46.6744 211.318C47.2805 214.16 46.9169 215.103 45.5296 216.504C45.2333 216.8 44.8697 216.894 44.506 216.746C43.8595 216.49 43.1591 215.547 43.0783 213.985ZM39.1724 224.086L40.4385 221.527C40.4789 221.608 40.5058 221.662 40.5058 221.662C40.6136 221.864 40.856 221.931 41.058 221.824C41.2601 221.716 41.3274 221.473 41.2197 221.271C41.2197 221.258 40.6944 220.261 40.0883 217.339C39.3745 213.85 39.59 212.126 39.8593 211.978C39.9132 211.978 40.3173 212.126 40.9233 212.854C42.2971 214.47 43.6575 217.729 42.9706 221.568C42.782 222.659 42.3241 223.426 41.6372 223.83C40.7213 224.383 39.59 224.194 39.1724 224.086ZM24.8553 226.699C24.8553 223.898 27.4547 221.622 30.6737 221.622C33.8793 221.622 36.4922 223.898 36.4922 226.699C36.4922 228.113 35.8322 229.393 34.7547 230.309C34.7143 230.336 34.6739 230.363 34.6335 230.403C33.5964 231.252 32.1957 231.763 30.6737 231.763C27.4682 231.777 24.8553 229.501 24.8553 226.699ZM43.6036 190.684C43.5901 190.698 42.8359 191.048 41.6102 191.681L44.1154 186.469C44.1558 186.428 44.1962 186.374 44.2232 186.32C44.2501 186.24 44.2905 186.172 44.3309 186.091C44.8023 185.337 45.3411 184.731 45.9202 184.233C46.9573 183.479 48.2772 183.034 49.6645 183.034C52.8161 183.034 55.3886 185.229 55.4829 187.964C55.4694 188.812 55.2809 189.459 55.227 189.593L52.9912 194.132C52.9643 194.173 52.9643 194.226 52.9508 194.267L49.1931 201.89C48.4254 200.435 47.6038 199.25 47.0516 198.9C46.432 198.523 45.9875 198.711 45.7855 198.873C44.6137 199.722 44.8562 203.385 45.6239 206.725C44.8966 205.554 43.9942 204.665 42.9571 204.853C40.9099 205.217 41.4486 208.557 41.9335 211.493C42.0278 212.113 42.1221 212.705 42.1894 213.231C41.8527 212.705 41.5025 212.274 41.1927 211.965C40.8021 211.574 40.223 211.116 39.7112 211.21C39.5496 211.237 39.3341 211.332 39.1455 211.601C38.4047 212.705 38.9973 216.113 39.2937 217.527C39.5765 218.874 39.8324 219.83 40.0479 220.477L37.2734 226.12C36.9366 223.157 34.1082 220.84 30.6872 220.84C29.1383 220.84 27.6972 221.325 26.5658 222.12L36.2363 202.617C39.5226 200.233 44.7754 195.964 44.9639 192.88C45.0178 192.031 44.708 191.317 44.0346 190.752C43.9134 190.644 43.7518 190.617 43.6036 190.684Z" fill="#1A1A1A"/>
<path d="M100.683 206.577L94.5281 209.756L101.478 209.365" fill="#F4B512"/>
<path d="M101.479 209.365L100.684 206.577L148.511 193.109L149.306 195.897L101.479 209.365Z" fill="#F4B512"/>
<path d="M149.696 195.802L148.901 193.014C148.834 192.799 148.619 192.678 148.403 192.731L100.63 206.173C100.59 206.173 100.536 206.187 100.495 206.214L94.3402 209.392C94.1785 209.486 94.0843 209.675 94.1381 209.864C94.192 210.039 94.3536 210.16 94.5287 210.16C94.5422 210.16 94.5422 210.16 94.5422 210.173L101.492 209.769C101.505 209.769 101.532 209.769 101.546 209.756C101.559 209.756 101.573 209.756 101.586 209.756L149.413 196.301C149.521 196.274 149.602 196.206 149.656 196.112C149.71 196.018 149.723 195.91 149.696 195.802ZM142.975 197.257L142.396 195.25L146.41 194.119L146.989 196.126L142.975 197.257ZM141.615 195.466L142.194 197.472L101.748 208.853L101.182 206.847L141.615 195.466ZM100.428 207.156L100.953 208.988L96.3874 209.244L100.428 207.156ZM147.77 195.897L147.191 193.89L148.228 193.593L148.794 195.6L147.77 195.897Z" fill="#1A1A1A"/>
<path d="M137.871 246.808C137.871 246.808 134.638 227.413 134.544 222.928C134.45 218.443 137.507 213.136 139.393 210.443C141.278 207.749 142.894 205.554 142.625 203.399C142.356 201.244 140.376 196.435 140.376 196.435C140.376 196.435 137.251 195.897 138.086 202.941L134.355 208.018C134.355 208.018 132.981 204.274 133.318 202.321C133.655 200.368 134.396 189.863 134.396 186.9C134.396 183.936 133.682 177.243 132.012 177.768C130.355 178.28 129.749 187.236 129.749 187.236L128.402 198.146C128.402 198.146 127.836 192.934 125.466 193.122C123.082 193.297 120.644 198.375 119.809 200.759C119.809 200.759 119.378 196.139 118.368 195.735C117.358 195.331 115.607 195.802 113.385 201.19C113.385 201.19 112.334 197.621 111.001 197.89C109.681 198.159 106.596 204.624 106.596 204.624L109.802 203.749C109.802 203.749 109.869 212.099 111.755 217.15C113.641 222.201 116.469 223.386 116.469 223.386L113.142 245.475C113.142 245.475 115.459 249.407 125.56 249.946C135.662 250.485 137.871 246.808 137.871 246.808Z" fill="white"/>
<path d="M116.443 222.942C116.308 222.928 114.974 222.672 112.9 218.672C110.543 214.133 110.072 202.793 110.072 202.685C110.058 202.469 109.87 202.294 109.641 202.294C109.425 202.308 109.237 202.496 109.25 202.725C109.277 203.197 109.735 214.362 112.173 219.063C113.964 222.497 115.311 223.453 116.025 223.696L112.766 245.394C112.739 245.623 112.887 245.825 113.116 245.865C113.143 245.865 113.156 245.865 113.183 245.865C113.385 245.865 113.56 245.717 113.56 245.515L116.887 223.426C116.9 223.278 116.887 223.144 116.779 223.049C116.685 222.955 116.564 222.915 116.443 222.942Z" fill="#1A1A1A"/>
<path d="M140.752 196.247C140.671 196.085 140.509 195.991 140.334 196.018C137.021 196.435 137.358 199.654 137.586 201.782C137.627 202.186 137.667 202.577 137.681 202.914C137.6 203.439 136.065 205.432 134.529 207.197C134.206 206.187 133.654 204.166 133.748 202.321C133.775 201.957 133.829 201.23 133.923 200.22C134.798 190.186 135.391 179.667 133.169 177.674C132.819 177.364 132.401 177.243 131.957 177.337C130.058 177.727 129.734 181.687 129.317 186.698C129.249 187.465 129.182 188.246 129.115 189.028C128.818 192.22 128.482 194.738 128.239 196.435C127.754 194.078 126.852 192.826 125.532 192.705C124.077 192.583 122.609 193.903 121.155 196.637C120.589 197.688 120.145 198.752 119.848 199.506C119.781 199.129 119.727 198.725 119.687 198.334C119.539 197.163 119.417 196.072 118.663 195.533C118.246 195.237 117.707 195.169 117.033 195.317C115.336 195.681 114.043 198.361 113.41 199.937C112.993 198.671 112.36 197.257 110.959 197.459C109.989 197.594 108.925 198.806 107.713 201.149C106.851 202.806 106.259 204.395 106.232 204.463C106.151 204.665 106.259 204.907 106.474 204.988C106.528 205.001 106.568 205.015 106.622 205.015C106.784 205.015 106.945 204.907 106.999 204.745C106.999 204.719 107.605 203.129 108.44 201.513C109.895 198.712 110.757 198.307 111.067 198.267C111.915 198.159 112.333 199.25 112.791 200.691C113.074 201.553 113.303 202.294 113.747 202.604C114.016 202.793 114.326 202.86 114.649 202.793C115.525 202.617 116.225 201.526 116.306 201.405C116.427 201.217 116.36 200.961 116.171 200.84C115.983 200.718 115.727 200.786 115.606 200.974C115.417 201.271 114.905 201.904 114.488 201.984C114.38 202.011 114.299 201.984 114.218 201.931C114.084 201.85 113.949 201.553 113.828 201.217C113.922 200.92 114.299 199.87 114.852 198.792C115.646 197.23 116.495 196.274 117.222 196.112C117.653 196.018 117.976 196.045 118.192 196.193C118.636 196.503 118.744 197.432 118.865 198.415C119 199.641 119.161 201.028 120.077 201.85C120.441 202.186 120.805 202.348 121.168 202.348C121.263 202.348 121.37 202.335 121.451 202.321C122.044 202.16 122.542 201.553 122.933 200.476C123.013 200.26 122.906 200.031 122.69 199.951C122.475 199.87 122.246 199.978 122.165 200.193C121.896 200.961 121.559 201.432 121.263 201.513C121.101 201.553 120.885 201.459 120.643 201.244C120.495 201.109 120.374 200.961 120.266 200.772C120.414 200.341 121.007 198.658 121.896 197.015C122.596 195.695 123.956 193.526 125.344 193.526C125.37 193.526 125.411 193.526 125.451 193.526C127.62 193.715 127.862 199.574 127.768 201.621C127.754 201.85 127.93 202.038 128.158 202.052H128.172C128.387 202.052 128.576 201.877 128.603 201.661C128.616 201.594 128.657 200.57 128.576 199.223C128.603 199.183 128.616 199.143 128.63 199.089C128.63 199.062 129.357 195.371 129.936 189.108C130.004 188.327 130.071 187.546 130.138 186.778C130.462 182.859 130.825 178.414 132.118 178.158C132.307 178.118 132.468 178.172 132.617 178.307C133.25 178.872 133.99 180.973 133.869 187.735C133.788 192.287 133.357 197.217 133.101 200.166C133.007 201.176 132.94 201.917 132.926 202.294C132.792 205.042 133.937 208.045 133.99 208.167C134.044 208.301 134.165 208.395 134.3 208.422C134.435 208.449 134.583 208.395 134.677 208.288C135.553 207.318 138.408 204.059 138.502 202.981C138.502 202.968 138.502 202.941 138.502 202.927C138.489 202.55 138.435 202.133 138.395 201.702C138.139 199.237 138.098 197.311 140.146 196.88C140.711 198.092 142.853 202.995 141.964 205.729C141.641 206.725 140.711 208.005 139.62 209.5C137.223 212.786 133.95 217.285 134.139 222.928C134.408 230.942 137.438 246.714 137.465 246.875C137.506 247.077 137.681 247.212 137.869 247.212C137.896 247.212 137.923 247.212 137.937 247.212C138.152 247.172 138.3 246.956 138.26 246.727C138.233 246.566 135.216 230.861 134.947 222.901C134.772 217.541 137.95 213.177 140.28 209.985C141.412 208.436 142.381 207.102 142.745 205.985C143.863 202.55 140.873 196.503 140.752 196.247Z" fill="#1A1A1A"/>
<path d="M132.592 233.272C132.538 233.272 132.47 233.259 132.416 233.232L130.934 232.531C130.732 232.437 130.651 232.195 130.746 231.993C130.84 231.79 131.083 231.71 131.285 231.804L132.767 232.504C132.969 232.599 133.05 232.841 132.955 233.043C132.888 233.178 132.74 233.272 132.592 233.272Z" fill="#1A1A1A"/>
<path d="M133.225 236.41C133.171 236.41 133.131 236.397 133.077 236.383L130.558 235.4C130.356 235.319 130.248 235.09 130.329 234.875C130.41 234.673 130.639 234.565 130.855 234.646L133.373 235.629C133.575 235.71 133.683 235.939 133.602 236.154C133.535 236.316 133.387 236.41 133.225 236.41Z" fill="#1A1A1A"/>
<path d="M133.224 240.181C133.184 240.181 133.157 240.181 133.116 240.168L130.396 239.414C130.18 239.36 130.059 239.131 130.113 238.915C130.167 238.7 130.396 238.579 130.611 238.632L133.332 239.387C133.547 239.441 133.669 239.67 133.615 239.885C133.561 240.06 133.399 240.181 133.224 240.181Z" fill="#1A1A1A"/>
<path d="M197.107 184.192C197.107 184.192 186.062 182.778 186.062 185.135C186.062 187.492 192.797 188.839 194.615 189.108C196.433 189.378 201.349 189.782 201.349 189.782L197.107 184.192Z" fill="white"/>
<path d="M210.545 159.826L190.451 175.675L216.309 208.459L236.403 192.611L210.545 159.826Z" fill="#F4B512"/>
<path d="M198.455 169.377L203.573 165.336L228.625 198.2L224.315 202.106L198.455 169.377Z" fill="white"/>
<path d="M260.638 225.056L250.227 212.396C250.227 212.396 245.109 206.2 241.877 198.833C238.644 191.465 236.853 186.886 234.603 182.765C232.354 178.63 227.425 168.757 225.539 169.835C223.653 170.912 227.155 180.973 227.155 180.973L236.395 192.624L216.3 208.476L213.646 205.109C214.966 205.001 216.098 204.718 216.232 204.059C216.475 202.819 213.565 201.688 210.562 201.203L208.461 198.536C209.296 198.523 210.131 198.496 210.966 198.442C211.613 198.402 212.367 198.267 212.636 197.688C212.811 197.297 212.703 196.826 212.448 196.476C212.192 196.139 211.828 195.897 211.451 195.681C210.683 195.237 209.889 194.886 209.053 194.604C207.963 194.24 206.818 194.011 205.686 193.782C204.972 193.634 203.989 193.203 203.249 193.297C203.006 193.324 202.804 193.391 202.642 193.499C200.986 193.62 198.817 194.011 199.019 195.169C199.329 197.028 200.326 198.563 206.427 200.26C205.794 200.53 200.326 201.971 204.366 205.473C204.366 205.473 205.713 206.86 208.986 207.56C208.986 207.56 207.68 210.86 211.815 212.611C215.949 214.362 220.434 213.285 220.434 213.285C220.434 213.285 224.744 214.901 226.994 216.961C229.243 219.022 250.254 243.724 250.254 243.724C250.254 243.724 257.891 245.165 260.396 241.124C262.888 237.084 260.638 225.056 260.638 225.056Z" fill="white"/>
<path d="M250.228 244.141C250.106 244.141 249.999 244.087 249.918 243.993C249.716 243.751 229.163 219.736 226.685 217.258C224.287 214.86 219.492 213.877 219.438 213.864C219.209 213.823 219.075 213.608 219.115 213.379C219.156 213.15 219.371 213.015 219.6 213.056C219.802 213.096 224.691 214.093 227.264 216.665C229.755 219.157 249.689 242.458 250.537 243.441C250.686 243.616 250.672 243.872 250.497 244.02C250.416 244.114 250.322 244.141 250.228 244.141Z" fill="#1A1A1A"/>
<path d="M229.095 210.739C228.974 210.739 228.853 210.685 228.772 210.577C228.637 210.402 228.678 210.146 228.853 210.012C234.334 205.904 236.234 198.86 236.247 198.779C236.301 198.563 236.53 198.429 236.745 198.496C236.961 198.55 237.096 198.779 237.028 198.994C236.947 199.291 235.048 206.389 229.338 210.658C229.257 210.712 229.176 210.739 229.095 210.739Z" fill="#1A1A1A"/>
<path d="M208.756 166.929L197.207 176.037L208.643 190.536L220.191 181.428L208.756 166.929Z" fill="#1A1A1A"/>
<path d="M206.105 179.263C204.125 179.263 202.509 177.647 202.509 175.667C202.509 173.687 204.125 172.071 206.105 172.071C208.085 172.071 209.701 173.687 209.701 175.667C209.714 177.647 208.098 179.263 206.105 179.263ZM206.105 172.865C204.569 172.865 203.317 174.118 203.317 175.653C203.317 177.189 204.569 178.441 206.105 178.441C207.64 178.441 208.893 177.189 208.893 175.653C208.893 174.118 207.64 172.865 206.105 172.865Z" fill="#F4B512"/>
<path d="M206.107 176.961C205.393 176.961 204.8 176.381 204.8 175.654C204.8 174.926 205.379 174.347 206.107 174.347C206.834 174.347 207.414 174.926 207.414 175.654C207.414 176.381 206.821 176.961 206.107 176.961ZM206.107 175.169C205.837 175.169 205.608 175.384 205.608 175.667C205.608 175.95 205.824 176.166 206.107 176.166C206.39 176.166 206.605 175.95 206.605 175.667C206.605 175.384 206.376 175.169 206.107 175.169Z" fill="#F4B512"/>
<path d="M211.48 183.533C210.766 183.533 210.173 182.954 210.173 182.226C210.173 181.499 210.752 180.919 211.48 180.919C212.207 180.919 212.787 181.499 212.787 182.226C212.787 182.954 212.207 183.533 211.48 183.533ZM211.48 181.728C211.21 181.728 210.981 181.943 210.981 182.226C210.981 182.509 211.197 182.725 211.48 182.725C211.763 182.725 211.978 182.509 211.978 182.226C211.978 181.943 211.763 181.728 211.48 181.728Z" fill="#F4B512"/>
<path d="M211.492 185.822C209.512 185.822 207.896 184.206 207.896 182.226C207.896 180.246 209.512 178.63 211.492 178.63C213.472 178.63 215.088 180.246 215.088 182.226C215.102 184.206 213.486 185.822 211.492 185.822ZM211.492 179.424C209.957 179.424 208.704 180.677 208.704 182.212C208.704 183.748 209.957 185 211.492 185C213.028 185 214.28 183.748 214.28 182.212C214.28 180.677 213.028 179.424 211.492 179.424Z" fill="#F4B512"/>
<path d="M260.948 224.787C260.854 224.679 250.86 213.419 246.267 206.079C243.479 201.634 241.849 197.621 240.26 193.728C239.196 191.142 238.199 188.704 236.933 186.307C236.489 185.472 235.991 184.516 235.465 183.492C231.613 176.057 228.26 169.862 226.199 169.35C225.862 169.269 225.539 169.31 225.283 169.498C224.906 169.754 223.748 170.562 225.148 176.044C225.377 176.96 225.647 177.849 225.889 178.63L210.858 159.572C210.723 159.397 210.454 159.37 210.279 159.504L190.184 175.357C190.103 175.424 190.049 175.519 190.036 175.626C190.022 175.734 190.049 175.855 190.116 175.936L196.204 183.667C193.726 183.357 187.571 182.778 186.022 184.421C185.685 184.798 185.551 185.256 185.658 185.768C185.982 187.304 188.675 188.475 193.888 189.351C197.605 189.97 201.282 190.199 201.322 190.199C201.336 190.199 201.336 190.199 201.349 190.199H201.363L203.612 193.055C201.093 192.88 199.881 193.459 199.396 193.795C198.911 194.132 198.629 194.59 198.575 195.102C198.521 195.304 198.413 196.031 198.992 196.947C200.043 198.617 202.642 199.695 205.457 200.395C204.905 200.489 204.42 200.651 204.03 200.88C202.763 201.621 202.561 202.523 202.602 203.143C202.723 204.772 204.73 206.416 206.642 207.21C207.195 207.439 207.801 207.614 208.461 207.762C208.245 208.746 207.949 211.628 211.626 213.002C213.215 213.594 215.141 213.918 217.094 213.918C217.161 213.918 217.215 213.918 217.242 213.931C219.168 213.918 220.744 213.567 221.566 213.002C222.131 212.611 222.253 212.18 222.253 211.884C222.253 211.587 222.145 211.13 221.633 210.658C220.394 209.5 217.66 208.988 214.131 209.244C213.902 209.257 213.74 209.459 213.754 209.688C213.767 209.917 213.969 210.079 214.198 210.065C219.02 209.702 220.69 210.887 221.081 211.251C221.323 211.466 221.444 211.682 221.444 211.87C221.444 212.059 221.269 212.207 221.121 212.315C219.694 213.311 215.168 213.46 211.909 212.234C208.744 211.035 209.094 208.624 209.269 207.911C210.198 208.059 211.235 208.126 212.353 208.126C212.367 208.126 212.38 208.126 212.394 208.126C213.969 208.126 215.155 207.991 215.384 207.978L215.963 208.719C216.044 208.826 216.165 208.88 216.286 208.88C216.38 208.88 216.461 208.853 216.542 208.786L236.637 192.933C236.718 192.866 236.772 192.772 236.785 192.664C236.799 192.556 236.772 192.435 236.704 192.354L227.438 180.61C225.983 176.704 224.542 171.02 225.754 170.171C225.795 170.145 225.862 170.118 225.997 170.145C227.869 170.602 232.165 178.899 234.724 183.856C235.25 184.879 235.748 185.849 236.193 186.684C237.445 189.041 238.428 191.465 239.479 194.038C241.082 197.957 242.738 202.011 245.553 206.51C250.186 213.904 260.221 225.218 260.315 225.325C260.396 225.42 260.517 225.46 260.625 225.46C260.719 225.46 260.813 225.433 260.894 225.366C261.083 225.218 261.096 224.962 260.948 224.787ZM227.034 187.829L229.148 186.226L231.936 189.566L229.835 191.29L227.034 187.829ZM226.522 187.182L223.95 183.99L227.115 181.512L229.701 184.785L226.522 187.182ZM194.009 188.529C191.84 188.179 186.776 187.169 186.453 185.593C186.399 185.351 186.453 185.162 186.615 184.987C186.978 184.61 188.204 183.99 192.339 184.165C194.507 184.26 196.514 184.542 196.945 184.596L200.662 189.31C199.437 189.216 196.73 188.974 194.009 188.529ZM199.747 196.57C199.262 195.843 199.396 195.331 199.396 195.317C199.396 195.29 199.41 195.25 199.41 195.223C199.437 194.94 199.598 194.698 199.895 194.482C200.851 193.809 203.329 193.486 207.451 194.577C208.744 194.913 211.828 195.87 212.272 197.19C212.367 197.459 212.313 197.715 212.138 197.957C211.761 198.442 208.69 198.334 206.063 197.93C205.834 197.903 205.632 198.052 205.592 198.28C205.565 198.509 205.713 198.711 205.942 198.752C205.982 198.765 207.06 198.927 208.339 199.035L209.35 200.328C206.09 199.843 201.215 198.779 199.747 196.57ZM206.979 206.469C205.309 205.782 203.545 204.341 203.45 203.102C203.41 202.537 203.76 202.025 204.474 201.607C206.696 200.301 213.431 201.823 215.411 203.372C215.788 203.668 215.882 203.87 215.855 203.964C215.545 204.961 211.761 204.947 209.296 204.611C209.08 204.57 208.865 204.732 208.838 204.961C208.797 205.176 208.959 205.392 209.188 205.419C209.794 205.5 211.761 205.729 213.511 205.594L214.791 207.21C213.431 207.345 209.646 207.574 206.979 206.469ZM216.367 207.884L214.468 205.486C215.545 205.298 216.421 204.92 216.636 204.18C216.73 203.843 216.69 203.304 215.909 202.698C214.885 201.904 212.851 201.136 210.697 200.691L209.444 199.102C211.922 199.21 212.542 198.792 212.798 198.469C213.148 198.011 213.242 197.459 213.054 196.92C212.623 195.668 210.804 194.604 207.653 193.768C206.562 193.486 205.605 193.284 204.77 193.176L191.019 175.748L210.454 160.407L226.603 180.866L223.115 183.6C223.02 183.667 222.966 183.775 222.953 183.883C222.939 183.99 222.98 184.112 223.047 184.192L232.125 195.452L216.367 207.884ZM232.772 194.954L230.347 191.95L233.378 189.472L235.815 192.556L232.772 194.954Z" fill="#1A1A1A"/>
</svg>
