<svg width="243" height="250" viewBox="0 0 243 250" fill="none" xmlns="http://www.w3.org/2000/svg">
<path d="M72.2318 244.567C-0.827211 232.659 -21.2283 157.022 23.7613 111.535C64.7335 70.0916 43.4557 37.7954 110.731 33.5424C170.272 29.7868 229.565 78.6891 241.748 163.041C253.918 247.158 163.86 259.498 72.2318 244.567Z" fill="#EE406A"/>
<path d="M154.476 53.5771L152.644 76.6738L203.09 80.4033L205.132 56.8878C206.532 60.4734 209.515 62.9336 212.957 62.9336C217.76 62.9336 221.646 58.1441 221.646 52.2423C221.646 46.3405 217.76 41.5511 212.957 41.5511C210.17 41.5511 207.683 43.1737 206.1 45.6862L207.801 26.0442L187.008 24.0289C190.515 25.9395 192.674 29.4989 192.216 33.2807C191.588 38.4235 186.314 41.996 180.452 41.2763C174.589 40.5565 170.349 35.8063 170.977 30.6635C171.422 27.0911 174.105 24.2645 177.664 23.126L156.949 21.1239L154.999 46.1835" fill="#EE406A"/>
<path d="M162.904 39.5882C159.973 39.5882 157.251 41.3286 155.563 44.1421L157.342 21.1631C157.355 20.9538 157.198 20.7705 156.989 20.7444L135.829 18.5459C138.983 17.1065 141.168 14.3453 141.561 11.1523C141.888 8.54824 141.037 5.9703 139.166 3.87654C137.308 1.79587 134.677 0.461103 131.746 0.0946952C125.674 -0.651206 120.204 3.09139 119.55 8.43047C119.131 11.8066 120.728 15.1174 123.672 17.2635L104.2 15.2352C104.095 15.2221 103.991 15.2613 103.912 15.3268C103.821 15.3922 103.781 15.4969 103.768 15.6016L100.235 72.133C100.222 72.3424 100.379 72.5387 100.588 72.5518L152.605 77.0664C152.618 77.0664 152.631 77.0664 152.644 77.0664C152.736 77.0664 152.828 77.0272 152.893 76.9748C152.985 76.8963 153.024 76.8047 153.037 76.7L154.686 55.4091C156.165 59.2302 159.318 61.7558 162.904 61.7558C167.916 61.7558 171.985 56.7832 171.985 50.672C171.985 44.5609 167.916 39.5882 162.904 39.5882Z" fill="#1A1A1A"/>
<path d="M203.091 80.796C203.078 80.796 203.078 80.796 203.065 80.796L152.619 77.0665C152.514 77.0534 152.422 77.0141 152.344 76.9356C152.278 76.8571 152.239 76.7524 152.252 76.6477L154.084 53.551C154.097 53.3285 154.294 53.1715 154.503 53.1845C154.725 53.1976 154.882 53.3939 154.869 53.6033L153.063 76.3075L202.725 79.9846L204.727 56.8486C204.74 56.6654 204.884 56.5215 205.067 56.4953C205.25 56.4691 205.42 56.5738 205.486 56.7439C206.873 60.2641 209.804 62.541 212.958 62.541C217.538 62.541 221.255 57.9217 221.255 52.2424C221.255 46.563 217.525 41.9437 212.958 41.9437C210.393 41.9437 208.012 43.3831 206.428 45.8957C206.336 46.0527 206.14 46.1181 205.97 46.0527C205.8 46.0003 205.695 45.8302 205.708 45.647L207.37 26.3975L188.579 24.5786C191.458 26.7247 193.002 30.0223 192.596 33.32C191.994 38.2142 187.362 41.7605 181.931 41.7605C181.421 41.7605 180.91 41.7343 180.387 41.6689C177.456 41.3025 174.825 39.9677 172.967 37.887C171.096 35.7933 170.245 33.2153 170.573 30.6112C170.952 27.4968 172.993 24.8272 176.016 23.3616L157.316 21.5557L155.406 46.2097C155.393 46.4322 155.196 46.5892 154.987 46.5761C154.765 46.563 154.608 46.3667 154.621 46.1574L156.571 21.0977C156.584 20.993 156.623 20.9014 156.714 20.8229C156.793 20.7575 156.898 20.7182 157.002 20.7313L177.717 22.7335C177.901 22.7465 178.045 22.9036 178.071 23.0868C178.097 23.27 177.979 23.4401 177.796 23.5055C174.237 24.644 171.776 27.4052 171.371 30.7159C171.083 33.0845 171.868 35.453 173.569 37.3636C175.297 39.3003 177.757 40.5435 180.492 40.8837C186.132 41.5773 191.209 38.1357 191.811 33.2284C192.243 29.7475 190.28 26.2667 186.812 24.3692C186.642 24.2776 186.577 24.0813 186.629 23.9112C186.681 23.728 186.865 23.6233 187.048 23.6364L207.841 25.6385C208.051 25.6647 208.208 25.8479 208.195 26.0573L206.611 44.2861C208.299 42.2708 210.55 41.1324 212.958 41.1324C217.97 41.1324 222.04 46.105 222.04 52.2162C222.04 58.3273 217.97 63.3 212.958 63.3C209.909 63.3 207.056 61.4025 205.394 58.3535L203.484 80.4165C203.458 80.6389 203.287 80.796 203.091 80.796Z" fill="#1A1A1A"/>
<path d="M152.684 76.2944L179.654 78.2834C183.266 75.3522 185.36 71.8713 185.36 68.1418C185.36 57.5945 168.61 49.0363 147.934 49.0363C127.258 49.0363 110.508 57.5945 110.508 68.1418C110.508 69.7252 110.887 71.2563 111.594 72.7219L152.684 76.2944Z" fill="white"/>
<path d="M212.958 41.1324C210.55 41.1324 208.299 42.2708 206.611 44.2861L208.195 26.0573C208.208 25.8479 208.051 25.6647 207.841 25.6385L187.048 23.6364C186.865 23.6233 186.681 23.728 186.629 23.9112C186.577 24.0813 186.642 24.2776 186.812 24.3692C190.28 26.2667 192.243 29.7475 191.811 33.2284C191.209 38.1357 186.132 41.5773 180.492 40.8837C177.757 40.5435 175.297 39.3003 173.569 37.3636C171.868 35.453 171.083 33.0845 171.371 30.7159C171.776 27.4052 174.237 24.644 177.796 23.5055C177.979 23.4401 178.097 23.27 178.071 23.0868C178.045 22.9036 177.901 22.7465 177.717 22.7335L157.002 20.7313C156.898 20.7182 156.793 20.7575 156.714 20.8229C156.623 20.9014 156.584 20.993 156.571 21.0977L154.621 46.1574C154.608 46.3667 154.765 46.563 154.987 46.5761C155.196 46.5892 155.393 46.4322 155.406 46.2097L157.316 21.5557L176.016 23.3616C172.993 24.8272 170.952 27.4968 170.573 30.6112C170.245 33.2153 171.096 35.7933 172.967 37.887C174.825 39.9677 177.456 41.3025 180.387 41.6689C180.91 41.7343 181.421 41.7605 181.931 41.7605C187.362 41.7605 191.994 38.2142 192.596 33.32C193.002 30.0223 191.458 26.7247 188.579 24.5786L207.37 26.3975L205.708 45.647C205.695 45.8302 205.8 46.0003 205.97 46.0527C206.14 46.1181 206.336 46.0527 206.428 45.8957C208.012 43.3831 210.393 41.9437 212.958 41.9437C217.525 41.9437 221.255 46.563 221.255 52.2424C221.255 57.9217 217.538 62.541 212.958 62.541C209.804 62.541 206.873 60.2641 205.486 56.7439C205.42 56.5738 205.25 56.4691 205.067 56.4953C204.884 56.5215 204.74 56.6654 204.727 56.8486L202.725 79.9846L179.667 78.2704C179.523 78.3882 179.366 78.5059 179.209 78.6368L152.632 76.6739L152.252 76.6346V76.6477C152.239 76.7524 152.278 76.8571 152.344 76.9356C152.422 77.0141 152.514 77.0534 152.619 77.0665L203.065 80.796C203.078 80.796 203.078 80.796 203.091 80.796C203.287 80.796 203.458 80.6389 203.484 80.4165L205.394 58.3535C207.056 61.4025 209.909 63.3 212.958 63.3C217.97 63.3 222.04 58.3273 222.04 52.2162C222.04 46.105 217.97 41.1324 212.958 41.1324Z" fill="#1A1A1A"/>
<path d="M180.283 59.1779C180.191 59.1779 180.099 59.1518 180.034 59.0863C179.864 58.9424 179.838 58.7068 179.982 58.5367C186.917 50.1748 195.515 43.5925 205.525 38.9732C205.722 38.8816 205.957 38.9732 206.049 39.1694C206.14 39.3657 206.049 39.6013 205.852 39.6929C195.946 44.2599 187.441 50.7636 180.584 59.034C180.505 59.1256 180.4 59.1779 180.283 59.1779Z" fill="white"/>
<path d="M152.645 77.0665C152.632 77.0665 152.619 77.0665 152.619 77.0665C152.396 77.0534 152.239 76.8571 152.252 76.6477L154.071 53.1976C154.084 53.0013 154.241 52.8443 154.438 52.8312C154.634 52.8181 154.804 52.949 154.843 53.1453C155.759 57.7515 159.07 60.9707 162.891 60.9707C167.471 60.9707 171.188 56.3513 171.188 50.672C171.188 50.4496 171.358 50.2794 171.58 50.2794C171.803 50.2794 171.973 50.4496 171.973 50.672C171.973 56.7832 167.903 61.7558 162.891 61.7558C159.306 61.7558 156.152 59.2303 154.673 55.4091L153.037 76.7001C153.024 76.9094 152.854 77.0665 152.645 77.0665Z" fill="#1A1A1A"/>
<path d="M156.034 33.5163C156.021 33.5163 156.021 33.5163 156.008 33.5163C155.786 33.5032 155.629 33.3069 155.642 33.0975L156.322 23.7018C156.335 23.4793 156.532 23.3223 156.741 23.3354C156.963 23.3485 157.12 23.5448 157.107 23.7542L156.427 33.1499C156.401 33.3593 156.231 33.5163 156.034 33.5163Z" fill="#1A1A1A"/>
<path d="M156.465 32.561C162.511 30.4018 168.098 27.235 173.149 23.0999L161.882 22.0137C160.312 22.9036 158.703 23.7018 157.054 24.4216L156.465 32.561Z" fill="white"/>
<path d="M126.918 48.6306C129.484 48.6306 131.564 46.5507 131.564 43.985C131.564 41.4194 129.484 39.3395 126.918 39.3395C124.353 39.3395 122.273 41.4194 122.273 43.985C122.273 46.5507 124.353 48.6306 126.918 48.6306Z" fill="#F4B512"/>
<path d="M156.243 24.7749C154.438 25.5208 152.592 26.162 150.695 26.6985C144.78 28.3604 138.342 28.9886 131.589 28.5698C118.974 27.7847 108.807 23.6495 104.2 21.438L103.716 29.2634C109.54 31.7497 119.38 35.139 131.131 35.8849C132.649 35.9765 134.154 36.0288 135.646 36.0288C141.6 36.0288 147.306 35.2699 152.684 33.765C153.692 33.4771 154.673 33.1761 155.655 32.8359L156.243 24.7749Z" fill="white"/>
<path d="M194.01 63.1822C195.6 63.1822 196.889 61.8933 196.889 60.3033C196.889 58.7133 195.6 57.4244 194.01 57.4244C192.42 57.4244 191.131 58.7133 191.131 60.3033C191.131 61.8933 192.42 63.1822 194.01 63.1822Z" fill="white"/>
<path d="M169.146 78.1787C169.107 78.1787 169.067 78.1787 169.028 78.1656C168.819 78.1002 168.701 77.8778 168.766 77.6684C168.779 77.616 170.337 72.7481 174.38 66.2705C176.055 63.5879 177.94 60.9838 179.968 58.5367C180.112 58.3666 180.347 58.3404 180.518 58.4844C180.688 58.6283 180.714 58.8639 180.57 59.034C178.555 61.4549 176.696 64.0328 175.035 66.6893C171.043 73.0883 169.512 77.8647 169.499 77.917C169.473 78.074 169.316 78.1787 169.146 78.1787Z" fill="#1A1A1A"/>
<path d="M169.473 222.713C166.267 218.591 161.151 213.867 154.254 208.698C140.108 198.086 120.087 186.727 97.8537 176.69C75.6337 166.653 53.8587 159.155 36.5459 155.569C28.1054 153.829 21.183 153.096 15.9617 153.423C10.4394 153.776 7.02393 155.294 5.8331 157.938C4.64228 160.581 5.75459 164.141 9.15694 168.511C12.363 172.633 17.4796 177.357 24.3759 182.526C38.5219 193.139 58.5565 204.498 80.7765 214.535C102.997 224.572 124.772 232.07 142.084 235.655C149.216 237.134 155.262 237.88 160.117 237.88C161.007 237.88 161.857 237.854 162.669 237.801C168.191 237.448 171.606 235.93 172.797 233.287C173.988 230.643 172.876 227.084 169.473 222.713Z" fill="#1A1A1A"/>
<path d="M99.5 119.5L102.5 122L113.5 120L127 125L135.5 140.5L139.5 142L141 141.5L142 140V138.5L140 134.5L137.5 132.5V130V125.5L136 121.5L134 118.5L132 117V115.5V113L131 111.5H130.5L128 112.5L125.5 114.5L123 114L118 114.5L113.5 116.5L110 118.5L109.5 118L105.5 116.5H102L99.5 118V119.5Z" fill="white"/>
<path d="M203.876 93.3584C203.876 93.3584 205.525 116.835 200.814 133.846C196.103 150.858 188.644 169.702 171.763 186.845C154.882 203.987 135.253 211.211 118.699 213.684C118.699 213.684 118.124 188.127 124.405 176.742C130.686 165.358 137.543 155.792 137.543 155.792C137.543 155.792 143.759 148.516 149.648 146.16C155.536 143.805 167.052 142.104 176.867 133.598C186.681 125.092 187.204 115.539 187.204 115.539C187.204 115.539 191.902 97.6506 192.112 91.2123C200.618 89.2364 203.876 93.3584 203.876 93.3584Z" fill="#F4B512"/>
<path d="M92.711 130.169C92.711 130.169 92.1222 121.009 87.1495 109.755C84.9249 104.704 80.2793 99.2864 80.9991 88.5559C81.7188 77.8254 89.047 65.7863 97.6837 57.4113C106.32 49.0362 97.6837 57.4113 97.6837 57.4113C97.6837 57.4113 96.8593 48.5521 90.578 48.8138C90.578 48.8138 80.1485 58.7199 72.8858 67.0949C65.623 75.4699 52.0136 90.6497 45.8632 112.111C39.7128 133.572 45.8632 154.248 47.1718 157.126C48.4804 160.005 69.2871 160.921 79.8868 151.499C90.4864 142.078 92.0567 133.833 92.0567 133.833L92.711 130.169Z" fill="#F4B512"/>
<path d="M195.565 161.707C195.5 161.707 195.421 161.694 195.356 161.654C195.173 161.536 195.107 161.301 195.225 161.118C201.69 150.492 204.883 138.44 206.427 130.209C208.102 121.284 208.246 114.793 208.246 114.728C208.246 114.505 208.429 114.335 208.651 114.348C208.874 114.348 209.044 114.532 209.031 114.754C209.031 114.819 208.874 121.362 207.186 130.353C205.629 138.649 202.396 150.793 195.879 161.536C195.827 161.641 195.696 161.707 195.565 161.707Z" fill="#1A1A1A"/>
<path d="M39.5833 125.589C39.3739 125.589 39.2038 125.419 39.1907 125.21C38.785 114.728 41.52 105.764 43.9016 100.085C46.4796 93.9342 49.1884 90.1916 49.2146 90.1524C49.3454 89.9823 49.594 89.943 49.7642 90.0739C49.9343 90.2047 49.9735 90.4534 49.8427 90.6235C49.8165 90.6627 47.147 94.3399 44.6083 100.412C42.279 106.013 39.5833 114.859 39.9758 125.184C39.9889 125.406 39.8188 125.576 39.5964 125.589C39.5964 125.589 39.5964 125.589 39.5833 125.589Z" fill="#1A1A1A"/>
<path d="M173.191 155.556C174.854 155.556 176.201 153.857 176.201 151.761C176.201 149.665 174.854 147.966 173.191 147.966C171.529 147.966 170.182 149.665 170.182 151.761C170.182 153.857 171.529 155.556 173.191 155.556Z" fill="#1A1A1A"/>
<path d="M137.898 132.145C138.068 130.981 138.173 129.685 138.147 128.311C138.055 124.686 136.93 120.041 132.441 116.874C132.441 116.861 132.441 116.861 132.441 116.848C132.507 115.997 132.729 111.705 131.119 111.208C129.615 110.737 125.78 113.419 125.021 113.969L125.008 113.982C120.847 113.406 117.026 114.427 114.278 115.578C112.498 116.324 111.006 117.175 109.868 117.895C109.842 117.855 109.815 117.829 109.776 117.803C107.46 116.285 101.702 115.107 99.5823 117.424C98.9803 118.078 98.7709 118.758 98.9411 119.439C99.2813 120.787 101.1 121.729 102.029 122.135C99.8571 123.43 97.7241 125.053 95.6565 127.016C94.0077 128.573 92.4112 130.169 90.867 131.7C81.89 140.625 73.4234 149.039 52.8261 155.19C50.68 155.831 48.6778 156.551 46.872 157.31C38.5885 160.817 34.9376 165.122 32.4512 168.878C31.4567 170.396 30.5799 171.94 29.7424 173.445C28.1721 176.232 26.6934 178.875 24.4164 181.362C23.3434 182.539 22.2049 183.56 20.9094 184.515C17.1799 187.263 14.1309 191.673 12.3381 196.96C10.4406 202.535 10.048 208.581 11.2127 214.417C12.5605 221.182 16.0022 227.411 21.1711 232.423C27.1907 238.26 35.461 242.512 45.7727 245.064C50.4968 246.229 56.0714 246.818 61.8816 246.818C67.888 246.818 74.1693 246.203 80.0318 244.946C86.7188 243.52 92.7383 241.361 97.9465 238.534C103.796 235.341 108.507 231.35 111.949 226.652C112.511 225.88 113.048 225.082 113.545 224.271C115.469 221.117 117.157 217.806 118.688 214.168C119.892 211.329 120.821 208.698 121.724 206.16C123.804 200.31 125.453 195.691 128.986 192.158C135.634 185.497 142.517 177.279 139.887 163.931C139.285 160.908 138.736 158.37 138.251 156.132C136.89 149.929 136.066 146.108 136.328 141.018C136.681 141.214 137.178 141.449 137.741 141.672C138.592 141.999 139.311 142.156 139.926 142.156C140.411 142.156 140.829 142.051 141.156 141.855C141.811 141.463 142.229 140.677 142.308 139.722C142.387 138.649 142.125 135.757 137.898 132.145ZM130.897 111.967C131.538 112.163 131.787 114.335 131.695 116.377C131.028 115.971 130.308 115.578 129.51 115.238C128.371 114.741 127.233 114.401 126.108 114.165C127.848 113.001 130.151 111.731 130.897 111.967ZM102.867 121.637C102.082 121.362 100.001 120.42 99.7131 119.269C99.6084 118.85 99.7655 118.418 100.171 117.973C101.807 116.18 106.819 116.952 109.174 118.366C108.18 119.046 107.604 119.544 107.552 119.583C107.539 119.596 107.512 119.622 107.499 119.635C105.942 120.145 104.411 120.813 102.893 121.65C102.88 121.65 102.88 121.637 102.867 121.637ZM127.521 121.86C122.47 119.125 117.34 118.039 112.263 118.601C111.347 118.706 110.417 118.863 109.515 119.072C110.666 118.274 112.433 117.188 114.592 116.285C118.177 114.806 123.608 113.537 129.196 115.958C132.101 117.214 134.26 119.072 135.621 121.48C136.707 123.417 137.296 125.72 137.361 128.311C137.427 130.771 137.008 133.035 136.603 134.592C136.118 129.188 133.017 124.83 127.521 121.86ZM141.523 139.657C141.47 140.363 141.183 140.926 140.751 141.188C139.704 141.829 137.401 140.756 136.38 140.167C136.419 139.578 136.485 138.976 136.55 138.348C136.602 137.903 136.642 137.458 136.655 137.026C136.668 137 136.694 136.974 136.707 136.935C136.733 136.843 137.335 135.312 137.741 133.048C140.267 135.325 141.667 137.759 141.523 139.657Z" fill="#1A1A1A"/>
<path d="M25.2275 181.623L24.6387 181.1C26.7848 178.679 28.2242 176.127 29.7422 173.432C30.5797 171.927 31.4565 170.383 32.451 168.865C34.6494 165.528 38.1434 161.262 45.6809 157.833L46.0081 158.553C38.7061 161.89 35.3953 165.855 33.1184 169.309C32.1369 170.801 31.2733 172.332 30.4358 173.824C28.944 176.441 27.426 179.15 25.2275 181.623Z" fill="#F4B512"/>
<path d="M76.2294 76.3687C77.6356 75.1774 77.9234 73.2059 76.8723 71.9652C75.8212 70.7244 73.8292 70.6843 72.423 71.8756C71.0169 73.0669 70.7291 75.0384 71.7802 76.2792C72.8313 77.5199 74.8233 77.56 76.2294 76.3687Z" fill="#1A1A1A"/>
<path d="M97.6836 57.4113C97.6836 57.4113 103.376 53.1583 105.666 49.9523C107.956 46.7462 110.9 40.3995 111.293 39.5489C111.686 38.6983 112.602 36.1466 111.686 35.6885C110.77 35.2305 106.909 39.7452 106.909 39.7452C106.909 39.7452 103.834 43.671 102.853 42.2315C101.871 40.7921 102.133 37.9786 102.133 37.9786L102.565 35.5708L102.892 30.4934C102.892 30.4934 99.9606 31.7104 99.2539 33.0844C98.5473 34.4585 95.917 40.02 95.917 40.02L94.2813 43.9458L90.3555 48.7876C90.3555 48.7876 93.8887 48.5259 95.3936 51.0122C96.8985 53.4986 97.6836 57.4113 97.6836 57.4113Z" fill="white"/>
<path d="M112.524 225.828L111.883 225.383C112.223 224.886 112.55 224.375 112.864 223.878C114.644 220.96 116.214 217.937 117.641 214.613L118.36 214.927C116.908 218.277 115.338 221.339 113.532 224.284C113.204 224.807 112.877 225.317 112.524 225.828Z" fill="#F4B512"/>
<path d="M27.8447 225.409L27.7793 224.624C34.9373 223.996 40.1325 221.457 43.6526 216.877C47.7092 211.577 49.5936 203.595 49.4104 192.446C48.9001 182.84 50.3003 175.905 53.7942 170.618C56.7124 166.208 61.0308 162.924 68.2281 159.652C70.505 158.618 72.9259 157.768 75.4777 156.878C79.783 155.373 84.2453 153.816 88.2234 151.212C92.7119 148.267 95.9573 144.368 98.1295 139.264C101.623 131.072 106.518 126.963 110.025 124.961C113.833 122.776 116.79 122.553 116.921 122.54L116.973 123.325L116.947 122.933L116.973 123.325C116.947 123.325 114.042 123.561 110.378 125.668C106.989 127.618 102.252 131.609 98.8623 139.578C96.6246 144.826 93.3008 148.843 88.6684 151.866C84.5986 154.522 80.097 156.093 75.7394 157.611C73.2007 158.5 70.806 159.325 68.5552 160.359C61.5019 163.565 57.2751 166.758 54.4485 171.037C51.0462 176.18 49.6983 182.971 50.1956 192.393V192.406C50.3788 203.739 48.4421 211.891 44.2807 217.335C40.6036 222.124 35.2383 224.755 27.8447 225.409Z" fill="#F4B512"/>
<path d="M62.1023 234.412L61.8145 233.679C87.0311 223.957 85.8665 211.054 84.5055 196.136C84.4008 194.984 84.2962 193.806 84.2045 192.629V192.603C84.0868 187.263 86.0104 181.1 89.6221 175.251C92.7628 170.173 96.8718 165.816 100.614 163.591C102.015 162.753 103.48 162.021 104.893 161.314C110.651 158.422 116.082 155.7 116.906 146.88C117.456 140.965 120.243 136.438 122.494 133.676C124.928 130.693 127.192 129.122 127.284 129.057L127.728 129.698C127.702 129.711 125.438 131.282 123.083 134.187C120.911 136.856 118.215 141.24 117.692 146.946C117.299 151.107 115.873 154.352 113.334 156.865C111.07 159.102 108.243 160.516 105.247 162.021C103.847 162.727 102.394 163.447 101.007 164.271C97.369 166.431 93.3647 170.684 90.2764 175.669C86.7432 181.388 84.8588 187.394 84.9635 192.576C85.0551 193.754 85.1598 194.932 85.2645 196.07C85.945 203.569 86.5862 210.648 83.8381 217.139C80.776 224.388 73.8666 229.884 62.1023 234.412Z" fill="#F4B512"/>
<path d="M92.3045 156.721L92.082 155.962C92.1082 155.949 94.4244 155.268 97.0154 153.318C99.3971 151.526 102.525 148.254 103.846 142.902C106.084 133.846 111.646 130.496 111.881 130.353L112.274 131.033L112.077 130.693L112.274 131.033C112.221 131.059 106.751 134.37 104.605 143.085C103.218 148.686 99.9598 152.088 97.4604 153.96C94.7516 156.001 92.3961 156.695 92.3045 156.721Z" fill="#F4B512"/>
<path d="M103.139 36.0157C103.139 36.0157 103.139 36.0157 103.127 36.0282C103.127 36.0282 103.127 36.0282 103.139 36.0157Z" fill="#1A1A1A"/>
<path d="M112.391 35.9764C112.274 35.5969 112.038 35.4137 111.868 35.3352C110.978 34.9296 109.774 36.1989 107.72 38.4759C106.228 40.1378 104.186 42.4017 103.323 42.153C103.009 42.0614 102.865 41.538 102.786 41.1192C102.08 37.1018 102.996 36.1466 103.127 36.0288L102.734 35.3483C102.655 35.3876 102.237 35.6624 101.975 36.5522C101.648 37.6514 101.661 39.2348 102.014 41.2501C102.171 42.1792 102.538 42.7419 103.1 42.8989C104.435 43.2915 106.306 41.2108 108.295 38.9993C109.081 38.1225 109.813 37.2981 110.442 36.7354C111.292 35.9634 111.528 36.0419 111.528 36.0419C111.541 36.055 111.58 36.0811 111.619 36.1989C112.09 37.7954 108.544 44.8618 105.992 48.8269C104.108 51.7581 99.5671 55.4353 97.9968 56.6785C97.578 53.5247 96.4788 51.2216 94.7253 49.7952C93.4036 48.7353 92.0296 48.4474 91.1659 48.3819L94.5683 44.1813C94.5814 44.1552 94.6075 44.129 94.6206 44.0897L98.5464 34.9034C99.1876 33.3985 100.339 32.1553 101.792 31.4094L103.218 30.6766C103.414 30.585 103.493 30.3495 103.388 30.1532C103.297 29.9569 103.061 29.8784 102.865 29.9831L101.438 30.7159C99.8288 31.5403 98.5464 32.9274 97.8398 34.5893L93.9401 43.7233L90.0667 48.5128C89.4647 49.0624 80.1868 57.6207 70.2676 69.398C64.2742 76.5168 59.223 83.4 55.2449 89.8645C50.2722 97.9516 46.9877 105.411 45.4828 112.019C42.0935 126.95 42.63 138.453 43.6769 145.467C44.8154 153.096 46.739 157.126 46.8175 157.297C46.883 157.441 47.0269 157.519 47.1709 157.519C47.2363 157.519 47.2886 157.506 47.341 157.506C47.5373 157.414 47.6158 157.179 47.5242 156.982C47.5111 156.943 45.6529 153.017 44.5144 145.755C47.9168 144.721 50.7172 139.905 51.0705 133.977C51.4761 127.238 48.6103 121.559 44.6191 121.114C45.0117 118.3 45.5482 115.343 46.2548 112.215C47.7336 105.685 50.9789 98.318 55.9123 90.2963C59.8512 83.858 64.8893 77.0141 70.8565 69.9215C74.9262 65.1058 78.8782 60.8136 82.1628 57.4113C82.3198 57.3982 83.7985 57.3066 85.552 58.0656C85.696 58.131 85.8268 58.1964 85.9708 58.2619C85.9446 58.2488 85.9315 58.2488 85.9054 58.2357C85.9054 58.2357 90.564 61.324 87.1224 69.6728C85.1856 72.8004 83.6546 75.9541 82.5684 79.0686C80.9065 83.8057 80.2784 88.4512 80.671 92.9135C80.671 92.9659 80.684 93.0051 80.684 93.0575C78.3286 94.2091 65.7791 100.49 64.3397 103.683C63.0572 106.536 65.2949 109.834 69.417 108.656C73.5391 107.478 77.4387 104.338 79.4278 106.104C80.6448 107.19 81.8487 108.643 85.8138 107.688C88.444 113.118 91.2313 119.478 92.3175 130.209C92.3437 130.431 92.5399 130.588 92.7493 130.562C92.9718 130.536 93.1288 130.339 93.1026 130.13C91.9118 118.353 88.7057 111.77 85.8661 105.973C83.7331 101.629 81.901 97.8731 81.4561 92.835C81.0635 88.4905 81.6917 83.9496 83.3012 79.3303C84.5968 75.627 86.5335 71.8582 89.046 68.1418C89.8442 66.951 90.6556 65.8517 91.4538 64.831C91.5585 64.7787 91.637 64.6871 91.6632 64.5693C94.7384 60.6566 97.4472 58.1572 97.8921 57.7515C97.9183 57.7384 97.9314 57.7253 97.9575 57.7122C98.2193 57.516 104.317 52.9097 106.686 49.2325C107.707 47.636 109.303 44.8487 110.559 42.1923C112.051 39.0386 112.666 36.9317 112.391 35.9764ZM85.997 57.4113C85.9577 57.3851 85.9053 57.372 85.8661 57.3458C84.6884 56.8355 83.6284 56.6785 82.9217 56.6261C87.0177 52.4124 89.9489 49.6905 90.5247 49.1671C90.8257 49.154 91.7024 49.1671 92.7362 49.5597L85.997 57.4113ZM86.7167 57.7777L93.456 49.913C93.7177 50.057 93.9794 50.2271 94.2411 50.4364C94.987 51.0384 95.6152 51.8366 96.0993 52.8181L89.5171 60.2248C88.6142 59.0601 87.6327 58.288 86.7167 57.7777ZM91.4015 63.6402C90.9958 62.5541 90.5116 61.638 89.9882 60.866L96.4396 53.6033C96.8452 54.6501 97.12 55.8802 97.2771 57.2673C96.6489 57.83 94.215 60.1332 91.4015 63.6402Z" fill="#1A1A1A"/>
<path d="M153.392 177.423C153.183 177.423 152.908 177.357 152.659 177.083C152.241 176.651 151.691 175.565 151.665 171.246C151.652 168.76 151.809 165.475 152.136 161.51C152.699 154.758 153.575 148.254 153.575 148.189L154.347 148.293C154.334 148.359 153.471 154.849 152.908 161.576C152.581 165.515 152.424 168.773 152.437 171.233C152.463 175.159 152.934 176.245 153.222 176.546C153.314 176.638 153.379 176.638 153.405 176.638C154.635 176.546 155.355 173.026 156.049 169.624C157.043 164.742 158.182 159.194 161.388 157.82L161.702 158.54C158.862 159.757 157.737 165.305 156.821 169.781C155.97 173.968 155.29 177.279 153.471 177.423C153.445 177.41 153.418 177.423 153.392 177.423Z" fill="black"/>
<path d="M60.3887 136.241L59.6035 136.163C60.4279 128.547 67.0102 126.793 71.8128 125.511C75.0058 124.66 76.9556 124.058 76.8771 122.619C76.8509 122.095 76.6153 121.65 76.1442 121.258C73.1868 118.811 63.019 120.093 62.9274 120.106L62.8227 119.321C63.2545 119.269 73.4354 117.986 76.6415 120.656C77.2696 121.179 77.6099 121.82 77.6491 122.566C77.7669 124.726 75.2282 125.406 71.996 126.257C67.1803 127.552 61.1608 129.162 60.3887 136.241Z" fill="black"/>
<path d="M56.8285 43.0167C56.2134 43.0167 55.69 42.8335 55.2974 42.4671C55.0095 42.2054 54.8002 41.852 54.6169 41.3548C53.9234 39.405 54.4207 37.1018 55.8601 35.6231C56.3966 35.0735 56.9332 34.8249 57.4828 34.8772C57.9015 34.9296 58.2941 35.2305 58.4642 35.6493C58.6082 36.0026 58.5558 36.369 58.3203 36.6307C58.1633 36.8139 57.8884 36.8401 57.7052 36.6831C57.522 36.5261 57.4959 36.2512 57.6529 36.068C57.6791 36.0419 57.6529 35.9895 57.6398 35.9764C57.6006 35.8587 57.4697 35.754 57.3781 35.754C57.0509 35.7147 56.7107 36.0026 56.4752 36.2382C55.2582 37.4944 54.8394 39.4311 55.4283 41.08C55.5591 41.4333 55.7031 41.6819 55.8732 41.8521C56.5144 42.4409 57.6529 42.0614 58.1109 41.8782C60.7805 40.7659 62.6387 38.3712 64.4707 35.8194C64.8109 35.3352 65.1512 34.851 65.4652 34.3669C65.1643 34.2098 64.8895 34.0135 64.6801 33.7518C64.2744 33.2546 64.0519 32.5872 63.9996 31.7104C63.9342 30.5327 64.3791 29.2895 65.1119 28.5567C65.6092 28.0594 66.2111 27.8239 66.8654 27.8631C67.2973 27.8893 67.6768 28.0594 67.8992 28.3342C68.2002 28.6876 68.2264 29.1586 68.2133 29.512C68.1479 31.043 67.6113 32.4432 66.8393 33.8042C67.0094 33.8042 67.1795 33.7911 67.3627 33.7518C68.174 33.5817 68.9068 33.0844 69.5219 32.6133C71.6811 30.9645 73.5131 28.8446 74.8348 26.4629C74.5862 26.2928 74.3637 26.0704 74.2067 25.8217C73.945 25.3899 73.8926 24.9057 74.0627 24.4739C74.2852 23.9243 74.9526 23.4924 75.5807 23.728C75.8686 23.8327 76.0911 24.0551 76.2088 24.343C76.4051 24.8403 76.2743 25.4684 76.078 25.9395C76.693 25.9133 77.3081 25.5731 77.9362 25.1936C80.7366 23.5186 82.8827 21.9352 84.2829 19.7237C84.4137 19.5143 84.6755 19.4619 84.8848 19.5928C85.0942 19.7237 85.1466 19.9854 85.0157 20.1948C83.4323 22.6942 80.8936 24.4346 78.3811 25.9395C77.5698 26.4237 76.7061 26.8948 75.7508 26.7901C75.7116 26.7901 75.6723 26.777 75.6461 26.777C74.259 29.3026 72.3354 31.5534 70.0453 33.2938C69.3518 33.8173 68.5143 34.393 67.5328 34.5893C67.1272 34.6678 66.7215 34.6809 66.3289 34.6286C65.9625 35.1913 65.583 35.754 65.1773 36.3167C63.2668 38.9862 61.317 41.4856 58.4381 42.6765C57.8754 42.8989 57.3258 43.0167 56.8285 43.0167ZM66.7477 28.7137C66.3813 28.7137 66.041 28.8577 65.74 29.1586C65.1773 29.7083 64.8371 30.7159 64.8894 31.645C64.9287 32.3255 65.0857 32.8358 65.3736 33.176C65.5307 33.3592 65.727 33.5032 65.9494 33.6079C66.7346 32.2862 67.2973 30.9253 67.3627 29.4727C67.3758 29.2764 67.3627 29.0147 67.258 28.8838C67.1795 28.7922 67.0356 28.7399 66.8393 28.7268C66.8 28.7137 66.7738 28.7137 66.7477 28.7137ZM75.2274 24.5C75.0965 24.5 74.9395 24.6178 74.8741 24.7618C74.7825 24.9842 74.861 25.1936 74.9526 25.3375C75.0311 25.4553 75.1227 25.5731 75.2405 25.6516C75.4237 25.2721 75.4891 24.8403 75.4106 24.6309C75.3844 24.5655 75.3452 24.5262 75.2928 24.5131C75.2666 24.5 75.2405 24.5 75.2274 24.5Z" fill="#1A1A1A"/>
<path d="M237.533 102.388C237.468 102.388 237.402 102.375 237.337 102.335C235.753 101.524 234.903 99.7052 234.824 96.9179C233.411 97.1927 231.88 97.3235 230.715 96.4075C230.231 96.028 229.838 95.4784 229.524 94.7194C228.661 92.6518 228.713 90.4272 228.87 87.954C228.909 87.3127 228.962 86.6061 229.079 85.8864C227.169 86.0827 224.97 86.0303 223.845 84.3946C223.112 83.3346 223.152 82.0522 223.243 80.7043C223.295 79.9192 223.453 77.8385 224.984 77.1973C225.206 77.1057 225.468 77.2104 225.559 77.4328C225.651 77.6553 225.546 77.917 225.324 78.0086C224.408 78.4012 224.198 79.6967 224.12 80.7828C224.028 81.9606 224.002 83.086 224.565 83.9104C225.494 85.2452 227.548 85.2059 229.276 84.9965C229.433 84.4469 229.642 83.9104 229.943 83.4131C230.283 82.8635 230.794 82.3662 231.37 82.0129C232.233 81.4895 233.123 81.869 233.542 82.5233C233.974 83.1645 233.974 84.1329 233.162 84.7217C233.018 84.8264 232.861 84.918 232.704 85.0096C231.841 85.4807 230.872 85.6508 229.969 85.7686C229.838 86.4622 229.773 87.2081 229.721 88.0063C229.577 90.3749 229.511 92.4948 230.31 94.3792C230.571 94.9942 230.872 95.4391 231.239 95.727C232.155 96.4468 233.542 96.2766 234.798 96.028C234.811 95.3868 234.89 94.7325 235.256 94.1698C235.531 93.751 235.989 93.4632 236.473 93.3716C236.866 93.3061 237.245 93.3846 237.546 93.6071C237.585 93.6333 237.611 93.6725 237.638 93.7118C238.161 94.4708 237.808 95.5046 237.18 96.0411C236.735 96.4206 236.172 96.6038 235.662 96.7216C235.714 99.2602 236.394 100.883 237.703 101.55C237.912 101.655 238.004 101.917 237.899 102.139C237.834 102.296 237.69 102.388 237.533 102.388ZM236.748 94.2352C236.709 94.2352 236.669 94.2352 236.63 94.2483C236.381 94.2876 236.133 94.4577 236.002 94.6671C235.793 94.9942 235.714 95.3999 235.688 95.8448C236.041 95.7532 236.368 95.6093 236.63 95.3999C236.944 95.1382 237.14 94.6409 236.97 94.3007C236.905 94.2483 236.826 94.2352 236.748 94.2352ZM232.194 82.6541C232.076 82.6541 231.945 82.6934 231.801 82.7719C231.343 83.0467 230.951 83.4393 230.676 83.8842C230.48 84.1983 230.336 84.5254 230.218 84.8788C230.951 84.761 231.657 84.604 232.286 84.2637C232.403 84.1983 232.521 84.1198 232.639 84.0413C233.058 83.7403 232.992 83.3084 232.809 83.0205C232.678 82.8243 232.469 82.6541 232.194 82.6541Z" fill="#1A1A1A"/>
<path d="M228.466 144.59C228.426 144.59 228.387 144.59 228.361 144.59C227.759 144.564 227.17 144.237 226.764 143.713C226.346 143.164 226.162 142.47 226.28 141.842C226.516 140.612 227.811 139.683 229.107 139.84C229.342 139.866 229.512 140.088 229.486 140.324C229.46 140.56 229.238 140.743 229.002 140.704C228.165 140.612 227.288 141.214 227.131 142.012C227.052 142.392 227.17 142.837 227.445 143.19C227.694 143.517 228.047 143.713 228.4 143.726C228.976 143.753 229.591 143.386 229.97 142.771C230.363 142.156 230.494 141.397 230.586 140.677C231.044 137.118 230.494 133.454 229.041 130.182C228.125 130.366 227.157 130.143 226.45 129.934C224.487 129.358 223.925 128.22 224.056 127.356C224.134 126.859 224.435 126.427 224.919 126.152C225.508 125.812 226.267 125.746 226.895 125.995C227.929 126.401 228.557 127.343 229.041 128.206C229.198 128.494 229.355 128.795 229.512 129.096C229.526 129.083 229.539 129.083 229.552 129.07C230.258 128.638 230.599 127.761 230.873 126.872C231.855 123.705 232.234 120.42 232.025 117.11C232.012 116.874 232.195 116.665 232.431 116.652C232.666 116.638 232.876 116.822 232.889 117.057C233.111 120.473 232.705 123.862 231.698 127.12C231.397 128.115 230.952 129.214 229.997 129.803C229.957 129.829 229.905 129.855 229.853 129.881C231.345 133.284 231.907 137.092 231.436 140.782C231.331 141.606 231.161 142.47 230.69 143.229C230.193 144.067 229.316 144.59 228.466 144.59ZM226.097 126.688C225.835 126.688 225.574 126.754 225.364 126.872C225.194 126.976 224.972 127.16 224.932 127.461C224.815 128.285 225.992 128.861 226.712 129.083C227.497 129.319 228.152 129.397 228.675 129.345C228.557 129.096 228.426 128.848 228.282 128.612C227.877 127.879 227.353 127.094 226.581 126.793C226.437 126.715 226.267 126.688 226.097 126.688Z" fill="#1A1A1A"/>
<path d="M26.7969 36.9448L28.8906 42.1792L36.6114 38.2534L34.5176 34.7202L26.7969 36.9448Z" fill="#1A1A1A"/>
<path d="M160.103 115.906L163.243 119.046L167.954 114.597L165.206 111.456L160.103 115.906Z" fill="white"/>
<path d="M163.244 119.439C163.139 119.439 163.047 119.4 162.969 119.321L159.828 116.18C159.75 116.102 159.711 115.997 159.711 115.893C159.711 115.788 159.763 115.683 159.841 115.605L164.945 111.155C165.102 111.011 165.351 111.025 165.495 111.195L168.243 114.335C168.387 114.492 168.373 114.728 168.216 114.885L163.505 119.334C163.44 119.413 163.348 119.439 163.244 119.439ZM160.679 115.932L163.257 118.51L167.418 114.584L165.18 112.019L160.679 115.932Z" fill="#1A1A1A"/>
<path d="M35.749 72.3031L38.2222 72.8266L39.2822 69.2148L36.0107 68.0633L35.749 72.3031Z" fill="white"/>
<path d="M38.2218 73.2192C38.1957 73.2192 38.1695 73.2191 38.1433 73.2061L35.6701 72.6826C35.4738 72.6434 35.3429 72.4732 35.356 72.277L35.6177 68.0371C35.6308 67.9193 35.6962 67.8016 35.7878 67.7361C35.8925 67.6707 36.0234 67.6576 36.1412 67.6969L39.4127 68.8484C39.609 68.9139 39.7136 69.1232 39.6613 69.3326L38.6013 72.9574C38.549 73.1145 38.392 73.2192 38.2218 73.2192ZM36.1673 71.9891L37.947 72.3686L38.7976 69.4504L36.3767 68.5998L36.1673 71.9891Z" fill="#1A1A1A"/>
<path d="M63.3994 58.8508L66.0166 61.0754L63.9228 65.9172L61.4365 64.4778L63.3994 58.8508Z" fill="#1A1A1A"/>
<path d="M181.041 108.054L176.069 97.3235L173.687 98.5798L170.311 90.9114L167.301 92.7434L172.666 103.474L175.048 101.982L178.948 109.232L181.041 108.054Z" fill="#1A1A1A"/>
<path d="M221.672 24.6047L223.779 24.8402L221.057 32.3778L217.289 31.2393L221.672 24.6047Z" fill="#1A1A1A"/>
<path d="M190.018 9.24178L193.538 10.7074L193.224 14.6855L187.885 14.0574L190.018 9.24178Z" fill="#1A1A1A"/>
<path d="M113.164 86.9332L116.436 84.9703L121.277 91.775L117.875 92.5602L113.164 86.9332Z" fill="#1A1A1A"/>
<path d="M238.881 70.4057L236.421 65.9041L235.57 66.6107L232.469 62.7635L229.982 65.9041L234.431 70.615L235.256 69.7514L236.774 72.0545L238.881 70.4057Z" fill="#1A1A1A"/>
<path d="M203.877 93.3584C203.877 93.3584 205.722 82.7457 206.311 78.8199C206.899 74.8941 207.619 68.4166 206.376 69.0054C205.133 69.5943 201.207 79.7359 201.207 79.7359L191.131 79.6705L192.374 91.0553C192.374 91.0553 197.334 89.9299 200.029 91.0553C202.175 91.8928 203.877 93.3584 203.877 93.3584Z" fill="white"/>
<path d="M207.134 68.6129C206.977 68.3904 206.728 68.2857 206.479 68.325C205.917 68.4166 205.053 69.1886 202.92 74.3053C201.978 76.556 201.153 78.8068 200.866 79.592L191.13 79.2518C191.012 79.2518 190.907 79.3041 190.829 79.3826C190.75 79.4742 190.711 79.5789 190.724 79.6967V79.7098L191.692 91.1469C191.692 91.16 191.692 91.1731 191.692 91.1862C191.692 91.2909 191.234 101.184 186.013 119.164C183.945 126.309 179.077 132.263 171.553 136.896C165.206 140.795 158.245 143.007 153.625 144.472C152.801 144.734 152.016 144.983 151.335 145.205C143.078 147.953 137.268 155.465 137.215 155.543C137.084 155.713 137.124 155.962 137.294 156.093C137.359 156.145 137.451 156.171 137.529 156.171C137.647 156.171 137.765 156.119 137.83 156.014C137.896 155.936 143.549 148.621 151.584 145.938C152.251 145.715 153.036 145.467 153.861 145.205C158.205 143.818 164.63 141.79 170.702 138.296C170.729 139.303 170.938 141.842 172.404 141.947C174.236 142.078 176.722 141.162 177.115 142.994C177.507 144.826 178.044 154.274 182.349 153.07C185.62 152.154 183.003 144.433 182.087 137.497C181.485 132.983 181.721 130.195 181.956 128.795C184.168 125.929 185.777 122.789 186.772 119.373C187.963 115.264 188.905 111.587 189.651 108.342C190.397 106.366 192.648 102.034 198.118 102.492C198.118 102.492 198.118 102.492 198.104 102.479C199.871 102.977 201.886 103.958 203.928 105.777C203.888 108.198 203.758 110.907 203.522 113.851C202.946 120.983 201.782 128.049 200.067 134.841C197.921 143.334 194.925 151.447 191.13 158.932C188.84 163.46 186.353 167.726 183.671 171.73C179.3 170.147 171.854 173.772 165.9 180.694C160.953 186.465 158.415 192.904 158.99 197.274C153.337 201.226 147.148 204.55 140.552 207.18C133.774 209.889 126.393 211.944 118.594 213.278C118.385 213.318 118.241 213.527 118.28 213.736C118.319 213.933 118.489 214.064 118.672 214.064C118.699 214.064 118.712 214.064 118.725 214.037C126.576 212.689 134.022 210.609 140.84 207.887C147.933 205.047 154.58 201.409 160.6 197.065C166.842 192.563 172.587 187.172 177.703 181.035C182.977 174.701 187.74 167.373 191.836 159.273C195.657 151.735 198.68 143.569 200.839 135.011C202.567 128.167 203.731 121.061 204.32 113.89C204.556 110.959 204.674 108.25 204.726 105.816C204.765 105.712 204.778 105.607 204.726 105.502C204.831 98.6975 204.346 94.2221 204.255 93.4239C204.32 93.0051 205.315 87.4436 206.165 81.7643C207.762 71.0992 207.526 69.1363 207.134 68.6129ZM192.464 91.5002C192.975 91.3563 194.244 91.0553 195.827 90.9899L194.349 101.236C192.857 101.289 191.705 101.59 191.025 101.812C192.111 96.0149 192.399 92.5079 192.464 91.5002ZM195.134 101.236L196.613 90.9899C197.83 91.0161 199.164 91.1993 200.486 91.6965L199.897 102.283C198.104 101.537 196.456 101.275 195.134 101.236ZM200.669 102.636L201.258 92.0237C202.03 92.3901 202.789 92.8873 203.483 93.5416C203.574 94.3399 204.019 98.4751 203.954 104.769C202.842 103.84 201.729 103.147 200.669 102.636ZM203.614 92.6256C201.716 91.0422 199.243 90.2178 196.39 90.2047C196.377 90.2047 196.351 90.1916 196.338 90.1916C196.272 90.1785 196.22 90.1916 196.155 90.2047C194.48 90.2178 193.119 90.5188 192.425 90.702L191.705 82.183L201.075 80.4164C201.245 80.4426 201.428 80.3379 201.494 80.1547C201.507 80.1285 202.462 77.4066 203.601 74.6717C205.485 70.1308 206.296 69.2802 206.532 69.1232C206.689 69.5158 206.911 71.5179 205.393 81.6857C204.7 86.3574 203.915 90.9375 203.614 92.6256Z" fill="#1A1A1A"/>
</svg>
